G75*
%MOIN*%
%OFA0B0*%
%FSLAX25Y25*%
%IPPOS*%
%LPD*%
%AMOC8*
5,1,8,0,0,1.08239X$1,22.5*
%
%ADD10C,0.00000*%
%ADD11C,0.00500*%
%ADD12C,0.00400*%
D10*
X0001800Y0023933D02*
X0001800Y0198933D01*
X0176800Y0198933D01*
X0176800Y0023933D01*
X0001800Y0023933D01*
X0007000Y0038933D02*
X0007003Y0039174D01*
X0007012Y0039414D01*
X0007027Y0039654D01*
X0007047Y0039894D01*
X0007074Y0040133D01*
X0007106Y0040371D01*
X0007144Y0040608D01*
X0007188Y0040845D01*
X0007238Y0041080D01*
X0007294Y0041314D01*
X0007355Y0041547D01*
X0007422Y0041778D01*
X0007495Y0042007D01*
X0007573Y0042235D01*
X0007657Y0042460D01*
X0007746Y0042683D01*
X0007841Y0042904D01*
X0007941Y0043123D01*
X0008046Y0043339D01*
X0008157Y0043553D01*
X0008273Y0043763D01*
X0008394Y0043971D01*
X0008520Y0044176D01*
X0008652Y0044378D01*
X0008788Y0044576D01*
X0008929Y0044771D01*
X0009074Y0044962D01*
X0009224Y0045150D01*
X0009379Y0045334D01*
X0009539Y0045514D01*
X0009702Y0045690D01*
X0009870Y0045863D01*
X0010043Y0046031D01*
X0010219Y0046194D01*
X0010399Y0046354D01*
X0010583Y0046509D01*
X0010771Y0046659D01*
X0010962Y0046804D01*
X0011157Y0046945D01*
X0011355Y0047081D01*
X0011557Y0047213D01*
X0011762Y0047339D01*
X0011970Y0047460D01*
X0012180Y0047576D01*
X0012394Y0047687D01*
X0012610Y0047792D01*
X0012829Y0047892D01*
X0013050Y0047987D01*
X0013273Y0048076D01*
X0013498Y0048160D01*
X0013726Y0048238D01*
X0013955Y0048311D01*
X0014186Y0048378D01*
X0014419Y0048439D01*
X0014653Y0048495D01*
X0014888Y0048545D01*
X0015125Y0048589D01*
X0015362Y0048627D01*
X0015600Y0048659D01*
X0015839Y0048686D01*
X0016079Y0048706D01*
X0016319Y0048721D01*
X0016559Y0048730D01*
X0016800Y0048733D01*
X0017041Y0048730D01*
X0017281Y0048721D01*
X0017521Y0048706D01*
X0017761Y0048686D01*
X0018000Y0048659D01*
X0018238Y0048627D01*
X0018475Y0048589D01*
X0018712Y0048545D01*
X0018947Y0048495D01*
X0019181Y0048439D01*
X0019414Y0048378D01*
X0019645Y0048311D01*
X0019874Y0048238D01*
X0020102Y0048160D01*
X0020327Y0048076D01*
X0020550Y0047987D01*
X0020771Y0047892D01*
X0020990Y0047792D01*
X0021206Y0047687D01*
X0021420Y0047576D01*
X0021630Y0047460D01*
X0021838Y0047339D01*
X0022043Y0047213D01*
X0022245Y0047081D01*
X0022443Y0046945D01*
X0022638Y0046804D01*
X0022829Y0046659D01*
X0023017Y0046509D01*
X0023201Y0046354D01*
X0023381Y0046194D01*
X0023557Y0046031D01*
X0023730Y0045863D01*
X0023898Y0045690D01*
X0024061Y0045514D01*
X0024221Y0045334D01*
X0024376Y0045150D01*
X0024526Y0044962D01*
X0024671Y0044771D01*
X0024812Y0044576D01*
X0024948Y0044378D01*
X0025080Y0044176D01*
X0025206Y0043971D01*
X0025327Y0043763D01*
X0025443Y0043553D01*
X0025554Y0043339D01*
X0025659Y0043123D01*
X0025759Y0042904D01*
X0025854Y0042683D01*
X0025943Y0042460D01*
X0026027Y0042235D01*
X0026105Y0042007D01*
X0026178Y0041778D01*
X0026245Y0041547D01*
X0026306Y0041314D01*
X0026362Y0041080D01*
X0026412Y0040845D01*
X0026456Y0040608D01*
X0026494Y0040371D01*
X0026526Y0040133D01*
X0026553Y0039894D01*
X0026573Y0039654D01*
X0026588Y0039414D01*
X0026597Y0039174D01*
X0026600Y0038933D01*
X0026597Y0038692D01*
X0026588Y0038452D01*
X0026573Y0038212D01*
X0026553Y0037972D01*
X0026526Y0037733D01*
X0026494Y0037495D01*
X0026456Y0037258D01*
X0026412Y0037021D01*
X0026362Y0036786D01*
X0026306Y0036552D01*
X0026245Y0036319D01*
X0026178Y0036088D01*
X0026105Y0035859D01*
X0026027Y0035631D01*
X0025943Y0035406D01*
X0025854Y0035183D01*
X0025759Y0034962D01*
X0025659Y0034743D01*
X0025554Y0034527D01*
X0025443Y0034313D01*
X0025327Y0034103D01*
X0025206Y0033895D01*
X0025080Y0033690D01*
X0024948Y0033488D01*
X0024812Y0033290D01*
X0024671Y0033095D01*
X0024526Y0032904D01*
X0024376Y0032716D01*
X0024221Y0032532D01*
X0024061Y0032352D01*
X0023898Y0032176D01*
X0023730Y0032003D01*
X0023557Y0031835D01*
X0023381Y0031672D01*
X0023201Y0031512D01*
X0023017Y0031357D01*
X0022829Y0031207D01*
X0022638Y0031062D01*
X0022443Y0030921D01*
X0022245Y0030785D01*
X0022043Y0030653D01*
X0021838Y0030527D01*
X0021630Y0030406D01*
X0021420Y0030290D01*
X0021206Y0030179D01*
X0020990Y0030074D01*
X0020771Y0029974D01*
X0020550Y0029879D01*
X0020327Y0029790D01*
X0020102Y0029706D01*
X0019874Y0029628D01*
X0019645Y0029555D01*
X0019414Y0029488D01*
X0019181Y0029427D01*
X0018947Y0029371D01*
X0018712Y0029321D01*
X0018475Y0029277D01*
X0018238Y0029239D01*
X0018000Y0029207D01*
X0017761Y0029180D01*
X0017521Y0029160D01*
X0017281Y0029145D01*
X0017041Y0029136D01*
X0016800Y0029133D01*
X0016559Y0029136D01*
X0016319Y0029145D01*
X0016079Y0029160D01*
X0015839Y0029180D01*
X0015600Y0029207D01*
X0015362Y0029239D01*
X0015125Y0029277D01*
X0014888Y0029321D01*
X0014653Y0029371D01*
X0014419Y0029427D01*
X0014186Y0029488D01*
X0013955Y0029555D01*
X0013726Y0029628D01*
X0013498Y0029706D01*
X0013273Y0029790D01*
X0013050Y0029879D01*
X0012829Y0029974D01*
X0012610Y0030074D01*
X0012394Y0030179D01*
X0012180Y0030290D01*
X0011970Y0030406D01*
X0011762Y0030527D01*
X0011557Y0030653D01*
X0011355Y0030785D01*
X0011157Y0030921D01*
X0010962Y0031062D01*
X0010771Y0031207D01*
X0010583Y0031357D01*
X0010399Y0031512D01*
X0010219Y0031672D01*
X0010043Y0031835D01*
X0009870Y0032003D01*
X0009702Y0032176D01*
X0009539Y0032352D01*
X0009379Y0032532D01*
X0009224Y0032716D01*
X0009074Y0032904D01*
X0008929Y0033095D01*
X0008788Y0033290D01*
X0008652Y0033488D01*
X0008520Y0033690D01*
X0008394Y0033895D01*
X0008273Y0034103D01*
X0008157Y0034313D01*
X0008046Y0034527D01*
X0007941Y0034743D01*
X0007841Y0034962D01*
X0007746Y0035183D01*
X0007657Y0035406D01*
X0007573Y0035631D01*
X0007495Y0035859D01*
X0007422Y0036088D01*
X0007355Y0036319D01*
X0007294Y0036552D01*
X0007238Y0036786D01*
X0007188Y0037021D01*
X0007144Y0037258D01*
X0007106Y0037495D01*
X0007074Y0037733D01*
X0007047Y0037972D01*
X0007027Y0038212D01*
X0007012Y0038452D01*
X0007003Y0038692D01*
X0007000Y0038933D01*
X0007000Y0183933D02*
X0007003Y0184174D01*
X0007012Y0184414D01*
X0007027Y0184654D01*
X0007047Y0184894D01*
X0007074Y0185133D01*
X0007106Y0185371D01*
X0007144Y0185608D01*
X0007188Y0185845D01*
X0007238Y0186080D01*
X0007294Y0186314D01*
X0007355Y0186547D01*
X0007422Y0186778D01*
X0007495Y0187007D01*
X0007573Y0187235D01*
X0007657Y0187460D01*
X0007746Y0187683D01*
X0007841Y0187904D01*
X0007941Y0188123D01*
X0008046Y0188339D01*
X0008157Y0188553D01*
X0008273Y0188763D01*
X0008394Y0188971D01*
X0008520Y0189176D01*
X0008652Y0189378D01*
X0008788Y0189576D01*
X0008929Y0189771D01*
X0009074Y0189962D01*
X0009224Y0190150D01*
X0009379Y0190334D01*
X0009539Y0190514D01*
X0009702Y0190690D01*
X0009870Y0190863D01*
X0010043Y0191031D01*
X0010219Y0191194D01*
X0010399Y0191354D01*
X0010583Y0191509D01*
X0010771Y0191659D01*
X0010962Y0191804D01*
X0011157Y0191945D01*
X0011355Y0192081D01*
X0011557Y0192213D01*
X0011762Y0192339D01*
X0011970Y0192460D01*
X0012180Y0192576D01*
X0012394Y0192687D01*
X0012610Y0192792D01*
X0012829Y0192892D01*
X0013050Y0192987D01*
X0013273Y0193076D01*
X0013498Y0193160D01*
X0013726Y0193238D01*
X0013955Y0193311D01*
X0014186Y0193378D01*
X0014419Y0193439D01*
X0014653Y0193495D01*
X0014888Y0193545D01*
X0015125Y0193589D01*
X0015362Y0193627D01*
X0015600Y0193659D01*
X0015839Y0193686D01*
X0016079Y0193706D01*
X0016319Y0193721D01*
X0016559Y0193730D01*
X0016800Y0193733D01*
X0017041Y0193730D01*
X0017281Y0193721D01*
X0017521Y0193706D01*
X0017761Y0193686D01*
X0018000Y0193659D01*
X0018238Y0193627D01*
X0018475Y0193589D01*
X0018712Y0193545D01*
X0018947Y0193495D01*
X0019181Y0193439D01*
X0019414Y0193378D01*
X0019645Y0193311D01*
X0019874Y0193238D01*
X0020102Y0193160D01*
X0020327Y0193076D01*
X0020550Y0192987D01*
X0020771Y0192892D01*
X0020990Y0192792D01*
X0021206Y0192687D01*
X0021420Y0192576D01*
X0021630Y0192460D01*
X0021838Y0192339D01*
X0022043Y0192213D01*
X0022245Y0192081D01*
X0022443Y0191945D01*
X0022638Y0191804D01*
X0022829Y0191659D01*
X0023017Y0191509D01*
X0023201Y0191354D01*
X0023381Y0191194D01*
X0023557Y0191031D01*
X0023730Y0190863D01*
X0023898Y0190690D01*
X0024061Y0190514D01*
X0024221Y0190334D01*
X0024376Y0190150D01*
X0024526Y0189962D01*
X0024671Y0189771D01*
X0024812Y0189576D01*
X0024948Y0189378D01*
X0025080Y0189176D01*
X0025206Y0188971D01*
X0025327Y0188763D01*
X0025443Y0188553D01*
X0025554Y0188339D01*
X0025659Y0188123D01*
X0025759Y0187904D01*
X0025854Y0187683D01*
X0025943Y0187460D01*
X0026027Y0187235D01*
X0026105Y0187007D01*
X0026178Y0186778D01*
X0026245Y0186547D01*
X0026306Y0186314D01*
X0026362Y0186080D01*
X0026412Y0185845D01*
X0026456Y0185608D01*
X0026494Y0185371D01*
X0026526Y0185133D01*
X0026553Y0184894D01*
X0026573Y0184654D01*
X0026588Y0184414D01*
X0026597Y0184174D01*
X0026600Y0183933D01*
X0026597Y0183692D01*
X0026588Y0183452D01*
X0026573Y0183212D01*
X0026553Y0182972D01*
X0026526Y0182733D01*
X0026494Y0182495D01*
X0026456Y0182258D01*
X0026412Y0182021D01*
X0026362Y0181786D01*
X0026306Y0181552D01*
X0026245Y0181319D01*
X0026178Y0181088D01*
X0026105Y0180859D01*
X0026027Y0180631D01*
X0025943Y0180406D01*
X0025854Y0180183D01*
X0025759Y0179962D01*
X0025659Y0179743D01*
X0025554Y0179527D01*
X0025443Y0179313D01*
X0025327Y0179103D01*
X0025206Y0178895D01*
X0025080Y0178690D01*
X0024948Y0178488D01*
X0024812Y0178290D01*
X0024671Y0178095D01*
X0024526Y0177904D01*
X0024376Y0177716D01*
X0024221Y0177532D01*
X0024061Y0177352D01*
X0023898Y0177176D01*
X0023730Y0177003D01*
X0023557Y0176835D01*
X0023381Y0176672D01*
X0023201Y0176512D01*
X0023017Y0176357D01*
X0022829Y0176207D01*
X0022638Y0176062D01*
X0022443Y0175921D01*
X0022245Y0175785D01*
X0022043Y0175653D01*
X0021838Y0175527D01*
X0021630Y0175406D01*
X0021420Y0175290D01*
X0021206Y0175179D01*
X0020990Y0175074D01*
X0020771Y0174974D01*
X0020550Y0174879D01*
X0020327Y0174790D01*
X0020102Y0174706D01*
X0019874Y0174628D01*
X0019645Y0174555D01*
X0019414Y0174488D01*
X0019181Y0174427D01*
X0018947Y0174371D01*
X0018712Y0174321D01*
X0018475Y0174277D01*
X0018238Y0174239D01*
X0018000Y0174207D01*
X0017761Y0174180D01*
X0017521Y0174160D01*
X0017281Y0174145D01*
X0017041Y0174136D01*
X0016800Y0174133D01*
X0016559Y0174136D01*
X0016319Y0174145D01*
X0016079Y0174160D01*
X0015839Y0174180D01*
X0015600Y0174207D01*
X0015362Y0174239D01*
X0015125Y0174277D01*
X0014888Y0174321D01*
X0014653Y0174371D01*
X0014419Y0174427D01*
X0014186Y0174488D01*
X0013955Y0174555D01*
X0013726Y0174628D01*
X0013498Y0174706D01*
X0013273Y0174790D01*
X0013050Y0174879D01*
X0012829Y0174974D01*
X0012610Y0175074D01*
X0012394Y0175179D01*
X0012180Y0175290D01*
X0011970Y0175406D01*
X0011762Y0175527D01*
X0011557Y0175653D01*
X0011355Y0175785D01*
X0011157Y0175921D01*
X0010962Y0176062D01*
X0010771Y0176207D01*
X0010583Y0176357D01*
X0010399Y0176512D01*
X0010219Y0176672D01*
X0010043Y0176835D01*
X0009870Y0177003D01*
X0009702Y0177176D01*
X0009539Y0177352D01*
X0009379Y0177532D01*
X0009224Y0177716D01*
X0009074Y0177904D01*
X0008929Y0178095D01*
X0008788Y0178290D01*
X0008652Y0178488D01*
X0008520Y0178690D01*
X0008394Y0178895D01*
X0008273Y0179103D01*
X0008157Y0179313D01*
X0008046Y0179527D01*
X0007941Y0179743D01*
X0007841Y0179962D01*
X0007746Y0180183D01*
X0007657Y0180406D01*
X0007573Y0180631D01*
X0007495Y0180859D01*
X0007422Y0181088D01*
X0007355Y0181319D01*
X0007294Y0181552D01*
X0007238Y0181786D01*
X0007188Y0182021D01*
X0007144Y0182258D01*
X0007106Y0182495D01*
X0007074Y0182733D01*
X0007047Y0182972D01*
X0007027Y0183212D01*
X0007012Y0183452D01*
X0007003Y0183692D01*
X0007000Y0183933D01*
X0152000Y0183933D02*
X0152003Y0184174D01*
X0152012Y0184414D01*
X0152027Y0184654D01*
X0152047Y0184894D01*
X0152074Y0185133D01*
X0152106Y0185371D01*
X0152144Y0185608D01*
X0152188Y0185845D01*
X0152238Y0186080D01*
X0152294Y0186314D01*
X0152355Y0186547D01*
X0152422Y0186778D01*
X0152495Y0187007D01*
X0152573Y0187235D01*
X0152657Y0187460D01*
X0152746Y0187683D01*
X0152841Y0187904D01*
X0152941Y0188123D01*
X0153046Y0188339D01*
X0153157Y0188553D01*
X0153273Y0188763D01*
X0153394Y0188971D01*
X0153520Y0189176D01*
X0153652Y0189378D01*
X0153788Y0189576D01*
X0153929Y0189771D01*
X0154074Y0189962D01*
X0154224Y0190150D01*
X0154379Y0190334D01*
X0154539Y0190514D01*
X0154702Y0190690D01*
X0154870Y0190863D01*
X0155043Y0191031D01*
X0155219Y0191194D01*
X0155399Y0191354D01*
X0155583Y0191509D01*
X0155771Y0191659D01*
X0155962Y0191804D01*
X0156157Y0191945D01*
X0156355Y0192081D01*
X0156557Y0192213D01*
X0156762Y0192339D01*
X0156970Y0192460D01*
X0157180Y0192576D01*
X0157394Y0192687D01*
X0157610Y0192792D01*
X0157829Y0192892D01*
X0158050Y0192987D01*
X0158273Y0193076D01*
X0158498Y0193160D01*
X0158726Y0193238D01*
X0158955Y0193311D01*
X0159186Y0193378D01*
X0159419Y0193439D01*
X0159653Y0193495D01*
X0159888Y0193545D01*
X0160125Y0193589D01*
X0160362Y0193627D01*
X0160600Y0193659D01*
X0160839Y0193686D01*
X0161079Y0193706D01*
X0161319Y0193721D01*
X0161559Y0193730D01*
X0161800Y0193733D01*
X0162041Y0193730D01*
X0162281Y0193721D01*
X0162521Y0193706D01*
X0162761Y0193686D01*
X0163000Y0193659D01*
X0163238Y0193627D01*
X0163475Y0193589D01*
X0163712Y0193545D01*
X0163947Y0193495D01*
X0164181Y0193439D01*
X0164414Y0193378D01*
X0164645Y0193311D01*
X0164874Y0193238D01*
X0165102Y0193160D01*
X0165327Y0193076D01*
X0165550Y0192987D01*
X0165771Y0192892D01*
X0165990Y0192792D01*
X0166206Y0192687D01*
X0166420Y0192576D01*
X0166630Y0192460D01*
X0166838Y0192339D01*
X0167043Y0192213D01*
X0167245Y0192081D01*
X0167443Y0191945D01*
X0167638Y0191804D01*
X0167829Y0191659D01*
X0168017Y0191509D01*
X0168201Y0191354D01*
X0168381Y0191194D01*
X0168557Y0191031D01*
X0168730Y0190863D01*
X0168898Y0190690D01*
X0169061Y0190514D01*
X0169221Y0190334D01*
X0169376Y0190150D01*
X0169526Y0189962D01*
X0169671Y0189771D01*
X0169812Y0189576D01*
X0169948Y0189378D01*
X0170080Y0189176D01*
X0170206Y0188971D01*
X0170327Y0188763D01*
X0170443Y0188553D01*
X0170554Y0188339D01*
X0170659Y0188123D01*
X0170759Y0187904D01*
X0170854Y0187683D01*
X0170943Y0187460D01*
X0171027Y0187235D01*
X0171105Y0187007D01*
X0171178Y0186778D01*
X0171245Y0186547D01*
X0171306Y0186314D01*
X0171362Y0186080D01*
X0171412Y0185845D01*
X0171456Y0185608D01*
X0171494Y0185371D01*
X0171526Y0185133D01*
X0171553Y0184894D01*
X0171573Y0184654D01*
X0171588Y0184414D01*
X0171597Y0184174D01*
X0171600Y0183933D01*
X0171597Y0183692D01*
X0171588Y0183452D01*
X0171573Y0183212D01*
X0171553Y0182972D01*
X0171526Y0182733D01*
X0171494Y0182495D01*
X0171456Y0182258D01*
X0171412Y0182021D01*
X0171362Y0181786D01*
X0171306Y0181552D01*
X0171245Y0181319D01*
X0171178Y0181088D01*
X0171105Y0180859D01*
X0171027Y0180631D01*
X0170943Y0180406D01*
X0170854Y0180183D01*
X0170759Y0179962D01*
X0170659Y0179743D01*
X0170554Y0179527D01*
X0170443Y0179313D01*
X0170327Y0179103D01*
X0170206Y0178895D01*
X0170080Y0178690D01*
X0169948Y0178488D01*
X0169812Y0178290D01*
X0169671Y0178095D01*
X0169526Y0177904D01*
X0169376Y0177716D01*
X0169221Y0177532D01*
X0169061Y0177352D01*
X0168898Y0177176D01*
X0168730Y0177003D01*
X0168557Y0176835D01*
X0168381Y0176672D01*
X0168201Y0176512D01*
X0168017Y0176357D01*
X0167829Y0176207D01*
X0167638Y0176062D01*
X0167443Y0175921D01*
X0167245Y0175785D01*
X0167043Y0175653D01*
X0166838Y0175527D01*
X0166630Y0175406D01*
X0166420Y0175290D01*
X0166206Y0175179D01*
X0165990Y0175074D01*
X0165771Y0174974D01*
X0165550Y0174879D01*
X0165327Y0174790D01*
X0165102Y0174706D01*
X0164874Y0174628D01*
X0164645Y0174555D01*
X0164414Y0174488D01*
X0164181Y0174427D01*
X0163947Y0174371D01*
X0163712Y0174321D01*
X0163475Y0174277D01*
X0163238Y0174239D01*
X0163000Y0174207D01*
X0162761Y0174180D01*
X0162521Y0174160D01*
X0162281Y0174145D01*
X0162041Y0174136D01*
X0161800Y0174133D01*
X0161559Y0174136D01*
X0161319Y0174145D01*
X0161079Y0174160D01*
X0160839Y0174180D01*
X0160600Y0174207D01*
X0160362Y0174239D01*
X0160125Y0174277D01*
X0159888Y0174321D01*
X0159653Y0174371D01*
X0159419Y0174427D01*
X0159186Y0174488D01*
X0158955Y0174555D01*
X0158726Y0174628D01*
X0158498Y0174706D01*
X0158273Y0174790D01*
X0158050Y0174879D01*
X0157829Y0174974D01*
X0157610Y0175074D01*
X0157394Y0175179D01*
X0157180Y0175290D01*
X0156970Y0175406D01*
X0156762Y0175527D01*
X0156557Y0175653D01*
X0156355Y0175785D01*
X0156157Y0175921D01*
X0155962Y0176062D01*
X0155771Y0176207D01*
X0155583Y0176357D01*
X0155399Y0176512D01*
X0155219Y0176672D01*
X0155043Y0176835D01*
X0154870Y0177003D01*
X0154702Y0177176D01*
X0154539Y0177352D01*
X0154379Y0177532D01*
X0154224Y0177716D01*
X0154074Y0177904D01*
X0153929Y0178095D01*
X0153788Y0178290D01*
X0153652Y0178488D01*
X0153520Y0178690D01*
X0153394Y0178895D01*
X0153273Y0179103D01*
X0153157Y0179313D01*
X0153046Y0179527D01*
X0152941Y0179743D01*
X0152841Y0179962D01*
X0152746Y0180183D01*
X0152657Y0180406D01*
X0152573Y0180631D01*
X0152495Y0180859D01*
X0152422Y0181088D01*
X0152355Y0181319D01*
X0152294Y0181552D01*
X0152238Y0181786D01*
X0152188Y0182021D01*
X0152144Y0182258D01*
X0152106Y0182495D01*
X0152074Y0182733D01*
X0152047Y0182972D01*
X0152027Y0183212D01*
X0152012Y0183452D01*
X0152003Y0183692D01*
X0152000Y0183933D01*
X0152000Y0038933D02*
X0152003Y0039174D01*
X0152012Y0039414D01*
X0152027Y0039654D01*
X0152047Y0039894D01*
X0152074Y0040133D01*
X0152106Y0040371D01*
X0152144Y0040608D01*
X0152188Y0040845D01*
X0152238Y0041080D01*
X0152294Y0041314D01*
X0152355Y0041547D01*
X0152422Y0041778D01*
X0152495Y0042007D01*
X0152573Y0042235D01*
X0152657Y0042460D01*
X0152746Y0042683D01*
X0152841Y0042904D01*
X0152941Y0043123D01*
X0153046Y0043339D01*
X0153157Y0043553D01*
X0153273Y0043763D01*
X0153394Y0043971D01*
X0153520Y0044176D01*
X0153652Y0044378D01*
X0153788Y0044576D01*
X0153929Y0044771D01*
X0154074Y0044962D01*
X0154224Y0045150D01*
X0154379Y0045334D01*
X0154539Y0045514D01*
X0154702Y0045690D01*
X0154870Y0045863D01*
X0155043Y0046031D01*
X0155219Y0046194D01*
X0155399Y0046354D01*
X0155583Y0046509D01*
X0155771Y0046659D01*
X0155962Y0046804D01*
X0156157Y0046945D01*
X0156355Y0047081D01*
X0156557Y0047213D01*
X0156762Y0047339D01*
X0156970Y0047460D01*
X0157180Y0047576D01*
X0157394Y0047687D01*
X0157610Y0047792D01*
X0157829Y0047892D01*
X0158050Y0047987D01*
X0158273Y0048076D01*
X0158498Y0048160D01*
X0158726Y0048238D01*
X0158955Y0048311D01*
X0159186Y0048378D01*
X0159419Y0048439D01*
X0159653Y0048495D01*
X0159888Y0048545D01*
X0160125Y0048589D01*
X0160362Y0048627D01*
X0160600Y0048659D01*
X0160839Y0048686D01*
X0161079Y0048706D01*
X0161319Y0048721D01*
X0161559Y0048730D01*
X0161800Y0048733D01*
X0162041Y0048730D01*
X0162281Y0048721D01*
X0162521Y0048706D01*
X0162761Y0048686D01*
X0163000Y0048659D01*
X0163238Y0048627D01*
X0163475Y0048589D01*
X0163712Y0048545D01*
X0163947Y0048495D01*
X0164181Y0048439D01*
X0164414Y0048378D01*
X0164645Y0048311D01*
X0164874Y0048238D01*
X0165102Y0048160D01*
X0165327Y0048076D01*
X0165550Y0047987D01*
X0165771Y0047892D01*
X0165990Y0047792D01*
X0166206Y0047687D01*
X0166420Y0047576D01*
X0166630Y0047460D01*
X0166838Y0047339D01*
X0167043Y0047213D01*
X0167245Y0047081D01*
X0167443Y0046945D01*
X0167638Y0046804D01*
X0167829Y0046659D01*
X0168017Y0046509D01*
X0168201Y0046354D01*
X0168381Y0046194D01*
X0168557Y0046031D01*
X0168730Y0045863D01*
X0168898Y0045690D01*
X0169061Y0045514D01*
X0169221Y0045334D01*
X0169376Y0045150D01*
X0169526Y0044962D01*
X0169671Y0044771D01*
X0169812Y0044576D01*
X0169948Y0044378D01*
X0170080Y0044176D01*
X0170206Y0043971D01*
X0170327Y0043763D01*
X0170443Y0043553D01*
X0170554Y0043339D01*
X0170659Y0043123D01*
X0170759Y0042904D01*
X0170854Y0042683D01*
X0170943Y0042460D01*
X0171027Y0042235D01*
X0171105Y0042007D01*
X0171178Y0041778D01*
X0171245Y0041547D01*
X0171306Y0041314D01*
X0171362Y0041080D01*
X0171412Y0040845D01*
X0171456Y0040608D01*
X0171494Y0040371D01*
X0171526Y0040133D01*
X0171553Y0039894D01*
X0171573Y0039654D01*
X0171588Y0039414D01*
X0171597Y0039174D01*
X0171600Y0038933D01*
X0171597Y0038692D01*
X0171588Y0038452D01*
X0171573Y0038212D01*
X0171553Y0037972D01*
X0171526Y0037733D01*
X0171494Y0037495D01*
X0171456Y0037258D01*
X0171412Y0037021D01*
X0171362Y0036786D01*
X0171306Y0036552D01*
X0171245Y0036319D01*
X0171178Y0036088D01*
X0171105Y0035859D01*
X0171027Y0035631D01*
X0170943Y0035406D01*
X0170854Y0035183D01*
X0170759Y0034962D01*
X0170659Y0034743D01*
X0170554Y0034527D01*
X0170443Y0034313D01*
X0170327Y0034103D01*
X0170206Y0033895D01*
X0170080Y0033690D01*
X0169948Y0033488D01*
X0169812Y0033290D01*
X0169671Y0033095D01*
X0169526Y0032904D01*
X0169376Y0032716D01*
X0169221Y0032532D01*
X0169061Y0032352D01*
X0168898Y0032176D01*
X0168730Y0032003D01*
X0168557Y0031835D01*
X0168381Y0031672D01*
X0168201Y0031512D01*
X0168017Y0031357D01*
X0167829Y0031207D01*
X0167638Y0031062D01*
X0167443Y0030921D01*
X0167245Y0030785D01*
X0167043Y0030653D01*
X0166838Y0030527D01*
X0166630Y0030406D01*
X0166420Y0030290D01*
X0166206Y0030179D01*
X0165990Y0030074D01*
X0165771Y0029974D01*
X0165550Y0029879D01*
X0165327Y0029790D01*
X0165102Y0029706D01*
X0164874Y0029628D01*
X0164645Y0029555D01*
X0164414Y0029488D01*
X0164181Y0029427D01*
X0163947Y0029371D01*
X0163712Y0029321D01*
X0163475Y0029277D01*
X0163238Y0029239D01*
X0163000Y0029207D01*
X0162761Y0029180D01*
X0162521Y0029160D01*
X0162281Y0029145D01*
X0162041Y0029136D01*
X0161800Y0029133D01*
X0161559Y0029136D01*
X0161319Y0029145D01*
X0161079Y0029160D01*
X0160839Y0029180D01*
X0160600Y0029207D01*
X0160362Y0029239D01*
X0160125Y0029277D01*
X0159888Y0029321D01*
X0159653Y0029371D01*
X0159419Y0029427D01*
X0159186Y0029488D01*
X0158955Y0029555D01*
X0158726Y0029628D01*
X0158498Y0029706D01*
X0158273Y0029790D01*
X0158050Y0029879D01*
X0157829Y0029974D01*
X0157610Y0030074D01*
X0157394Y0030179D01*
X0157180Y0030290D01*
X0156970Y0030406D01*
X0156762Y0030527D01*
X0156557Y0030653D01*
X0156355Y0030785D01*
X0156157Y0030921D01*
X0155962Y0031062D01*
X0155771Y0031207D01*
X0155583Y0031357D01*
X0155399Y0031512D01*
X0155219Y0031672D01*
X0155043Y0031835D01*
X0154870Y0032003D01*
X0154702Y0032176D01*
X0154539Y0032352D01*
X0154379Y0032532D01*
X0154224Y0032716D01*
X0154074Y0032904D01*
X0153929Y0033095D01*
X0153788Y0033290D01*
X0153652Y0033488D01*
X0153520Y0033690D01*
X0153394Y0033895D01*
X0153273Y0034103D01*
X0153157Y0034313D01*
X0153046Y0034527D01*
X0152941Y0034743D01*
X0152841Y0034962D01*
X0152746Y0035183D01*
X0152657Y0035406D01*
X0152573Y0035631D01*
X0152495Y0035859D01*
X0152422Y0036088D01*
X0152355Y0036319D01*
X0152294Y0036552D01*
X0152238Y0036786D01*
X0152188Y0037021D01*
X0152144Y0037258D01*
X0152106Y0037495D01*
X0152074Y0037733D01*
X0152047Y0037972D01*
X0152027Y0038212D01*
X0152012Y0038452D01*
X0152003Y0038692D01*
X0152000Y0038933D01*
D11*
X0120550Y0136433D02*
X0120552Y0136591D01*
X0120558Y0136748D01*
X0120568Y0136906D01*
X0120582Y0137063D01*
X0120600Y0137219D01*
X0120621Y0137376D01*
X0120647Y0137531D01*
X0120677Y0137686D01*
X0120710Y0137840D01*
X0120748Y0137993D01*
X0120789Y0138146D01*
X0120834Y0138297D01*
X0120883Y0138447D01*
X0120936Y0138595D01*
X0120992Y0138743D01*
X0121053Y0138888D01*
X0121116Y0139033D01*
X0121184Y0139175D01*
X0121255Y0139316D01*
X0121329Y0139455D01*
X0121407Y0139592D01*
X0121489Y0139727D01*
X0121573Y0139860D01*
X0121662Y0139991D01*
X0121753Y0140119D01*
X0121848Y0140246D01*
X0121945Y0140369D01*
X0122046Y0140491D01*
X0122150Y0140609D01*
X0122257Y0140725D01*
X0122367Y0140838D01*
X0122479Y0140949D01*
X0122595Y0141056D01*
X0122713Y0141161D01*
X0122833Y0141263D01*
X0122956Y0141361D01*
X0123082Y0141457D01*
X0123210Y0141549D01*
X0123340Y0141638D01*
X0123472Y0141724D01*
X0123607Y0141806D01*
X0123744Y0141885D01*
X0123882Y0141960D01*
X0124022Y0142032D01*
X0124165Y0142100D01*
X0124308Y0142165D01*
X0124454Y0142226D01*
X0124601Y0142283D01*
X0124749Y0142337D01*
X0124899Y0142387D01*
X0125049Y0142433D01*
X0125201Y0142475D01*
X0125354Y0142514D01*
X0125508Y0142548D01*
X0125663Y0142579D01*
X0125818Y0142605D01*
X0125974Y0142628D01*
X0126131Y0142647D01*
X0126288Y0142662D01*
X0126445Y0142673D01*
X0126603Y0142680D01*
X0126761Y0142683D01*
X0126918Y0142682D01*
X0127076Y0142677D01*
X0127233Y0142668D01*
X0127391Y0142655D01*
X0127547Y0142638D01*
X0127704Y0142617D01*
X0127859Y0142593D01*
X0128014Y0142564D01*
X0128169Y0142531D01*
X0128322Y0142495D01*
X0128475Y0142454D01*
X0128626Y0142410D01*
X0128776Y0142362D01*
X0128925Y0142311D01*
X0129073Y0142255D01*
X0129219Y0142196D01*
X0129364Y0142133D01*
X0129507Y0142066D01*
X0129648Y0141996D01*
X0129787Y0141923D01*
X0129925Y0141846D01*
X0130061Y0141765D01*
X0130194Y0141681D01*
X0130325Y0141594D01*
X0130454Y0141503D01*
X0130581Y0141409D01*
X0130706Y0141312D01*
X0130827Y0141212D01*
X0130947Y0141109D01*
X0131063Y0141003D01*
X0131177Y0140894D01*
X0131289Y0140782D01*
X0131397Y0140668D01*
X0131502Y0140550D01*
X0131605Y0140430D01*
X0131704Y0140308D01*
X0131800Y0140183D01*
X0131893Y0140055D01*
X0131983Y0139926D01*
X0132069Y0139794D01*
X0132153Y0139660D01*
X0132232Y0139524D01*
X0132309Y0139386D01*
X0132381Y0139246D01*
X0132450Y0139104D01*
X0132516Y0138961D01*
X0132578Y0138816D01*
X0132636Y0138669D01*
X0132691Y0138521D01*
X0132742Y0138372D01*
X0132789Y0138221D01*
X0132832Y0138070D01*
X0132871Y0137917D01*
X0132907Y0137763D01*
X0132938Y0137609D01*
X0132966Y0137454D01*
X0132990Y0137298D01*
X0133010Y0137141D01*
X0133026Y0136984D01*
X0133038Y0136827D01*
X0133046Y0136670D01*
X0133050Y0136512D01*
X0133050Y0136354D01*
X0133046Y0136196D01*
X0133038Y0136039D01*
X0133026Y0135882D01*
X0133010Y0135725D01*
X0132990Y0135568D01*
X0132966Y0135412D01*
X0132938Y0135257D01*
X0132907Y0135103D01*
X0132871Y0134949D01*
X0132832Y0134796D01*
X0132789Y0134645D01*
X0132742Y0134494D01*
X0132691Y0134345D01*
X0132636Y0134197D01*
X0132578Y0134050D01*
X0132516Y0133905D01*
X0132450Y0133762D01*
X0132381Y0133620D01*
X0132309Y0133480D01*
X0132232Y0133342D01*
X0132153Y0133206D01*
X0132069Y0133072D01*
X0131983Y0132940D01*
X0131893Y0132811D01*
X0131800Y0132683D01*
X0131704Y0132558D01*
X0131605Y0132436D01*
X0131502Y0132316D01*
X0131397Y0132198D01*
X0131289Y0132084D01*
X0131177Y0131972D01*
X0131063Y0131863D01*
X0130947Y0131757D01*
X0130827Y0131654D01*
X0130706Y0131554D01*
X0130581Y0131457D01*
X0130454Y0131363D01*
X0130325Y0131272D01*
X0130194Y0131185D01*
X0130061Y0131101D01*
X0129925Y0131020D01*
X0129787Y0130943D01*
X0129648Y0130870D01*
X0129507Y0130800D01*
X0129364Y0130733D01*
X0129219Y0130670D01*
X0129073Y0130611D01*
X0128925Y0130555D01*
X0128776Y0130504D01*
X0128626Y0130456D01*
X0128475Y0130412D01*
X0128322Y0130371D01*
X0128169Y0130335D01*
X0128014Y0130302D01*
X0127859Y0130273D01*
X0127704Y0130249D01*
X0127547Y0130228D01*
X0127391Y0130211D01*
X0127233Y0130198D01*
X0127076Y0130189D01*
X0126918Y0130184D01*
X0126761Y0130183D01*
X0126603Y0130186D01*
X0126445Y0130193D01*
X0126288Y0130204D01*
X0126131Y0130219D01*
X0125974Y0130238D01*
X0125818Y0130261D01*
X0125663Y0130287D01*
X0125508Y0130318D01*
X0125354Y0130352D01*
X0125201Y0130391D01*
X0125049Y0130433D01*
X0124899Y0130479D01*
X0124749Y0130529D01*
X0124601Y0130583D01*
X0124454Y0130640D01*
X0124308Y0130701D01*
X0124165Y0130766D01*
X0124022Y0130834D01*
X0123882Y0130906D01*
X0123744Y0130981D01*
X0123607Y0131060D01*
X0123472Y0131142D01*
X0123340Y0131228D01*
X0123210Y0131317D01*
X0123082Y0131409D01*
X0122956Y0131505D01*
X0122833Y0131603D01*
X0122713Y0131705D01*
X0122595Y0131810D01*
X0122479Y0131917D01*
X0122367Y0132028D01*
X0122257Y0132141D01*
X0122150Y0132257D01*
X0122046Y0132375D01*
X0121945Y0132497D01*
X0121848Y0132620D01*
X0121753Y0132747D01*
X0121662Y0132875D01*
X0121573Y0133006D01*
X0121489Y0133139D01*
X0121407Y0133274D01*
X0121329Y0133411D01*
X0121255Y0133550D01*
X0121184Y0133691D01*
X0121116Y0133833D01*
X0121053Y0133978D01*
X0120992Y0134123D01*
X0120936Y0134271D01*
X0120883Y0134419D01*
X0120834Y0134569D01*
X0120789Y0134720D01*
X0120748Y0134873D01*
X0120710Y0135026D01*
X0120677Y0135180D01*
X0120647Y0135335D01*
X0120621Y0135490D01*
X0120600Y0135647D01*
X0120582Y0135803D01*
X0120568Y0135960D01*
X0120558Y0136118D01*
X0120552Y0136275D01*
X0120550Y0136433D01*
X0074150Y0136433D02*
X0074155Y0136805D01*
X0074168Y0137176D01*
X0074191Y0137548D01*
X0074223Y0137918D01*
X0074264Y0138288D01*
X0074314Y0138656D01*
X0074373Y0139023D01*
X0074441Y0139389D01*
X0074518Y0139752D01*
X0074604Y0140114D01*
X0074699Y0140474D01*
X0074802Y0140831D01*
X0074915Y0141185D01*
X0075036Y0141537D01*
X0075165Y0141885D01*
X0075303Y0142231D01*
X0075450Y0142572D01*
X0075605Y0142910D01*
X0075768Y0143245D01*
X0075939Y0143575D01*
X0076118Y0143900D01*
X0076305Y0144222D01*
X0076500Y0144538D01*
X0076703Y0144850D01*
X0076914Y0145156D01*
X0077131Y0145458D01*
X0077357Y0145754D01*
X0077589Y0146044D01*
X0077828Y0146329D01*
X0078075Y0146607D01*
X0078328Y0146880D01*
X0078587Y0147146D01*
X0078853Y0147405D01*
X0079126Y0147658D01*
X0079404Y0147905D01*
X0079689Y0148144D01*
X0079979Y0148376D01*
X0080275Y0148602D01*
X0080577Y0148819D01*
X0080883Y0149030D01*
X0081195Y0149233D01*
X0081511Y0149428D01*
X0081833Y0149615D01*
X0082158Y0149794D01*
X0082488Y0149965D01*
X0082823Y0150128D01*
X0083161Y0150283D01*
X0083502Y0150430D01*
X0083848Y0150568D01*
X0084196Y0150697D01*
X0084548Y0150818D01*
X0084902Y0150931D01*
X0085259Y0151034D01*
X0085619Y0151129D01*
X0085981Y0151215D01*
X0086344Y0151292D01*
X0086710Y0151360D01*
X0087077Y0151419D01*
X0087445Y0151469D01*
X0087815Y0151510D01*
X0088185Y0151542D01*
X0088557Y0151565D01*
X0088928Y0151578D01*
X0089300Y0151583D01*
X0089672Y0151578D01*
X0090043Y0151565D01*
X0090415Y0151542D01*
X0090785Y0151510D01*
X0091155Y0151469D01*
X0091523Y0151419D01*
X0091890Y0151360D01*
X0092256Y0151292D01*
X0092619Y0151215D01*
X0092981Y0151129D01*
X0093341Y0151034D01*
X0093698Y0150931D01*
X0094052Y0150818D01*
X0094404Y0150697D01*
X0094752Y0150568D01*
X0095098Y0150430D01*
X0095439Y0150283D01*
X0095777Y0150128D01*
X0096112Y0149965D01*
X0096442Y0149794D01*
X0096767Y0149615D01*
X0097089Y0149428D01*
X0097405Y0149233D01*
X0097717Y0149030D01*
X0098023Y0148819D01*
X0098325Y0148602D01*
X0098621Y0148376D01*
X0098911Y0148144D01*
X0099196Y0147905D01*
X0099474Y0147658D01*
X0099747Y0147405D01*
X0100013Y0147146D01*
X0100272Y0146880D01*
X0100525Y0146607D01*
X0100772Y0146329D01*
X0101011Y0146044D01*
X0101243Y0145754D01*
X0101469Y0145458D01*
X0101686Y0145156D01*
X0101897Y0144850D01*
X0102100Y0144538D01*
X0102295Y0144222D01*
X0102482Y0143900D01*
X0102661Y0143575D01*
X0102832Y0143245D01*
X0102995Y0142910D01*
X0103150Y0142572D01*
X0103297Y0142231D01*
X0103435Y0141885D01*
X0103564Y0141537D01*
X0103685Y0141185D01*
X0103798Y0140831D01*
X0103901Y0140474D01*
X0103996Y0140114D01*
X0104082Y0139752D01*
X0104159Y0139389D01*
X0104227Y0139023D01*
X0104286Y0138656D01*
X0104336Y0138288D01*
X0104377Y0137918D01*
X0104409Y0137548D01*
X0104432Y0137176D01*
X0104445Y0136805D01*
X0104450Y0136433D01*
X0104445Y0136061D01*
X0104432Y0135690D01*
X0104409Y0135318D01*
X0104377Y0134948D01*
X0104336Y0134578D01*
X0104286Y0134210D01*
X0104227Y0133843D01*
X0104159Y0133477D01*
X0104082Y0133114D01*
X0103996Y0132752D01*
X0103901Y0132392D01*
X0103798Y0132035D01*
X0103685Y0131681D01*
X0103564Y0131329D01*
X0103435Y0130981D01*
X0103297Y0130635D01*
X0103150Y0130294D01*
X0102995Y0129956D01*
X0102832Y0129621D01*
X0102661Y0129291D01*
X0102482Y0128966D01*
X0102295Y0128644D01*
X0102100Y0128328D01*
X0101897Y0128016D01*
X0101686Y0127710D01*
X0101469Y0127408D01*
X0101243Y0127112D01*
X0101011Y0126822D01*
X0100772Y0126537D01*
X0100525Y0126259D01*
X0100272Y0125986D01*
X0100013Y0125720D01*
X0099747Y0125461D01*
X0099474Y0125208D01*
X0099196Y0124961D01*
X0098911Y0124722D01*
X0098621Y0124490D01*
X0098325Y0124264D01*
X0098023Y0124047D01*
X0097717Y0123836D01*
X0097405Y0123633D01*
X0097089Y0123438D01*
X0096767Y0123251D01*
X0096442Y0123072D01*
X0096112Y0122901D01*
X0095777Y0122738D01*
X0095439Y0122583D01*
X0095098Y0122436D01*
X0094752Y0122298D01*
X0094404Y0122169D01*
X0094052Y0122048D01*
X0093698Y0121935D01*
X0093341Y0121832D01*
X0092981Y0121737D01*
X0092619Y0121651D01*
X0092256Y0121574D01*
X0091890Y0121506D01*
X0091523Y0121447D01*
X0091155Y0121397D01*
X0090785Y0121356D01*
X0090415Y0121324D01*
X0090043Y0121301D01*
X0089672Y0121288D01*
X0089300Y0121283D01*
X0088928Y0121288D01*
X0088557Y0121301D01*
X0088185Y0121324D01*
X0087815Y0121356D01*
X0087445Y0121397D01*
X0087077Y0121447D01*
X0086710Y0121506D01*
X0086344Y0121574D01*
X0085981Y0121651D01*
X0085619Y0121737D01*
X0085259Y0121832D01*
X0084902Y0121935D01*
X0084548Y0122048D01*
X0084196Y0122169D01*
X0083848Y0122298D01*
X0083502Y0122436D01*
X0083161Y0122583D01*
X0082823Y0122738D01*
X0082488Y0122901D01*
X0082158Y0123072D01*
X0081833Y0123251D01*
X0081511Y0123438D01*
X0081195Y0123633D01*
X0080883Y0123836D01*
X0080577Y0124047D01*
X0080275Y0124264D01*
X0079979Y0124490D01*
X0079689Y0124722D01*
X0079404Y0124961D01*
X0079126Y0125208D01*
X0078853Y0125461D01*
X0078587Y0125720D01*
X0078328Y0125986D01*
X0078075Y0126259D01*
X0077828Y0126537D01*
X0077589Y0126822D01*
X0077357Y0127112D01*
X0077131Y0127408D01*
X0076914Y0127710D01*
X0076703Y0128016D01*
X0076500Y0128328D01*
X0076305Y0128644D01*
X0076118Y0128966D01*
X0075939Y0129291D01*
X0075768Y0129621D01*
X0075605Y0129956D01*
X0075450Y0130294D01*
X0075303Y0130635D01*
X0075165Y0130981D01*
X0075036Y0131329D01*
X0074915Y0131681D01*
X0074802Y0132035D01*
X0074699Y0132392D01*
X0074604Y0132752D01*
X0074518Y0133114D01*
X0074441Y0133477D01*
X0074373Y0133843D01*
X0074314Y0134210D01*
X0074264Y0134578D01*
X0074223Y0134948D01*
X0074191Y0135318D01*
X0074168Y0135690D01*
X0074155Y0136061D01*
X0074150Y0136433D01*
X0045600Y0136433D02*
X0045613Y0137505D01*
X0045653Y0138577D01*
X0045718Y0139648D01*
X0045810Y0140716D01*
X0045929Y0141782D01*
X0046073Y0142845D01*
X0046243Y0143904D01*
X0046440Y0144958D01*
X0046662Y0146008D01*
X0046910Y0147051D01*
X0047183Y0148088D01*
X0047482Y0149118D01*
X0047806Y0150141D01*
X0048155Y0151155D01*
X0048528Y0152160D01*
X0048926Y0153156D01*
X0049349Y0154142D01*
X0049796Y0155117D01*
X0050266Y0156081D01*
X0050760Y0157033D01*
X0051277Y0157973D01*
X0051817Y0158899D01*
X0052380Y0159812D01*
X0052965Y0160711D01*
X0053572Y0161596D01*
X0054200Y0162465D01*
X0054849Y0163319D01*
X0055519Y0164156D01*
X0056210Y0164977D01*
X0056920Y0165780D01*
X0057650Y0166566D01*
X0058399Y0167334D01*
X0059167Y0168083D01*
X0059953Y0168813D01*
X0060756Y0169523D01*
X0061577Y0170214D01*
X0062414Y0170884D01*
X0063268Y0171533D01*
X0064137Y0172161D01*
X0065022Y0172768D01*
X0065921Y0173353D01*
X0066834Y0173916D01*
X0067760Y0174456D01*
X0068700Y0174973D01*
X0069652Y0175467D01*
X0070616Y0175937D01*
X0071591Y0176384D01*
X0072577Y0176807D01*
X0073573Y0177205D01*
X0074578Y0177578D01*
X0075592Y0177927D01*
X0076615Y0178251D01*
X0077645Y0178550D01*
X0078682Y0178823D01*
X0079725Y0179071D01*
X0080775Y0179293D01*
X0081829Y0179490D01*
X0082888Y0179660D01*
X0083951Y0179804D01*
X0085017Y0179923D01*
X0086085Y0180015D01*
X0087156Y0180080D01*
X0088228Y0180120D01*
X0089300Y0180133D01*
X0090372Y0180120D01*
X0091444Y0180080D01*
X0092515Y0180015D01*
X0093583Y0179923D01*
X0094649Y0179804D01*
X0095712Y0179660D01*
X0096771Y0179490D01*
X0097825Y0179293D01*
X0098875Y0179071D01*
X0099918Y0178823D01*
X0100955Y0178550D01*
X0101985Y0178251D01*
X0103008Y0177927D01*
X0104022Y0177578D01*
X0105027Y0177205D01*
X0106023Y0176807D01*
X0107009Y0176384D01*
X0107984Y0175937D01*
X0108948Y0175467D01*
X0109900Y0174973D01*
X0110840Y0174456D01*
X0111766Y0173916D01*
X0112679Y0173353D01*
X0113578Y0172768D01*
X0114463Y0172161D01*
X0115332Y0171533D01*
X0116186Y0170884D01*
X0117023Y0170214D01*
X0117844Y0169523D01*
X0118647Y0168813D01*
X0119433Y0168083D01*
X0120201Y0167334D01*
X0120950Y0166566D01*
X0121680Y0165780D01*
X0122390Y0164977D01*
X0123081Y0164156D01*
X0123751Y0163319D01*
X0124400Y0162465D01*
X0125028Y0161596D01*
X0125635Y0160711D01*
X0126220Y0159812D01*
X0126783Y0158899D01*
X0127323Y0157973D01*
X0127840Y0157033D01*
X0128334Y0156081D01*
X0128804Y0155117D01*
X0129251Y0154142D01*
X0129674Y0153156D01*
X0130072Y0152160D01*
X0130445Y0151155D01*
X0130794Y0150141D01*
X0131118Y0149118D01*
X0131417Y0148088D01*
X0131690Y0147051D01*
X0131938Y0146008D01*
X0132160Y0144958D01*
X0132357Y0143904D01*
X0132527Y0142845D01*
X0132671Y0141782D01*
X0132790Y0140716D01*
X0132882Y0139648D01*
X0132947Y0138577D01*
X0132987Y0137505D01*
X0133000Y0136433D01*
X0132987Y0135361D01*
X0132947Y0134289D01*
X0132882Y0133218D01*
X0132790Y0132150D01*
X0132671Y0131084D01*
X0132527Y0130021D01*
X0132357Y0128962D01*
X0132160Y0127908D01*
X0131938Y0126858D01*
X0131690Y0125815D01*
X0131417Y0124778D01*
X0131118Y0123748D01*
X0130794Y0122725D01*
X0130445Y0121711D01*
X0130072Y0120706D01*
X0129674Y0119710D01*
X0129251Y0118724D01*
X0128804Y0117749D01*
X0128334Y0116785D01*
X0127840Y0115833D01*
X0127323Y0114893D01*
X0126783Y0113967D01*
X0126220Y0113054D01*
X0125635Y0112155D01*
X0125028Y0111270D01*
X0124400Y0110401D01*
X0123751Y0109547D01*
X0123081Y0108710D01*
X0122390Y0107889D01*
X0121680Y0107086D01*
X0120950Y0106300D01*
X0120201Y0105532D01*
X0119433Y0104783D01*
X0118647Y0104053D01*
X0117844Y0103343D01*
X0117023Y0102652D01*
X0116186Y0101982D01*
X0115332Y0101333D01*
X0114463Y0100705D01*
X0113578Y0100098D01*
X0112679Y0099513D01*
X0111766Y0098950D01*
X0110840Y0098410D01*
X0109900Y0097893D01*
X0108948Y0097399D01*
X0107984Y0096929D01*
X0107009Y0096482D01*
X0106023Y0096059D01*
X0105027Y0095661D01*
X0104022Y0095288D01*
X0103008Y0094939D01*
X0101985Y0094615D01*
X0100955Y0094316D01*
X0099918Y0094043D01*
X0098875Y0093795D01*
X0097825Y0093573D01*
X0096771Y0093376D01*
X0095712Y0093206D01*
X0094649Y0093062D01*
X0093583Y0092943D01*
X0092515Y0092851D01*
X0091444Y0092786D01*
X0090372Y0092746D01*
X0089300Y0092733D01*
X0088228Y0092746D01*
X0087156Y0092786D01*
X0086085Y0092851D01*
X0085017Y0092943D01*
X0083951Y0093062D01*
X0082888Y0093206D01*
X0081829Y0093376D01*
X0080775Y0093573D01*
X0079725Y0093795D01*
X0078682Y0094043D01*
X0077645Y0094316D01*
X0076615Y0094615D01*
X0075592Y0094939D01*
X0074578Y0095288D01*
X0073573Y0095661D01*
X0072577Y0096059D01*
X0071591Y0096482D01*
X0070616Y0096929D01*
X0069652Y0097399D01*
X0068700Y0097893D01*
X0067760Y0098410D01*
X0066834Y0098950D01*
X0065921Y0099513D01*
X0065022Y0100098D01*
X0064137Y0100705D01*
X0063268Y0101333D01*
X0062414Y0101982D01*
X0061577Y0102652D01*
X0060756Y0103343D01*
X0059953Y0104053D01*
X0059167Y0104783D01*
X0058399Y0105532D01*
X0057650Y0106300D01*
X0056920Y0107086D01*
X0056210Y0107889D01*
X0055519Y0108710D01*
X0054849Y0109547D01*
X0054200Y0110401D01*
X0053572Y0111270D01*
X0052965Y0112155D01*
X0052380Y0113054D01*
X0051817Y0113967D01*
X0051277Y0114893D01*
X0050760Y0115833D01*
X0050266Y0116785D01*
X0049796Y0117749D01*
X0049349Y0118724D01*
X0048926Y0119710D01*
X0048528Y0120706D01*
X0048155Y0121711D01*
X0047806Y0122725D01*
X0047482Y0123748D01*
X0047183Y0124778D01*
X0046910Y0125815D01*
X0046662Y0126858D01*
X0046440Y0127908D01*
X0046243Y0128962D01*
X0046073Y0130021D01*
X0045929Y0131084D01*
X0045810Y0132150D01*
X0045718Y0133218D01*
X0045653Y0134289D01*
X0045613Y0135361D01*
X0045600Y0136433D01*
X0037750Y0136433D02*
X0037766Y0137698D01*
X0037812Y0138962D01*
X0037890Y0140225D01*
X0037998Y0141486D01*
X0038138Y0142743D01*
X0038308Y0143997D01*
X0038509Y0145246D01*
X0038741Y0146490D01*
X0039003Y0147728D01*
X0039295Y0148959D01*
X0039617Y0150182D01*
X0039970Y0151397D01*
X0040352Y0152603D01*
X0040763Y0153800D01*
X0041204Y0154986D01*
X0041674Y0156160D01*
X0042172Y0157323D01*
X0042699Y0158473D01*
X0043254Y0159610D01*
X0043837Y0160734D01*
X0044447Y0161842D01*
X0045084Y0162935D01*
X0045748Y0164012D01*
X0046438Y0165073D01*
X0047154Y0166116D01*
X0047895Y0167141D01*
X0048661Y0168148D01*
X0049451Y0169136D01*
X0050266Y0170104D01*
X0051104Y0171052D01*
X0051965Y0171979D01*
X0052849Y0172884D01*
X0053754Y0173768D01*
X0054681Y0174629D01*
X0055629Y0175467D01*
X0056597Y0176282D01*
X0057585Y0177072D01*
X0058592Y0177838D01*
X0059617Y0178579D01*
X0060660Y0179295D01*
X0061721Y0179985D01*
X0062798Y0180649D01*
X0063891Y0181286D01*
X0064999Y0181896D01*
X0066123Y0182479D01*
X0067260Y0183034D01*
X0068410Y0183561D01*
X0069573Y0184059D01*
X0070747Y0184529D01*
X0071933Y0184970D01*
X0073130Y0185381D01*
X0074336Y0185763D01*
X0075551Y0186116D01*
X0076774Y0186438D01*
X0078005Y0186730D01*
X0079243Y0186992D01*
X0080487Y0187224D01*
X0081736Y0187425D01*
X0082990Y0187595D01*
X0084247Y0187735D01*
X0085508Y0187843D01*
X0086771Y0187921D01*
X0088035Y0187967D01*
X0089300Y0187983D01*
X0090565Y0187967D01*
X0091829Y0187921D01*
X0093092Y0187843D01*
X0094353Y0187735D01*
X0095610Y0187595D01*
X0096864Y0187425D01*
X0098113Y0187224D01*
X0099357Y0186992D01*
X0100595Y0186730D01*
X0101826Y0186438D01*
X0103049Y0186116D01*
X0104264Y0185763D01*
X0105470Y0185381D01*
X0106667Y0184970D01*
X0107853Y0184529D01*
X0109027Y0184059D01*
X0110190Y0183561D01*
X0111340Y0183034D01*
X0112477Y0182479D01*
X0113601Y0181896D01*
X0114709Y0181286D01*
X0115802Y0180649D01*
X0116879Y0179985D01*
X0117940Y0179295D01*
X0118983Y0178579D01*
X0120008Y0177838D01*
X0121015Y0177072D01*
X0122003Y0176282D01*
X0122971Y0175467D01*
X0123919Y0174629D01*
X0124846Y0173768D01*
X0125751Y0172884D01*
X0126635Y0171979D01*
X0127496Y0171052D01*
X0128334Y0170104D01*
X0129149Y0169136D01*
X0129939Y0168148D01*
X0130705Y0167141D01*
X0131446Y0166116D01*
X0132162Y0165073D01*
X0132852Y0164012D01*
X0133516Y0162935D01*
X0134153Y0161842D01*
X0134763Y0160734D01*
X0135346Y0159610D01*
X0135901Y0158473D01*
X0136428Y0157323D01*
X0136926Y0156160D01*
X0137396Y0154986D01*
X0137837Y0153800D01*
X0138248Y0152603D01*
X0138630Y0151397D01*
X0138983Y0150182D01*
X0139305Y0148959D01*
X0139597Y0147728D01*
X0139859Y0146490D01*
X0140091Y0145246D01*
X0140292Y0143997D01*
X0140462Y0142743D01*
X0140602Y0141486D01*
X0140710Y0140225D01*
X0140788Y0138962D01*
X0140834Y0137698D01*
X0140850Y0136433D01*
X0140834Y0135168D01*
X0140788Y0133904D01*
X0140710Y0132641D01*
X0140602Y0131380D01*
X0140462Y0130123D01*
X0140292Y0128869D01*
X0140091Y0127620D01*
X0139859Y0126376D01*
X0139597Y0125138D01*
X0139305Y0123907D01*
X0138983Y0122684D01*
X0138630Y0121469D01*
X0138248Y0120263D01*
X0137837Y0119066D01*
X0137396Y0117880D01*
X0136926Y0116706D01*
X0136428Y0115543D01*
X0135901Y0114393D01*
X0135346Y0113256D01*
X0134763Y0112132D01*
X0134153Y0111024D01*
X0133516Y0109931D01*
X0132852Y0108854D01*
X0132162Y0107793D01*
X0131446Y0106750D01*
X0130705Y0105725D01*
X0129939Y0104718D01*
X0129149Y0103730D01*
X0128334Y0102762D01*
X0127496Y0101814D01*
X0126635Y0100887D01*
X0125751Y0099982D01*
X0124846Y0099098D01*
X0123919Y0098237D01*
X0122971Y0097399D01*
X0122003Y0096584D01*
X0121015Y0095794D01*
X0120008Y0095028D01*
X0118983Y0094287D01*
X0117940Y0093571D01*
X0116879Y0092881D01*
X0115802Y0092217D01*
X0114709Y0091580D01*
X0113601Y0090970D01*
X0112477Y0090387D01*
X0111340Y0089832D01*
X0110190Y0089305D01*
X0109027Y0088807D01*
X0107853Y0088337D01*
X0106667Y0087896D01*
X0105470Y0087485D01*
X0104264Y0087103D01*
X0103049Y0086750D01*
X0101826Y0086428D01*
X0100595Y0086136D01*
X0099357Y0085874D01*
X0098113Y0085642D01*
X0096864Y0085441D01*
X0095610Y0085271D01*
X0094353Y0085131D01*
X0093092Y0085023D01*
X0091829Y0084945D01*
X0090565Y0084899D01*
X0089300Y0084883D01*
X0088035Y0084899D01*
X0086771Y0084945D01*
X0085508Y0085023D01*
X0084247Y0085131D01*
X0082990Y0085271D01*
X0081736Y0085441D01*
X0080487Y0085642D01*
X0079243Y0085874D01*
X0078005Y0086136D01*
X0076774Y0086428D01*
X0075551Y0086750D01*
X0074336Y0087103D01*
X0073130Y0087485D01*
X0071933Y0087896D01*
X0070747Y0088337D01*
X0069573Y0088807D01*
X0068410Y0089305D01*
X0067260Y0089832D01*
X0066123Y0090387D01*
X0064999Y0090970D01*
X0063891Y0091580D01*
X0062798Y0092217D01*
X0061721Y0092881D01*
X0060660Y0093571D01*
X0059617Y0094287D01*
X0058592Y0095028D01*
X0057585Y0095794D01*
X0056597Y0096584D01*
X0055629Y0097399D01*
X0054681Y0098237D01*
X0053754Y0099098D01*
X0052849Y0099982D01*
X0051965Y0100887D01*
X0051104Y0101814D01*
X0050266Y0102762D01*
X0049451Y0103730D01*
X0048661Y0104718D01*
X0047895Y0105725D01*
X0047154Y0106750D01*
X0046438Y0107793D01*
X0045748Y0108854D01*
X0045084Y0109931D01*
X0044447Y0111024D01*
X0043837Y0112132D01*
X0043254Y0113256D01*
X0042699Y0114393D01*
X0042172Y0115543D01*
X0041674Y0116706D01*
X0041204Y0117880D01*
X0040763Y0119066D01*
X0040352Y0120263D01*
X0039970Y0121469D01*
X0039617Y0122684D01*
X0039295Y0123907D01*
X0039003Y0125138D01*
X0038741Y0126376D01*
X0038509Y0127620D01*
X0038308Y0128869D01*
X0038138Y0130123D01*
X0037998Y0131380D01*
X0037890Y0132641D01*
X0037812Y0133904D01*
X0037766Y0135168D01*
X0037750Y0136433D01*
D12*
X0037169Y0186633D02*
X0037169Y0191237D01*
X0038704Y0189702D01*
X0040239Y0190470D02*
X0041006Y0191237D01*
X0042541Y0191237D01*
X0043308Y0190470D01*
X0043308Y0189702D01*
X0042541Y0188935D01*
X0041006Y0188935D01*
X0040239Y0188168D01*
X0040239Y0187400D01*
X0041006Y0186633D01*
X0042541Y0186633D01*
X0043308Y0187400D01*
X0038704Y0186633D02*
X0035635Y0186633D01*
X0115635Y0187400D02*
X0115635Y0188168D01*
X0116402Y0188935D01*
X0118704Y0188935D01*
X0118704Y0187400D01*
X0117937Y0186633D01*
X0116402Y0186633D01*
X0115635Y0187400D01*
X0117169Y0190470D02*
X0118704Y0188935D01*
X0117169Y0190470D02*
X0115635Y0191237D01*
X0121773Y0191237D02*
X0121773Y0186633D01*
X0120239Y0186633D02*
X0123308Y0186633D01*
X0124843Y0187400D02*
X0124843Y0188168D01*
X0125610Y0188935D01*
X0127912Y0188935D01*
X0127912Y0187400D01*
X0127145Y0186633D01*
X0125610Y0186633D01*
X0124843Y0187400D01*
X0123308Y0189702D02*
X0121773Y0191237D01*
X0124843Y0191237D02*
X0126377Y0190470D01*
X0127912Y0188935D01*
X0129446Y0187400D02*
X0130214Y0186633D01*
X0131748Y0186633D01*
X0132516Y0187400D01*
X0129446Y0190470D01*
X0129446Y0187400D01*
X0129446Y0190470D02*
X0130214Y0191237D01*
X0131748Y0191237D01*
X0132516Y0190470D01*
X0132516Y0187400D01*
X0134050Y0186633D02*
X0137120Y0186633D01*
X0138654Y0186633D02*
X0138654Y0191237D01*
X0137120Y0189702D02*
X0135585Y0191237D01*
X0135585Y0186633D01*
X0138654Y0186633D02*
X0141724Y0191237D01*
X0141724Y0186633D01*
X0143258Y0186633D02*
X0145560Y0188935D01*
X0146328Y0188168D02*
X0143258Y0191237D01*
X0146328Y0191237D02*
X0146328Y0186633D01*
X0147862Y0187400D02*
X0148630Y0186633D01*
X0150164Y0186633D01*
X0150931Y0187400D01*
X0150931Y0190470D01*
X0150164Y0191237D01*
X0148630Y0191237D01*
X0147862Y0190470D01*
M02*
