G75*
%MOIN*%
%OFA0B0*%
%FSLAX25Y25*%
%IPPOS*%
%LPD*%
%AMOC8*
5,1,8,0,0,1.08239X$1,22.5*
%
%ADD10C,0.00000*%
%ADD11C,0.00400*%
%ADD12C,0.00600*%
%ADD13C,0.00500*%
%ADD14C,0.00300*%
%ADD15C,0.00800*%
D10*
X0001800Y0023933D02*
X0001800Y0198933D01*
X0176800Y0198933D01*
X0176800Y0023933D01*
X0001800Y0023933D01*
X0007000Y0038933D02*
X0007003Y0039174D01*
X0007012Y0039414D01*
X0007027Y0039654D01*
X0007047Y0039894D01*
X0007074Y0040133D01*
X0007106Y0040371D01*
X0007144Y0040608D01*
X0007188Y0040845D01*
X0007238Y0041080D01*
X0007294Y0041314D01*
X0007355Y0041547D01*
X0007422Y0041778D01*
X0007495Y0042007D01*
X0007573Y0042235D01*
X0007657Y0042460D01*
X0007746Y0042683D01*
X0007841Y0042904D01*
X0007941Y0043123D01*
X0008046Y0043339D01*
X0008157Y0043553D01*
X0008273Y0043763D01*
X0008394Y0043971D01*
X0008520Y0044176D01*
X0008652Y0044378D01*
X0008788Y0044576D01*
X0008929Y0044771D01*
X0009074Y0044962D01*
X0009224Y0045150D01*
X0009379Y0045334D01*
X0009539Y0045514D01*
X0009702Y0045690D01*
X0009870Y0045863D01*
X0010043Y0046031D01*
X0010219Y0046194D01*
X0010399Y0046354D01*
X0010583Y0046509D01*
X0010771Y0046659D01*
X0010962Y0046804D01*
X0011157Y0046945D01*
X0011355Y0047081D01*
X0011557Y0047213D01*
X0011762Y0047339D01*
X0011970Y0047460D01*
X0012180Y0047576D01*
X0012394Y0047687D01*
X0012610Y0047792D01*
X0012829Y0047892D01*
X0013050Y0047987D01*
X0013273Y0048076D01*
X0013498Y0048160D01*
X0013726Y0048238D01*
X0013955Y0048311D01*
X0014186Y0048378D01*
X0014419Y0048439D01*
X0014653Y0048495D01*
X0014888Y0048545D01*
X0015125Y0048589D01*
X0015362Y0048627D01*
X0015600Y0048659D01*
X0015839Y0048686D01*
X0016079Y0048706D01*
X0016319Y0048721D01*
X0016559Y0048730D01*
X0016800Y0048733D01*
X0017041Y0048730D01*
X0017281Y0048721D01*
X0017521Y0048706D01*
X0017761Y0048686D01*
X0018000Y0048659D01*
X0018238Y0048627D01*
X0018475Y0048589D01*
X0018712Y0048545D01*
X0018947Y0048495D01*
X0019181Y0048439D01*
X0019414Y0048378D01*
X0019645Y0048311D01*
X0019874Y0048238D01*
X0020102Y0048160D01*
X0020327Y0048076D01*
X0020550Y0047987D01*
X0020771Y0047892D01*
X0020990Y0047792D01*
X0021206Y0047687D01*
X0021420Y0047576D01*
X0021630Y0047460D01*
X0021838Y0047339D01*
X0022043Y0047213D01*
X0022245Y0047081D01*
X0022443Y0046945D01*
X0022638Y0046804D01*
X0022829Y0046659D01*
X0023017Y0046509D01*
X0023201Y0046354D01*
X0023381Y0046194D01*
X0023557Y0046031D01*
X0023730Y0045863D01*
X0023898Y0045690D01*
X0024061Y0045514D01*
X0024221Y0045334D01*
X0024376Y0045150D01*
X0024526Y0044962D01*
X0024671Y0044771D01*
X0024812Y0044576D01*
X0024948Y0044378D01*
X0025080Y0044176D01*
X0025206Y0043971D01*
X0025327Y0043763D01*
X0025443Y0043553D01*
X0025554Y0043339D01*
X0025659Y0043123D01*
X0025759Y0042904D01*
X0025854Y0042683D01*
X0025943Y0042460D01*
X0026027Y0042235D01*
X0026105Y0042007D01*
X0026178Y0041778D01*
X0026245Y0041547D01*
X0026306Y0041314D01*
X0026362Y0041080D01*
X0026412Y0040845D01*
X0026456Y0040608D01*
X0026494Y0040371D01*
X0026526Y0040133D01*
X0026553Y0039894D01*
X0026573Y0039654D01*
X0026588Y0039414D01*
X0026597Y0039174D01*
X0026600Y0038933D01*
X0026597Y0038692D01*
X0026588Y0038452D01*
X0026573Y0038212D01*
X0026553Y0037972D01*
X0026526Y0037733D01*
X0026494Y0037495D01*
X0026456Y0037258D01*
X0026412Y0037021D01*
X0026362Y0036786D01*
X0026306Y0036552D01*
X0026245Y0036319D01*
X0026178Y0036088D01*
X0026105Y0035859D01*
X0026027Y0035631D01*
X0025943Y0035406D01*
X0025854Y0035183D01*
X0025759Y0034962D01*
X0025659Y0034743D01*
X0025554Y0034527D01*
X0025443Y0034313D01*
X0025327Y0034103D01*
X0025206Y0033895D01*
X0025080Y0033690D01*
X0024948Y0033488D01*
X0024812Y0033290D01*
X0024671Y0033095D01*
X0024526Y0032904D01*
X0024376Y0032716D01*
X0024221Y0032532D01*
X0024061Y0032352D01*
X0023898Y0032176D01*
X0023730Y0032003D01*
X0023557Y0031835D01*
X0023381Y0031672D01*
X0023201Y0031512D01*
X0023017Y0031357D01*
X0022829Y0031207D01*
X0022638Y0031062D01*
X0022443Y0030921D01*
X0022245Y0030785D01*
X0022043Y0030653D01*
X0021838Y0030527D01*
X0021630Y0030406D01*
X0021420Y0030290D01*
X0021206Y0030179D01*
X0020990Y0030074D01*
X0020771Y0029974D01*
X0020550Y0029879D01*
X0020327Y0029790D01*
X0020102Y0029706D01*
X0019874Y0029628D01*
X0019645Y0029555D01*
X0019414Y0029488D01*
X0019181Y0029427D01*
X0018947Y0029371D01*
X0018712Y0029321D01*
X0018475Y0029277D01*
X0018238Y0029239D01*
X0018000Y0029207D01*
X0017761Y0029180D01*
X0017521Y0029160D01*
X0017281Y0029145D01*
X0017041Y0029136D01*
X0016800Y0029133D01*
X0016559Y0029136D01*
X0016319Y0029145D01*
X0016079Y0029160D01*
X0015839Y0029180D01*
X0015600Y0029207D01*
X0015362Y0029239D01*
X0015125Y0029277D01*
X0014888Y0029321D01*
X0014653Y0029371D01*
X0014419Y0029427D01*
X0014186Y0029488D01*
X0013955Y0029555D01*
X0013726Y0029628D01*
X0013498Y0029706D01*
X0013273Y0029790D01*
X0013050Y0029879D01*
X0012829Y0029974D01*
X0012610Y0030074D01*
X0012394Y0030179D01*
X0012180Y0030290D01*
X0011970Y0030406D01*
X0011762Y0030527D01*
X0011557Y0030653D01*
X0011355Y0030785D01*
X0011157Y0030921D01*
X0010962Y0031062D01*
X0010771Y0031207D01*
X0010583Y0031357D01*
X0010399Y0031512D01*
X0010219Y0031672D01*
X0010043Y0031835D01*
X0009870Y0032003D01*
X0009702Y0032176D01*
X0009539Y0032352D01*
X0009379Y0032532D01*
X0009224Y0032716D01*
X0009074Y0032904D01*
X0008929Y0033095D01*
X0008788Y0033290D01*
X0008652Y0033488D01*
X0008520Y0033690D01*
X0008394Y0033895D01*
X0008273Y0034103D01*
X0008157Y0034313D01*
X0008046Y0034527D01*
X0007941Y0034743D01*
X0007841Y0034962D01*
X0007746Y0035183D01*
X0007657Y0035406D01*
X0007573Y0035631D01*
X0007495Y0035859D01*
X0007422Y0036088D01*
X0007355Y0036319D01*
X0007294Y0036552D01*
X0007238Y0036786D01*
X0007188Y0037021D01*
X0007144Y0037258D01*
X0007106Y0037495D01*
X0007074Y0037733D01*
X0007047Y0037972D01*
X0007027Y0038212D01*
X0007012Y0038452D01*
X0007003Y0038692D01*
X0007000Y0038933D01*
X0069600Y0078333D02*
X0069669Y0078335D01*
X0069737Y0078341D01*
X0069805Y0078351D01*
X0069872Y0078364D01*
X0069938Y0078382D01*
X0070003Y0078403D01*
X0070067Y0078428D01*
X0070129Y0078456D01*
X0070190Y0078488D01*
X0070249Y0078523D01*
X0070305Y0078562D01*
X0070360Y0078604D01*
X0070411Y0078649D01*
X0070461Y0078697D01*
X0070507Y0078747D01*
X0070550Y0078800D01*
X0070591Y0078856D01*
X0070628Y0078913D01*
X0070661Y0078973D01*
X0070692Y0079035D01*
X0070718Y0079098D01*
X0070741Y0079162D01*
X0070761Y0079228D01*
X0070776Y0079295D01*
X0070788Y0079362D01*
X0070796Y0079430D01*
X0070800Y0079499D01*
X0070800Y0079567D01*
X0070796Y0079636D01*
X0070788Y0079704D01*
X0070776Y0079771D01*
X0070761Y0079838D01*
X0070741Y0079904D01*
X0070718Y0079968D01*
X0070692Y0080031D01*
X0070661Y0080093D01*
X0070628Y0080153D01*
X0070591Y0080210D01*
X0070550Y0080266D01*
X0070507Y0080319D01*
X0070461Y0080369D01*
X0070411Y0080417D01*
X0070360Y0080462D01*
X0070305Y0080504D01*
X0070249Y0080543D01*
X0070190Y0080578D01*
X0070129Y0080610D01*
X0070067Y0080638D01*
X0070003Y0080663D01*
X0069938Y0080684D01*
X0069872Y0080702D01*
X0069805Y0080715D01*
X0069737Y0080725D01*
X0069669Y0080731D01*
X0069600Y0080733D01*
X0152000Y0038933D02*
X0152003Y0039174D01*
X0152012Y0039414D01*
X0152027Y0039654D01*
X0152047Y0039894D01*
X0152074Y0040133D01*
X0152106Y0040371D01*
X0152144Y0040608D01*
X0152188Y0040845D01*
X0152238Y0041080D01*
X0152294Y0041314D01*
X0152355Y0041547D01*
X0152422Y0041778D01*
X0152495Y0042007D01*
X0152573Y0042235D01*
X0152657Y0042460D01*
X0152746Y0042683D01*
X0152841Y0042904D01*
X0152941Y0043123D01*
X0153046Y0043339D01*
X0153157Y0043553D01*
X0153273Y0043763D01*
X0153394Y0043971D01*
X0153520Y0044176D01*
X0153652Y0044378D01*
X0153788Y0044576D01*
X0153929Y0044771D01*
X0154074Y0044962D01*
X0154224Y0045150D01*
X0154379Y0045334D01*
X0154539Y0045514D01*
X0154702Y0045690D01*
X0154870Y0045863D01*
X0155043Y0046031D01*
X0155219Y0046194D01*
X0155399Y0046354D01*
X0155583Y0046509D01*
X0155771Y0046659D01*
X0155962Y0046804D01*
X0156157Y0046945D01*
X0156355Y0047081D01*
X0156557Y0047213D01*
X0156762Y0047339D01*
X0156970Y0047460D01*
X0157180Y0047576D01*
X0157394Y0047687D01*
X0157610Y0047792D01*
X0157829Y0047892D01*
X0158050Y0047987D01*
X0158273Y0048076D01*
X0158498Y0048160D01*
X0158726Y0048238D01*
X0158955Y0048311D01*
X0159186Y0048378D01*
X0159419Y0048439D01*
X0159653Y0048495D01*
X0159888Y0048545D01*
X0160125Y0048589D01*
X0160362Y0048627D01*
X0160600Y0048659D01*
X0160839Y0048686D01*
X0161079Y0048706D01*
X0161319Y0048721D01*
X0161559Y0048730D01*
X0161800Y0048733D01*
X0162041Y0048730D01*
X0162281Y0048721D01*
X0162521Y0048706D01*
X0162761Y0048686D01*
X0163000Y0048659D01*
X0163238Y0048627D01*
X0163475Y0048589D01*
X0163712Y0048545D01*
X0163947Y0048495D01*
X0164181Y0048439D01*
X0164414Y0048378D01*
X0164645Y0048311D01*
X0164874Y0048238D01*
X0165102Y0048160D01*
X0165327Y0048076D01*
X0165550Y0047987D01*
X0165771Y0047892D01*
X0165990Y0047792D01*
X0166206Y0047687D01*
X0166420Y0047576D01*
X0166630Y0047460D01*
X0166838Y0047339D01*
X0167043Y0047213D01*
X0167245Y0047081D01*
X0167443Y0046945D01*
X0167638Y0046804D01*
X0167829Y0046659D01*
X0168017Y0046509D01*
X0168201Y0046354D01*
X0168381Y0046194D01*
X0168557Y0046031D01*
X0168730Y0045863D01*
X0168898Y0045690D01*
X0169061Y0045514D01*
X0169221Y0045334D01*
X0169376Y0045150D01*
X0169526Y0044962D01*
X0169671Y0044771D01*
X0169812Y0044576D01*
X0169948Y0044378D01*
X0170080Y0044176D01*
X0170206Y0043971D01*
X0170327Y0043763D01*
X0170443Y0043553D01*
X0170554Y0043339D01*
X0170659Y0043123D01*
X0170759Y0042904D01*
X0170854Y0042683D01*
X0170943Y0042460D01*
X0171027Y0042235D01*
X0171105Y0042007D01*
X0171178Y0041778D01*
X0171245Y0041547D01*
X0171306Y0041314D01*
X0171362Y0041080D01*
X0171412Y0040845D01*
X0171456Y0040608D01*
X0171494Y0040371D01*
X0171526Y0040133D01*
X0171553Y0039894D01*
X0171573Y0039654D01*
X0171588Y0039414D01*
X0171597Y0039174D01*
X0171600Y0038933D01*
X0171597Y0038692D01*
X0171588Y0038452D01*
X0171573Y0038212D01*
X0171553Y0037972D01*
X0171526Y0037733D01*
X0171494Y0037495D01*
X0171456Y0037258D01*
X0171412Y0037021D01*
X0171362Y0036786D01*
X0171306Y0036552D01*
X0171245Y0036319D01*
X0171178Y0036088D01*
X0171105Y0035859D01*
X0171027Y0035631D01*
X0170943Y0035406D01*
X0170854Y0035183D01*
X0170759Y0034962D01*
X0170659Y0034743D01*
X0170554Y0034527D01*
X0170443Y0034313D01*
X0170327Y0034103D01*
X0170206Y0033895D01*
X0170080Y0033690D01*
X0169948Y0033488D01*
X0169812Y0033290D01*
X0169671Y0033095D01*
X0169526Y0032904D01*
X0169376Y0032716D01*
X0169221Y0032532D01*
X0169061Y0032352D01*
X0168898Y0032176D01*
X0168730Y0032003D01*
X0168557Y0031835D01*
X0168381Y0031672D01*
X0168201Y0031512D01*
X0168017Y0031357D01*
X0167829Y0031207D01*
X0167638Y0031062D01*
X0167443Y0030921D01*
X0167245Y0030785D01*
X0167043Y0030653D01*
X0166838Y0030527D01*
X0166630Y0030406D01*
X0166420Y0030290D01*
X0166206Y0030179D01*
X0165990Y0030074D01*
X0165771Y0029974D01*
X0165550Y0029879D01*
X0165327Y0029790D01*
X0165102Y0029706D01*
X0164874Y0029628D01*
X0164645Y0029555D01*
X0164414Y0029488D01*
X0164181Y0029427D01*
X0163947Y0029371D01*
X0163712Y0029321D01*
X0163475Y0029277D01*
X0163238Y0029239D01*
X0163000Y0029207D01*
X0162761Y0029180D01*
X0162521Y0029160D01*
X0162281Y0029145D01*
X0162041Y0029136D01*
X0161800Y0029133D01*
X0161559Y0029136D01*
X0161319Y0029145D01*
X0161079Y0029160D01*
X0160839Y0029180D01*
X0160600Y0029207D01*
X0160362Y0029239D01*
X0160125Y0029277D01*
X0159888Y0029321D01*
X0159653Y0029371D01*
X0159419Y0029427D01*
X0159186Y0029488D01*
X0158955Y0029555D01*
X0158726Y0029628D01*
X0158498Y0029706D01*
X0158273Y0029790D01*
X0158050Y0029879D01*
X0157829Y0029974D01*
X0157610Y0030074D01*
X0157394Y0030179D01*
X0157180Y0030290D01*
X0156970Y0030406D01*
X0156762Y0030527D01*
X0156557Y0030653D01*
X0156355Y0030785D01*
X0156157Y0030921D01*
X0155962Y0031062D01*
X0155771Y0031207D01*
X0155583Y0031357D01*
X0155399Y0031512D01*
X0155219Y0031672D01*
X0155043Y0031835D01*
X0154870Y0032003D01*
X0154702Y0032176D01*
X0154539Y0032352D01*
X0154379Y0032532D01*
X0154224Y0032716D01*
X0154074Y0032904D01*
X0153929Y0033095D01*
X0153788Y0033290D01*
X0153652Y0033488D01*
X0153520Y0033690D01*
X0153394Y0033895D01*
X0153273Y0034103D01*
X0153157Y0034313D01*
X0153046Y0034527D01*
X0152941Y0034743D01*
X0152841Y0034962D01*
X0152746Y0035183D01*
X0152657Y0035406D01*
X0152573Y0035631D01*
X0152495Y0035859D01*
X0152422Y0036088D01*
X0152355Y0036319D01*
X0152294Y0036552D01*
X0152238Y0036786D01*
X0152188Y0037021D01*
X0152144Y0037258D01*
X0152106Y0037495D01*
X0152074Y0037733D01*
X0152047Y0037972D01*
X0152027Y0038212D01*
X0152012Y0038452D01*
X0152003Y0038692D01*
X0152000Y0038933D01*
X0152000Y0183933D02*
X0152003Y0184174D01*
X0152012Y0184414D01*
X0152027Y0184654D01*
X0152047Y0184894D01*
X0152074Y0185133D01*
X0152106Y0185371D01*
X0152144Y0185608D01*
X0152188Y0185845D01*
X0152238Y0186080D01*
X0152294Y0186314D01*
X0152355Y0186547D01*
X0152422Y0186778D01*
X0152495Y0187007D01*
X0152573Y0187235D01*
X0152657Y0187460D01*
X0152746Y0187683D01*
X0152841Y0187904D01*
X0152941Y0188123D01*
X0153046Y0188339D01*
X0153157Y0188553D01*
X0153273Y0188763D01*
X0153394Y0188971D01*
X0153520Y0189176D01*
X0153652Y0189378D01*
X0153788Y0189576D01*
X0153929Y0189771D01*
X0154074Y0189962D01*
X0154224Y0190150D01*
X0154379Y0190334D01*
X0154539Y0190514D01*
X0154702Y0190690D01*
X0154870Y0190863D01*
X0155043Y0191031D01*
X0155219Y0191194D01*
X0155399Y0191354D01*
X0155583Y0191509D01*
X0155771Y0191659D01*
X0155962Y0191804D01*
X0156157Y0191945D01*
X0156355Y0192081D01*
X0156557Y0192213D01*
X0156762Y0192339D01*
X0156970Y0192460D01*
X0157180Y0192576D01*
X0157394Y0192687D01*
X0157610Y0192792D01*
X0157829Y0192892D01*
X0158050Y0192987D01*
X0158273Y0193076D01*
X0158498Y0193160D01*
X0158726Y0193238D01*
X0158955Y0193311D01*
X0159186Y0193378D01*
X0159419Y0193439D01*
X0159653Y0193495D01*
X0159888Y0193545D01*
X0160125Y0193589D01*
X0160362Y0193627D01*
X0160600Y0193659D01*
X0160839Y0193686D01*
X0161079Y0193706D01*
X0161319Y0193721D01*
X0161559Y0193730D01*
X0161800Y0193733D01*
X0162041Y0193730D01*
X0162281Y0193721D01*
X0162521Y0193706D01*
X0162761Y0193686D01*
X0163000Y0193659D01*
X0163238Y0193627D01*
X0163475Y0193589D01*
X0163712Y0193545D01*
X0163947Y0193495D01*
X0164181Y0193439D01*
X0164414Y0193378D01*
X0164645Y0193311D01*
X0164874Y0193238D01*
X0165102Y0193160D01*
X0165327Y0193076D01*
X0165550Y0192987D01*
X0165771Y0192892D01*
X0165990Y0192792D01*
X0166206Y0192687D01*
X0166420Y0192576D01*
X0166630Y0192460D01*
X0166838Y0192339D01*
X0167043Y0192213D01*
X0167245Y0192081D01*
X0167443Y0191945D01*
X0167638Y0191804D01*
X0167829Y0191659D01*
X0168017Y0191509D01*
X0168201Y0191354D01*
X0168381Y0191194D01*
X0168557Y0191031D01*
X0168730Y0190863D01*
X0168898Y0190690D01*
X0169061Y0190514D01*
X0169221Y0190334D01*
X0169376Y0190150D01*
X0169526Y0189962D01*
X0169671Y0189771D01*
X0169812Y0189576D01*
X0169948Y0189378D01*
X0170080Y0189176D01*
X0170206Y0188971D01*
X0170327Y0188763D01*
X0170443Y0188553D01*
X0170554Y0188339D01*
X0170659Y0188123D01*
X0170759Y0187904D01*
X0170854Y0187683D01*
X0170943Y0187460D01*
X0171027Y0187235D01*
X0171105Y0187007D01*
X0171178Y0186778D01*
X0171245Y0186547D01*
X0171306Y0186314D01*
X0171362Y0186080D01*
X0171412Y0185845D01*
X0171456Y0185608D01*
X0171494Y0185371D01*
X0171526Y0185133D01*
X0171553Y0184894D01*
X0171573Y0184654D01*
X0171588Y0184414D01*
X0171597Y0184174D01*
X0171600Y0183933D01*
X0171597Y0183692D01*
X0171588Y0183452D01*
X0171573Y0183212D01*
X0171553Y0182972D01*
X0171526Y0182733D01*
X0171494Y0182495D01*
X0171456Y0182258D01*
X0171412Y0182021D01*
X0171362Y0181786D01*
X0171306Y0181552D01*
X0171245Y0181319D01*
X0171178Y0181088D01*
X0171105Y0180859D01*
X0171027Y0180631D01*
X0170943Y0180406D01*
X0170854Y0180183D01*
X0170759Y0179962D01*
X0170659Y0179743D01*
X0170554Y0179527D01*
X0170443Y0179313D01*
X0170327Y0179103D01*
X0170206Y0178895D01*
X0170080Y0178690D01*
X0169948Y0178488D01*
X0169812Y0178290D01*
X0169671Y0178095D01*
X0169526Y0177904D01*
X0169376Y0177716D01*
X0169221Y0177532D01*
X0169061Y0177352D01*
X0168898Y0177176D01*
X0168730Y0177003D01*
X0168557Y0176835D01*
X0168381Y0176672D01*
X0168201Y0176512D01*
X0168017Y0176357D01*
X0167829Y0176207D01*
X0167638Y0176062D01*
X0167443Y0175921D01*
X0167245Y0175785D01*
X0167043Y0175653D01*
X0166838Y0175527D01*
X0166630Y0175406D01*
X0166420Y0175290D01*
X0166206Y0175179D01*
X0165990Y0175074D01*
X0165771Y0174974D01*
X0165550Y0174879D01*
X0165327Y0174790D01*
X0165102Y0174706D01*
X0164874Y0174628D01*
X0164645Y0174555D01*
X0164414Y0174488D01*
X0164181Y0174427D01*
X0163947Y0174371D01*
X0163712Y0174321D01*
X0163475Y0174277D01*
X0163238Y0174239D01*
X0163000Y0174207D01*
X0162761Y0174180D01*
X0162521Y0174160D01*
X0162281Y0174145D01*
X0162041Y0174136D01*
X0161800Y0174133D01*
X0161559Y0174136D01*
X0161319Y0174145D01*
X0161079Y0174160D01*
X0160839Y0174180D01*
X0160600Y0174207D01*
X0160362Y0174239D01*
X0160125Y0174277D01*
X0159888Y0174321D01*
X0159653Y0174371D01*
X0159419Y0174427D01*
X0159186Y0174488D01*
X0158955Y0174555D01*
X0158726Y0174628D01*
X0158498Y0174706D01*
X0158273Y0174790D01*
X0158050Y0174879D01*
X0157829Y0174974D01*
X0157610Y0175074D01*
X0157394Y0175179D01*
X0157180Y0175290D01*
X0156970Y0175406D01*
X0156762Y0175527D01*
X0156557Y0175653D01*
X0156355Y0175785D01*
X0156157Y0175921D01*
X0155962Y0176062D01*
X0155771Y0176207D01*
X0155583Y0176357D01*
X0155399Y0176512D01*
X0155219Y0176672D01*
X0155043Y0176835D01*
X0154870Y0177003D01*
X0154702Y0177176D01*
X0154539Y0177352D01*
X0154379Y0177532D01*
X0154224Y0177716D01*
X0154074Y0177904D01*
X0153929Y0178095D01*
X0153788Y0178290D01*
X0153652Y0178488D01*
X0153520Y0178690D01*
X0153394Y0178895D01*
X0153273Y0179103D01*
X0153157Y0179313D01*
X0153046Y0179527D01*
X0152941Y0179743D01*
X0152841Y0179962D01*
X0152746Y0180183D01*
X0152657Y0180406D01*
X0152573Y0180631D01*
X0152495Y0180859D01*
X0152422Y0181088D01*
X0152355Y0181319D01*
X0152294Y0181552D01*
X0152238Y0181786D01*
X0152188Y0182021D01*
X0152144Y0182258D01*
X0152106Y0182495D01*
X0152074Y0182733D01*
X0152047Y0182972D01*
X0152027Y0183212D01*
X0152012Y0183452D01*
X0152003Y0183692D01*
X0152000Y0183933D01*
X0007000Y0183933D02*
X0007003Y0184174D01*
X0007012Y0184414D01*
X0007027Y0184654D01*
X0007047Y0184894D01*
X0007074Y0185133D01*
X0007106Y0185371D01*
X0007144Y0185608D01*
X0007188Y0185845D01*
X0007238Y0186080D01*
X0007294Y0186314D01*
X0007355Y0186547D01*
X0007422Y0186778D01*
X0007495Y0187007D01*
X0007573Y0187235D01*
X0007657Y0187460D01*
X0007746Y0187683D01*
X0007841Y0187904D01*
X0007941Y0188123D01*
X0008046Y0188339D01*
X0008157Y0188553D01*
X0008273Y0188763D01*
X0008394Y0188971D01*
X0008520Y0189176D01*
X0008652Y0189378D01*
X0008788Y0189576D01*
X0008929Y0189771D01*
X0009074Y0189962D01*
X0009224Y0190150D01*
X0009379Y0190334D01*
X0009539Y0190514D01*
X0009702Y0190690D01*
X0009870Y0190863D01*
X0010043Y0191031D01*
X0010219Y0191194D01*
X0010399Y0191354D01*
X0010583Y0191509D01*
X0010771Y0191659D01*
X0010962Y0191804D01*
X0011157Y0191945D01*
X0011355Y0192081D01*
X0011557Y0192213D01*
X0011762Y0192339D01*
X0011970Y0192460D01*
X0012180Y0192576D01*
X0012394Y0192687D01*
X0012610Y0192792D01*
X0012829Y0192892D01*
X0013050Y0192987D01*
X0013273Y0193076D01*
X0013498Y0193160D01*
X0013726Y0193238D01*
X0013955Y0193311D01*
X0014186Y0193378D01*
X0014419Y0193439D01*
X0014653Y0193495D01*
X0014888Y0193545D01*
X0015125Y0193589D01*
X0015362Y0193627D01*
X0015600Y0193659D01*
X0015839Y0193686D01*
X0016079Y0193706D01*
X0016319Y0193721D01*
X0016559Y0193730D01*
X0016800Y0193733D01*
X0017041Y0193730D01*
X0017281Y0193721D01*
X0017521Y0193706D01*
X0017761Y0193686D01*
X0018000Y0193659D01*
X0018238Y0193627D01*
X0018475Y0193589D01*
X0018712Y0193545D01*
X0018947Y0193495D01*
X0019181Y0193439D01*
X0019414Y0193378D01*
X0019645Y0193311D01*
X0019874Y0193238D01*
X0020102Y0193160D01*
X0020327Y0193076D01*
X0020550Y0192987D01*
X0020771Y0192892D01*
X0020990Y0192792D01*
X0021206Y0192687D01*
X0021420Y0192576D01*
X0021630Y0192460D01*
X0021838Y0192339D01*
X0022043Y0192213D01*
X0022245Y0192081D01*
X0022443Y0191945D01*
X0022638Y0191804D01*
X0022829Y0191659D01*
X0023017Y0191509D01*
X0023201Y0191354D01*
X0023381Y0191194D01*
X0023557Y0191031D01*
X0023730Y0190863D01*
X0023898Y0190690D01*
X0024061Y0190514D01*
X0024221Y0190334D01*
X0024376Y0190150D01*
X0024526Y0189962D01*
X0024671Y0189771D01*
X0024812Y0189576D01*
X0024948Y0189378D01*
X0025080Y0189176D01*
X0025206Y0188971D01*
X0025327Y0188763D01*
X0025443Y0188553D01*
X0025554Y0188339D01*
X0025659Y0188123D01*
X0025759Y0187904D01*
X0025854Y0187683D01*
X0025943Y0187460D01*
X0026027Y0187235D01*
X0026105Y0187007D01*
X0026178Y0186778D01*
X0026245Y0186547D01*
X0026306Y0186314D01*
X0026362Y0186080D01*
X0026412Y0185845D01*
X0026456Y0185608D01*
X0026494Y0185371D01*
X0026526Y0185133D01*
X0026553Y0184894D01*
X0026573Y0184654D01*
X0026588Y0184414D01*
X0026597Y0184174D01*
X0026600Y0183933D01*
X0026597Y0183692D01*
X0026588Y0183452D01*
X0026573Y0183212D01*
X0026553Y0182972D01*
X0026526Y0182733D01*
X0026494Y0182495D01*
X0026456Y0182258D01*
X0026412Y0182021D01*
X0026362Y0181786D01*
X0026306Y0181552D01*
X0026245Y0181319D01*
X0026178Y0181088D01*
X0026105Y0180859D01*
X0026027Y0180631D01*
X0025943Y0180406D01*
X0025854Y0180183D01*
X0025759Y0179962D01*
X0025659Y0179743D01*
X0025554Y0179527D01*
X0025443Y0179313D01*
X0025327Y0179103D01*
X0025206Y0178895D01*
X0025080Y0178690D01*
X0024948Y0178488D01*
X0024812Y0178290D01*
X0024671Y0178095D01*
X0024526Y0177904D01*
X0024376Y0177716D01*
X0024221Y0177532D01*
X0024061Y0177352D01*
X0023898Y0177176D01*
X0023730Y0177003D01*
X0023557Y0176835D01*
X0023381Y0176672D01*
X0023201Y0176512D01*
X0023017Y0176357D01*
X0022829Y0176207D01*
X0022638Y0176062D01*
X0022443Y0175921D01*
X0022245Y0175785D01*
X0022043Y0175653D01*
X0021838Y0175527D01*
X0021630Y0175406D01*
X0021420Y0175290D01*
X0021206Y0175179D01*
X0020990Y0175074D01*
X0020771Y0174974D01*
X0020550Y0174879D01*
X0020327Y0174790D01*
X0020102Y0174706D01*
X0019874Y0174628D01*
X0019645Y0174555D01*
X0019414Y0174488D01*
X0019181Y0174427D01*
X0018947Y0174371D01*
X0018712Y0174321D01*
X0018475Y0174277D01*
X0018238Y0174239D01*
X0018000Y0174207D01*
X0017761Y0174180D01*
X0017521Y0174160D01*
X0017281Y0174145D01*
X0017041Y0174136D01*
X0016800Y0174133D01*
X0016559Y0174136D01*
X0016319Y0174145D01*
X0016079Y0174160D01*
X0015839Y0174180D01*
X0015600Y0174207D01*
X0015362Y0174239D01*
X0015125Y0174277D01*
X0014888Y0174321D01*
X0014653Y0174371D01*
X0014419Y0174427D01*
X0014186Y0174488D01*
X0013955Y0174555D01*
X0013726Y0174628D01*
X0013498Y0174706D01*
X0013273Y0174790D01*
X0013050Y0174879D01*
X0012829Y0174974D01*
X0012610Y0175074D01*
X0012394Y0175179D01*
X0012180Y0175290D01*
X0011970Y0175406D01*
X0011762Y0175527D01*
X0011557Y0175653D01*
X0011355Y0175785D01*
X0011157Y0175921D01*
X0010962Y0176062D01*
X0010771Y0176207D01*
X0010583Y0176357D01*
X0010399Y0176512D01*
X0010219Y0176672D01*
X0010043Y0176835D01*
X0009870Y0177003D01*
X0009702Y0177176D01*
X0009539Y0177352D01*
X0009379Y0177532D01*
X0009224Y0177716D01*
X0009074Y0177904D01*
X0008929Y0178095D01*
X0008788Y0178290D01*
X0008652Y0178488D01*
X0008520Y0178690D01*
X0008394Y0178895D01*
X0008273Y0179103D01*
X0008157Y0179313D01*
X0008046Y0179527D01*
X0007941Y0179743D01*
X0007841Y0179962D01*
X0007746Y0180183D01*
X0007657Y0180406D01*
X0007573Y0180631D01*
X0007495Y0180859D01*
X0007422Y0181088D01*
X0007355Y0181319D01*
X0007294Y0181552D01*
X0007238Y0181786D01*
X0007188Y0182021D01*
X0007144Y0182258D01*
X0007106Y0182495D01*
X0007074Y0182733D01*
X0007047Y0182972D01*
X0007027Y0183212D01*
X0007012Y0183452D01*
X0007003Y0183692D01*
X0007000Y0183933D01*
D11*
X0022792Y0163737D02*
X0025094Y0163737D01*
X0025861Y0162970D01*
X0025861Y0161435D01*
X0025094Y0160668D01*
X0022792Y0160668D01*
X0024327Y0160668D02*
X0025861Y0159133D01*
X0027396Y0159900D02*
X0027396Y0161435D01*
X0029698Y0161435D01*
X0030465Y0160668D01*
X0030465Y0159900D01*
X0029698Y0159133D01*
X0028163Y0159133D01*
X0027396Y0159900D01*
X0027396Y0161435D02*
X0028931Y0162970D01*
X0030465Y0163737D01*
X0022792Y0163737D02*
X0022792Y0159133D01*
X0070292Y0138737D02*
X0070292Y0134133D01*
X0070292Y0135668D02*
X0072594Y0135668D01*
X0073361Y0136435D01*
X0073361Y0137970D01*
X0072594Y0138737D01*
X0070292Y0138737D01*
X0071827Y0135668D02*
X0073361Y0134133D01*
X0074896Y0134133D02*
X0074896Y0134900D01*
X0077965Y0137970D01*
X0077965Y0138737D01*
X0074896Y0138737D01*
X0075094Y0116237D02*
X0072792Y0116237D01*
X0072792Y0111633D01*
X0072792Y0113168D02*
X0075094Y0113168D01*
X0075861Y0113935D01*
X0075861Y0115470D01*
X0075094Y0116237D01*
X0074327Y0113168D02*
X0075861Y0111633D01*
X0077396Y0113935D02*
X0080465Y0113935D01*
X0079698Y0111633D02*
X0079698Y0116237D01*
X0077396Y0113935D01*
X0044673Y0100470D02*
X0044673Y0099702D01*
X0041604Y0096633D01*
X0044673Y0096633D01*
X0044673Y0100470D02*
X0043906Y0101237D01*
X0042371Y0101237D01*
X0041604Y0100470D01*
X0040069Y0100470D02*
X0039302Y0101237D01*
X0037767Y0101237D01*
X0037000Y0100470D01*
X0037000Y0097400D01*
X0037767Y0096633D01*
X0039302Y0096633D01*
X0040069Y0097400D01*
X0044500Y0056237D02*
X0046802Y0056237D01*
X0047569Y0055470D01*
X0047569Y0053935D01*
X0046802Y0053168D01*
X0044500Y0053168D01*
X0046035Y0053168D02*
X0047569Y0051633D01*
X0049104Y0052400D02*
X0049871Y0051633D01*
X0051406Y0051633D01*
X0052173Y0052400D01*
X0052173Y0053935D01*
X0051406Y0054702D01*
X0050639Y0054702D01*
X0049104Y0053935D01*
X0049104Y0056237D01*
X0052173Y0056237D01*
X0044500Y0056237D02*
X0044500Y0051633D01*
X0052767Y0036237D02*
X0052000Y0035470D01*
X0052000Y0032400D01*
X0052767Y0031633D01*
X0054302Y0031633D01*
X0055069Y0032400D01*
X0056604Y0031633D02*
X0059673Y0031633D01*
X0058139Y0031633D02*
X0058139Y0036237D01*
X0056604Y0034702D01*
X0055069Y0035470D02*
X0054302Y0036237D01*
X0052767Y0036237D01*
X0129500Y0079133D02*
X0129500Y0083737D01*
X0131802Y0083737D01*
X0132569Y0082970D01*
X0132569Y0081435D01*
X0131802Y0080668D01*
X0129500Y0080668D01*
X0131035Y0080668D02*
X0132569Y0079133D01*
X0134104Y0079133D02*
X0137173Y0079133D01*
X0135639Y0079133D02*
X0135639Y0083737D01*
X0134104Y0082202D01*
X0123906Y0114133D02*
X0122371Y0114133D01*
X0121604Y0114900D01*
X0120069Y0114133D02*
X0118535Y0115668D01*
X0119302Y0115668D02*
X0117000Y0115668D01*
X0117000Y0114133D02*
X0117000Y0118737D01*
X0119302Y0118737D01*
X0120069Y0117970D01*
X0120069Y0116435D01*
X0119302Y0115668D01*
X0121604Y0117970D02*
X0122371Y0118737D01*
X0123906Y0118737D01*
X0124673Y0117970D01*
X0124673Y0117202D01*
X0123906Y0116435D01*
X0124673Y0115668D01*
X0124673Y0114900D01*
X0123906Y0114133D01*
X0123906Y0116435D02*
X0123139Y0116435D01*
X0147000Y0159133D02*
X0147000Y0163737D01*
X0149302Y0163737D01*
X0150069Y0162970D01*
X0150069Y0161435D01*
X0149302Y0160668D01*
X0147000Y0160668D01*
X0148535Y0160668D02*
X0150069Y0159133D01*
X0151604Y0159133D02*
X0154673Y0162202D01*
X0154673Y0162970D01*
X0153906Y0163737D01*
X0152371Y0163737D01*
X0151604Y0162970D01*
X0151604Y0159133D02*
X0154673Y0159133D01*
D12*
X0109000Y0084033D02*
X0109000Y0074933D01*
X0101800Y0048933D02*
X0096800Y0048933D01*
X0094300Y0046433D01*
X0094300Y0031433D01*
X0096800Y0028933D01*
X0101800Y0028933D01*
X0104300Y0031433D01*
X0104300Y0046433D01*
X0101800Y0048933D01*
X0094300Y0046433D02*
X0091800Y0048933D01*
X0086800Y0048933D01*
X0084300Y0046433D01*
X0084300Y0031433D01*
X0086800Y0028933D01*
X0091800Y0028933D01*
X0094300Y0031433D01*
X0084300Y0031433D02*
X0081800Y0028933D01*
X0076800Y0028933D01*
X0074300Y0031433D01*
X0074300Y0046433D01*
X0076800Y0048933D01*
X0081800Y0048933D01*
X0084300Y0046433D01*
X0069600Y0074933D02*
X0069600Y0078333D01*
X0069600Y0080733D01*
X0069600Y0084033D01*
D13*
X0111051Y0036187D02*
X0112553Y0036187D01*
X0111802Y0036187D02*
X0111802Y0032434D01*
X0111051Y0031683D01*
X0110301Y0031683D01*
X0109550Y0032434D01*
X0114154Y0031683D02*
X0117156Y0031683D01*
X0115655Y0031683D02*
X0115655Y0036187D01*
X0114154Y0034686D01*
D14*
X0069166Y0067883D02*
X0066030Y0071019D01*
X0066030Y0069451D02*
X0069166Y0069451D01*
X0069166Y0071019D02*
X0066030Y0067883D01*
X0067598Y0067883D02*
X0067598Y0071019D01*
D15*
X0114000Y0069167D02*
X0115234Y0067933D01*
X0117703Y0067933D01*
X0118938Y0069167D01*
X0118938Y0075339D01*
X0121550Y0072871D02*
X0124019Y0075339D01*
X0124019Y0067933D01*
X0121550Y0067933D02*
X0126488Y0067933D01*
X0114000Y0069167D02*
X0114000Y0075339D01*
M02*
