%
M48
M72
T01C0.02362
T02C0.04000
T03C0.06299
T04C0.19600
%
T01
X34300Y73933
X61800Y88933
X64300Y78933
X79300Y56433
X86800Y56433
X106800Y78933
X141800Y98933
X134300Y121433
X64300Y151433
X51800Y181433
T02
X79300Y33933
X89300Y33933
X99300Y33933
X99300Y43933
X89300Y43933
X79300Y43933
T03
X47090Y147743
X58400Y167333
X77990Y178643
X100610Y178643
X120200Y167333
X131510Y147743
X100010Y147143
X47090Y125123
T04
X16800Y183933
X16800Y38933
X161800Y38933
X161800Y183933
M30
