G75*
%MOIN*%
%OFA0B0*%
%FSLAX25Y25*%
%IPPOS*%
%LPD*%
%AMOC8*
5,1,8,0,0,1.08239X$1,22.5*
%
%ADD10C,0.00000*%
%ADD11OC8,0.06400*%
%ADD12C,0.06400*%
%ADD13C,0.08077*%
%ADD14C,0.04369*%
D10*
X0001800Y0001800D02*
X0001800Y0196800D01*
X0196800Y0196800D01*
X0196800Y0001800D01*
X0001800Y0001800D01*
D11*
X0007800Y0007800D03*
X0007800Y0017800D03*
X0017800Y0017800D03*
X0017800Y0007800D03*
X0027800Y0007800D03*
X0027800Y0017800D03*
X0037800Y0017800D03*
X0037800Y0007800D03*
X0047800Y0007800D03*
X0047800Y0017800D03*
X0057800Y0017800D03*
X0057800Y0007800D03*
X0067800Y0007800D03*
X0067800Y0017800D03*
X0077800Y0017800D03*
X0077800Y0007800D03*
X0087800Y0007800D03*
X0087800Y0017800D03*
X0097800Y0017800D03*
X0097800Y0007800D03*
X0107800Y0007800D03*
X0107800Y0017800D03*
X0117800Y0017800D03*
X0117800Y0007800D03*
X0127800Y0007800D03*
X0127800Y0017800D03*
D12*
X0095800Y0168800D02*
X0095800Y0174800D01*
X0085800Y0174800D02*
X0085800Y0168800D01*
X0040800Y0183800D02*
X0040800Y0189800D01*
X0030800Y0189800D02*
X0030800Y0183800D01*
X0020800Y0183800D02*
X0020800Y0189800D01*
X0010800Y0189800D02*
X0010800Y0183800D01*
D13*
X0148800Y0186454D03*
X0148800Y0107713D03*
D14*
X0091800Y0122235D03*
X0091800Y0127365D03*
M02*
