G75*
%MOIN*%
%OFA0B0*%
%FSLAX25Y25*%
%IPPOS*%
%LPD*%
%AMOC8*
5,1,8,0,0,1.08239X$1,22.5*
%
%ADD10C,0.00000*%
%ADD11OC8,0.06400*%
%ADD12R,0.06699X0.07498*%
%ADD13C,0.06400*%
%ADD14C,0.08077*%
%ADD15R,0.06699X0.07487*%
%ADD16R,0.02800X0.09100*%
%ADD17R,0.02565X0.05124*%
%ADD18R,0.07487X0.06699*%
%ADD19R,0.07498X0.06699*%
%ADD20R,0.06306X0.06306*%
%ADD21C,0.04369*%
D10*
X0001800Y0001800D02*
X0001800Y0196800D01*
X0196800Y0196800D01*
X0196800Y0001800D01*
X0001800Y0001800D01*
D11*
X0007800Y0007800D03*
X0007800Y0017800D03*
X0017800Y0017800D03*
X0017800Y0007800D03*
X0027800Y0007800D03*
X0027800Y0017800D03*
X0037800Y0017800D03*
X0037800Y0007800D03*
X0047800Y0007800D03*
X0047800Y0017800D03*
X0057800Y0017800D03*
X0057800Y0007800D03*
X0067800Y0007800D03*
X0067800Y0017800D03*
X0077800Y0017800D03*
X0077800Y0007800D03*
X0087800Y0007800D03*
X0087800Y0017800D03*
X0097800Y0017800D03*
X0097800Y0007800D03*
X0107800Y0007800D03*
X0107800Y0017800D03*
X0117800Y0017800D03*
X0117800Y0007800D03*
X0127800Y0007800D03*
X0127800Y0017800D03*
D12*
X0131998Y0033600D03*
X0120802Y0033600D03*
X0104798Y0033600D03*
X0093602Y0033600D03*
X0106202Y0064800D03*
X0117398Y0064800D03*
X0134202Y0084800D03*
X0145398Y0084800D03*
X0060398Y0119800D03*
X0049202Y0119800D03*
X0041398Y0135900D03*
X0030202Y0135900D03*
X0030202Y0151400D03*
X0041398Y0151400D03*
D13*
X0040800Y0183800D02*
X0040800Y0189800D01*
X0030800Y0189800D02*
X0030800Y0183800D01*
X0020800Y0183800D02*
X0020800Y0189800D01*
X0010800Y0189800D02*
X0010800Y0183800D01*
X0085800Y0174800D02*
X0085800Y0168800D01*
X0095800Y0168800D02*
X0095800Y0174800D01*
D14*
X0148800Y0186454D03*
X0148800Y0107713D03*
D15*
X0175288Y0084800D03*
X0186312Y0084800D03*
X0117312Y0084800D03*
X0106288Y0084800D03*
X0066312Y0151400D03*
X0055288Y0151400D03*
D16*
X0073900Y0107400D03*
X0078900Y0107400D03*
X0083900Y0107400D03*
X0088900Y0107400D03*
X0088900Y0086800D03*
X0083900Y0086800D03*
X0078900Y0086800D03*
X0073900Y0086800D03*
D17*
X0033540Y0109681D03*
X0029800Y0109681D03*
X0026060Y0109681D03*
X0026060Y0119919D03*
X0033540Y0119919D03*
D18*
X0029800Y0090312D03*
X0029800Y0079288D03*
D19*
X0045000Y0079202D03*
X0045000Y0090398D03*
D20*
X0158800Y0032090D03*
X0158800Y0018310D03*
X0178900Y0018310D03*
X0178900Y0032090D03*
D21*
X0091800Y0122235D03*
X0091800Y0127365D03*
M02*
