%
M48
M72
T01C0.01969
T02C0.02362
T03C0.04000
T04C0.05118
%
T01
X91800Y122235
X91800Y127365
T02
X29800Y100800
X45000Y69000
X83800Y33600
X107800Y50800
X131800Y64800
X158800Y79800
X183800Y74800
X141800Y33600
X168800Y17800
X96800Y86800
T03
X7800Y7800
X7800Y17800
X17800Y17800
X17800Y7800
X27800Y7800
X27800Y17800
X37800Y17800
X37800Y7800
X47800Y7800
X47800Y17800
X57800Y17800
X57800Y7800
X67800Y7800
X67800Y17800
X77800Y17800
X77800Y7800
X87800Y7800
X87800Y17800
X97800Y17800
X97800Y7800
X107800Y7800
X107800Y17800
X117800Y17800
X117800Y7800
X127800Y7800
X127800Y17800
X95800Y171800
X85800Y171800
X40800Y186800
X30800Y186800
X20800Y186800
X10800Y186800
T04
X148800Y186454
X148800Y107713
M30
