G75*
%MOIN*%
%OFA0B0*%
%FSLAX25Y25*%
%IPPOS*%
%LPD*%
%AMOC8*
5,1,8,0,0,1.08239X$1,22.5*
%
%ADD10C,0.00000*%
%ADD11C,0.00600*%
%ADD12C,0.00500*%
%ADD13C,0.00800*%
%ADD14C,0.01000*%
%ADD15R,0.02000X0.02000*%
%ADD16C,0.00400*%
%ADD17C,0.01500*%
%ADD18C,0.01000*%
%ADD19C,0.00100*%
%ADD20R,0.01280X0.01673*%
%ADD21R,0.01378X0.01378*%
D10*
X0001800Y0001800D02*
X0001800Y0196800D01*
X0196800Y0196800D01*
X0196800Y0001800D01*
X0001800Y0001800D01*
D11*
X0002800Y0005300D02*
X0002800Y0020300D01*
X0005300Y0022800D01*
X0010300Y0022800D01*
X0012800Y0020300D01*
X0012800Y0005300D01*
X0010300Y0002800D01*
X0005300Y0002800D01*
X0002800Y0005300D01*
X0012800Y0005300D02*
X0015300Y0002800D01*
X0020300Y0002800D01*
X0022800Y0005300D01*
X0022800Y0020300D01*
X0025300Y0022800D01*
X0030300Y0022800D01*
X0032800Y0020300D01*
X0032800Y0005300D01*
X0030300Y0002800D01*
X0025300Y0002800D01*
X0022800Y0005300D01*
X0032800Y0005300D02*
X0035300Y0002800D01*
X0040300Y0002800D01*
X0042800Y0005300D01*
X0042800Y0020300D01*
X0045300Y0022800D01*
X0050300Y0022800D01*
X0052800Y0020300D01*
X0052800Y0005300D01*
X0050300Y0002800D01*
X0045300Y0002800D01*
X0042800Y0005300D01*
X0052800Y0005300D02*
X0055300Y0002800D01*
X0060300Y0002800D01*
X0062800Y0005300D01*
X0062800Y0020300D01*
X0065300Y0022800D01*
X0070300Y0022800D01*
X0072800Y0020300D01*
X0072800Y0005300D01*
X0070300Y0002800D01*
X0065300Y0002800D01*
X0062800Y0005300D01*
X0072800Y0005300D02*
X0075300Y0002800D01*
X0080300Y0002800D01*
X0082800Y0005300D01*
X0082800Y0020300D01*
X0080300Y0022800D01*
X0075300Y0022800D01*
X0072800Y0020300D01*
X0062800Y0020300D02*
X0060300Y0022800D01*
X0055300Y0022800D01*
X0052800Y0020300D01*
X0042800Y0020300D02*
X0040300Y0022800D01*
X0035300Y0022800D01*
X0032800Y0020300D01*
X0022800Y0020300D02*
X0020300Y0022800D01*
X0015300Y0022800D01*
X0012800Y0020300D01*
X0082800Y0020300D02*
X0085300Y0022800D01*
X0090300Y0022800D01*
X0092800Y0020300D01*
X0092800Y0005300D01*
X0090300Y0002800D01*
X0085300Y0002800D01*
X0082800Y0005300D01*
X0092800Y0005300D02*
X0095300Y0002800D01*
X0100300Y0002800D01*
X0102800Y0005300D01*
X0102800Y0020300D01*
X0100300Y0022800D01*
X0095300Y0022800D01*
X0092800Y0020300D01*
X0102800Y0020300D02*
X0105300Y0022800D01*
X0110300Y0022800D01*
X0112800Y0020300D01*
X0112800Y0005300D01*
X0110300Y0002800D01*
X0105300Y0002800D01*
X0102800Y0005300D01*
X0112800Y0005300D02*
X0115300Y0002800D01*
X0120300Y0002800D01*
X0122800Y0005300D01*
X0122800Y0020300D01*
X0120300Y0022800D01*
X0115300Y0022800D01*
X0112800Y0020300D01*
X0122800Y0020300D02*
X0125300Y0022800D01*
X0130300Y0022800D01*
X0132800Y0020300D01*
X0132800Y0005300D01*
X0130300Y0002800D01*
X0125300Y0002800D01*
X0122800Y0005300D01*
X0137100Y0016100D02*
X0141370Y0016100D01*
X0139235Y0016100D02*
X0139235Y0022505D01*
X0137100Y0020370D01*
X0090699Y0090002D02*
X0090699Y0104198D01*
X0072101Y0104198D02*
X0072101Y0090002D01*
X0085501Y0124800D02*
X0085503Y0124958D01*
X0085509Y0125116D01*
X0085519Y0125274D01*
X0085533Y0125432D01*
X0085551Y0125589D01*
X0085572Y0125746D01*
X0085598Y0125902D01*
X0085628Y0126058D01*
X0085661Y0126213D01*
X0085699Y0126366D01*
X0085740Y0126519D01*
X0085785Y0126671D01*
X0085834Y0126822D01*
X0085887Y0126971D01*
X0085943Y0127119D01*
X0086003Y0127265D01*
X0086067Y0127410D01*
X0086135Y0127553D01*
X0086206Y0127695D01*
X0086280Y0127835D01*
X0086358Y0127972D01*
X0086440Y0128108D01*
X0086524Y0128242D01*
X0086613Y0128373D01*
X0086704Y0128502D01*
X0086799Y0128629D01*
X0086896Y0128754D01*
X0086997Y0128876D01*
X0087101Y0128995D01*
X0087208Y0129112D01*
X0087318Y0129226D01*
X0087431Y0129337D01*
X0087546Y0129446D01*
X0087664Y0129551D01*
X0087785Y0129653D01*
X0087908Y0129753D01*
X0088034Y0129849D01*
X0088162Y0129942D01*
X0088292Y0130032D01*
X0088425Y0130118D01*
X0088560Y0130202D01*
X0088696Y0130281D01*
X0088835Y0130358D01*
X0088976Y0130430D01*
X0089118Y0130500D01*
X0089262Y0130565D01*
X0089408Y0130627D01*
X0089555Y0130685D01*
X0089704Y0130740D01*
X0089854Y0130791D01*
X0090005Y0130838D01*
X0090157Y0130881D01*
X0090310Y0130920D01*
X0090465Y0130956D01*
X0090620Y0130987D01*
X0090776Y0131015D01*
X0090932Y0131039D01*
X0091089Y0131059D01*
X0091247Y0131075D01*
X0091404Y0131087D01*
X0091563Y0131095D01*
X0091721Y0131099D01*
X0091879Y0131099D01*
X0092037Y0131095D01*
X0092196Y0131087D01*
X0092353Y0131075D01*
X0092511Y0131059D01*
X0092668Y0131039D01*
X0092824Y0131015D01*
X0092980Y0130987D01*
X0093135Y0130956D01*
X0093290Y0130920D01*
X0093443Y0130881D01*
X0093595Y0130838D01*
X0093746Y0130791D01*
X0093896Y0130740D01*
X0094045Y0130685D01*
X0094192Y0130627D01*
X0094338Y0130565D01*
X0094482Y0130500D01*
X0094624Y0130430D01*
X0094765Y0130358D01*
X0094904Y0130281D01*
X0095040Y0130202D01*
X0095175Y0130118D01*
X0095308Y0130032D01*
X0095438Y0129942D01*
X0095566Y0129849D01*
X0095692Y0129753D01*
X0095815Y0129653D01*
X0095936Y0129551D01*
X0096054Y0129446D01*
X0096169Y0129337D01*
X0096282Y0129226D01*
X0096392Y0129112D01*
X0096499Y0128995D01*
X0096603Y0128876D01*
X0096704Y0128754D01*
X0096801Y0128629D01*
X0096896Y0128502D01*
X0096987Y0128373D01*
X0097076Y0128242D01*
X0097160Y0128108D01*
X0097242Y0127972D01*
X0097320Y0127835D01*
X0097394Y0127695D01*
X0097465Y0127553D01*
X0097533Y0127410D01*
X0097597Y0127265D01*
X0097657Y0127119D01*
X0097713Y0126971D01*
X0097766Y0126822D01*
X0097815Y0126671D01*
X0097860Y0126519D01*
X0097901Y0126366D01*
X0097939Y0126213D01*
X0097972Y0126058D01*
X0098002Y0125902D01*
X0098028Y0125746D01*
X0098049Y0125589D01*
X0098067Y0125432D01*
X0098081Y0125274D01*
X0098091Y0125116D01*
X0098097Y0124958D01*
X0098099Y0124800D01*
X0098097Y0124642D01*
X0098091Y0124484D01*
X0098081Y0124326D01*
X0098067Y0124168D01*
X0098049Y0124011D01*
X0098028Y0123854D01*
X0098002Y0123698D01*
X0097972Y0123542D01*
X0097939Y0123387D01*
X0097901Y0123234D01*
X0097860Y0123081D01*
X0097815Y0122929D01*
X0097766Y0122778D01*
X0097713Y0122629D01*
X0097657Y0122481D01*
X0097597Y0122335D01*
X0097533Y0122190D01*
X0097465Y0122047D01*
X0097394Y0121905D01*
X0097320Y0121765D01*
X0097242Y0121628D01*
X0097160Y0121492D01*
X0097076Y0121358D01*
X0096987Y0121227D01*
X0096896Y0121098D01*
X0096801Y0120971D01*
X0096704Y0120846D01*
X0096603Y0120724D01*
X0096499Y0120605D01*
X0096392Y0120488D01*
X0096282Y0120374D01*
X0096169Y0120263D01*
X0096054Y0120154D01*
X0095936Y0120049D01*
X0095815Y0119947D01*
X0095692Y0119847D01*
X0095566Y0119751D01*
X0095438Y0119658D01*
X0095308Y0119568D01*
X0095175Y0119482D01*
X0095040Y0119398D01*
X0094904Y0119319D01*
X0094765Y0119242D01*
X0094624Y0119170D01*
X0094482Y0119100D01*
X0094338Y0119035D01*
X0094192Y0118973D01*
X0094045Y0118915D01*
X0093896Y0118860D01*
X0093746Y0118809D01*
X0093595Y0118762D01*
X0093443Y0118719D01*
X0093290Y0118680D01*
X0093135Y0118644D01*
X0092980Y0118613D01*
X0092824Y0118585D01*
X0092668Y0118561D01*
X0092511Y0118541D01*
X0092353Y0118525D01*
X0092196Y0118513D01*
X0092037Y0118505D01*
X0091879Y0118501D01*
X0091721Y0118501D01*
X0091563Y0118505D01*
X0091404Y0118513D01*
X0091247Y0118525D01*
X0091089Y0118541D01*
X0090932Y0118561D01*
X0090776Y0118585D01*
X0090620Y0118613D01*
X0090465Y0118644D01*
X0090310Y0118680D01*
X0090157Y0118719D01*
X0090005Y0118762D01*
X0089854Y0118809D01*
X0089704Y0118860D01*
X0089555Y0118915D01*
X0089408Y0118973D01*
X0089262Y0119035D01*
X0089118Y0119100D01*
X0088976Y0119170D01*
X0088835Y0119242D01*
X0088696Y0119319D01*
X0088560Y0119398D01*
X0088425Y0119482D01*
X0088292Y0119568D01*
X0088162Y0119658D01*
X0088034Y0119751D01*
X0087908Y0119847D01*
X0087785Y0119947D01*
X0087664Y0120049D01*
X0087546Y0120154D01*
X0087431Y0120263D01*
X0087318Y0120374D01*
X0087208Y0120488D01*
X0087101Y0120605D01*
X0086997Y0120724D01*
X0086896Y0120846D01*
X0086799Y0120971D01*
X0086704Y0121098D01*
X0086613Y0121227D01*
X0086524Y0121358D01*
X0086440Y0121492D01*
X0086358Y0121628D01*
X0086280Y0121765D01*
X0086206Y0121905D01*
X0086135Y0122047D01*
X0086067Y0122190D01*
X0086003Y0122335D01*
X0085943Y0122481D01*
X0085887Y0122629D01*
X0085834Y0122778D01*
X0085785Y0122929D01*
X0085740Y0123081D01*
X0085699Y0123234D01*
X0085661Y0123387D01*
X0085628Y0123542D01*
X0085598Y0123698D01*
X0085572Y0123854D01*
X0085551Y0124011D01*
X0085533Y0124168D01*
X0085519Y0124326D01*
X0085509Y0124484D01*
X0085503Y0124642D01*
X0085501Y0124800D01*
X0083300Y0166800D02*
X0080800Y0169300D01*
X0080800Y0174300D01*
X0083300Y0176800D01*
X0088300Y0176800D01*
X0090800Y0174300D01*
X0093300Y0176800D01*
X0098300Y0176800D01*
X0100800Y0174300D01*
X0100800Y0169300D01*
X0098300Y0166800D01*
X0093300Y0166800D01*
X0090800Y0169300D01*
X0088300Y0166800D01*
X0083300Y0166800D01*
X0090800Y0169300D02*
X0090800Y0174300D01*
X0045800Y0184300D02*
X0043300Y0181800D01*
X0038300Y0181800D01*
X0035800Y0184300D01*
X0033300Y0181800D01*
X0028300Y0181800D01*
X0025800Y0184300D01*
X0025800Y0189300D01*
X0028300Y0191800D01*
X0033300Y0191800D01*
X0035800Y0189300D01*
X0038300Y0191800D01*
X0043300Y0191800D01*
X0045800Y0189300D01*
X0045800Y0184300D01*
X0035800Y0184300D02*
X0035800Y0189300D01*
X0025800Y0189300D02*
X0023300Y0191800D01*
X0018300Y0191800D01*
X0015800Y0189300D01*
X0013300Y0191800D01*
X0008300Y0191800D01*
X0005800Y0189300D01*
X0005800Y0184300D01*
X0008300Y0181800D01*
X0013300Y0181800D01*
X0015800Y0184300D01*
X0015800Y0189300D01*
X0015800Y0184300D02*
X0018300Y0181800D01*
X0023300Y0181800D01*
X0025800Y0184300D01*
D12*
X0046142Y0185601D02*
X0046893Y0184850D01*
X0047643Y0184850D01*
X0048394Y0185601D01*
X0048394Y0189354D01*
X0047643Y0189354D02*
X0049145Y0189354D01*
X0050746Y0188603D02*
X0051497Y0189354D01*
X0052998Y0189354D01*
X0053749Y0188603D01*
X0053749Y0187853D01*
X0050746Y0184850D01*
X0053749Y0184850D01*
X0060050Y0185801D02*
X0060801Y0185050D01*
X0062302Y0185050D01*
X0063053Y0185801D01*
X0064654Y0186551D02*
X0066906Y0186551D01*
X0067656Y0187302D01*
X0067656Y0188803D01*
X0066906Y0189554D01*
X0064654Y0189554D01*
X0064654Y0185050D01*
X0066155Y0186551D02*
X0067656Y0185050D01*
X0069258Y0185050D02*
X0072260Y0188053D01*
X0072260Y0188803D01*
X0071510Y0189554D01*
X0070008Y0189554D01*
X0069258Y0188803D01*
X0069258Y0185050D02*
X0072260Y0185050D01*
X0073862Y0185801D02*
X0076864Y0188803D01*
X0076864Y0185801D01*
X0076114Y0185050D01*
X0074612Y0185050D01*
X0073862Y0185801D01*
X0073862Y0188803D01*
X0074612Y0189554D01*
X0076114Y0189554D01*
X0076864Y0188803D01*
X0078466Y0188803D02*
X0079216Y0189554D01*
X0080718Y0189554D01*
X0081468Y0188803D01*
X0081468Y0188053D01*
X0080718Y0187302D01*
X0081468Y0186551D01*
X0081468Y0185801D01*
X0080718Y0185050D01*
X0079216Y0185050D01*
X0078466Y0185801D01*
X0079967Y0187302D02*
X0080718Y0187302D01*
X0083070Y0188803D02*
X0083820Y0189554D01*
X0085322Y0189554D01*
X0086072Y0188803D01*
X0086072Y0188053D01*
X0083070Y0185050D01*
X0086072Y0185050D01*
X0092277Y0187302D02*
X0095280Y0187302D01*
X0093779Y0188803D02*
X0093779Y0185801D01*
X0101485Y0185801D02*
X0102236Y0185050D01*
X0103737Y0185050D01*
X0104488Y0185801D01*
X0104488Y0186551D01*
X0103737Y0187302D01*
X0102236Y0187302D01*
X0101485Y0188053D01*
X0101485Y0188803D01*
X0102236Y0189554D01*
X0103737Y0189554D01*
X0104488Y0188803D01*
X0106089Y0189554D02*
X0107591Y0189554D01*
X0106840Y0189554D02*
X0106840Y0185050D01*
X0106089Y0185050D02*
X0107591Y0185050D01*
X0109159Y0185050D02*
X0111410Y0185050D01*
X0112161Y0185801D01*
X0112161Y0188803D01*
X0111410Y0189554D01*
X0109159Y0189554D01*
X0109159Y0185050D01*
X0113762Y0185050D02*
X0113762Y0189554D01*
X0116765Y0189554D01*
X0115264Y0187302D02*
X0113762Y0187302D01*
X0113762Y0185050D02*
X0116765Y0185050D01*
X0122970Y0185801D02*
X0123721Y0185050D01*
X0125222Y0185050D01*
X0125973Y0185801D01*
X0125973Y0189554D01*
X0127574Y0189554D02*
X0129826Y0189554D01*
X0130577Y0188803D01*
X0130577Y0187302D01*
X0129826Y0186551D01*
X0127574Y0186551D01*
X0127574Y0185050D02*
X0127574Y0189554D01*
X0122970Y0189554D02*
X0122970Y0185801D01*
X0078356Y0173003D02*
X0078356Y0172253D01*
X0077606Y0171502D01*
X0078356Y0170751D01*
X0078356Y0170001D01*
X0077606Y0169250D01*
X0076105Y0169250D01*
X0075354Y0170001D01*
X0076855Y0171502D02*
X0077606Y0171502D01*
X0078356Y0173003D02*
X0077606Y0173754D01*
X0076105Y0173754D01*
X0075354Y0173003D01*
X0073753Y0173754D02*
X0072251Y0173754D01*
X0073002Y0173754D02*
X0073002Y0170001D01*
X0072251Y0169250D01*
X0071501Y0169250D01*
X0070750Y0170001D01*
X0060050Y0185801D02*
X0060050Y0188803D01*
X0060801Y0189554D01*
X0062302Y0189554D01*
X0063053Y0188803D01*
X0088664Y0138093D02*
X0091667Y0133589D01*
X0093268Y0133589D02*
X0096271Y0133589D01*
X0094769Y0133589D02*
X0094769Y0138093D01*
X0093268Y0136592D01*
X0091667Y0138093D02*
X0088664Y0133589D01*
X0135343Y0010054D02*
X0136845Y0010054D01*
X0136094Y0010054D02*
X0136094Y0006301D01*
X0135343Y0005550D01*
X0134593Y0005550D01*
X0133842Y0006301D01*
X0138446Y0005550D02*
X0141449Y0005550D01*
X0139947Y0005550D02*
X0139947Y0010054D01*
X0138446Y0008553D01*
D13*
X0152196Y0040200D02*
X0152196Y0042602D01*
X0152997Y0043403D01*
X0153797Y0043403D01*
X0154598Y0042602D01*
X0154598Y0040200D01*
X0157000Y0040200D02*
X0157000Y0042602D01*
X0156199Y0043403D01*
X0155399Y0043403D01*
X0154598Y0042602D01*
X0154598Y0045356D02*
X0154598Y0048559D01*
X0153797Y0048559D02*
X0157000Y0048559D01*
X0153797Y0048559D02*
X0152196Y0046958D01*
X0153797Y0045356D01*
X0157000Y0045356D01*
X0157000Y0040200D02*
X0152196Y0040200D01*
X0152196Y0050513D02*
X0152196Y0053716D01*
X0152196Y0052114D02*
X0157000Y0052114D01*
X0157000Y0057271D02*
X0152196Y0057271D01*
X0152196Y0058872D02*
X0152196Y0055669D01*
X0152196Y0060826D02*
X0157000Y0060826D01*
X0157000Y0064028D01*
X0157000Y0065982D02*
X0152196Y0065982D01*
X0152196Y0068384D01*
X0152997Y0069185D01*
X0154598Y0069185D01*
X0155399Y0068384D01*
X0155399Y0065982D01*
X0155399Y0067583D02*
X0157000Y0069185D01*
X0157000Y0072740D02*
X0154598Y0072740D01*
X0152997Y0074341D01*
X0152196Y0074341D01*
X0154598Y0072740D02*
X0152997Y0071138D01*
X0152196Y0071138D01*
X0152196Y0064028D02*
X0152196Y0060826D01*
X0154598Y0060826D02*
X0154598Y0062427D01*
X0160596Y0060826D02*
X0165400Y0060826D01*
X0165400Y0064028D01*
X0164599Y0065982D02*
X0165400Y0066783D01*
X0165400Y0068384D01*
X0164599Y0069185D01*
X0161397Y0069185D01*
X0160596Y0068384D01*
X0160596Y0066783D01*
X0161397Y0065982D01*
X0164599Y0065982D01*
X0165400Y0071138D02*
X0160596Y0071138D01*
X0160596Y0074341D02*
X0165400Y0074341D01*
X0163799Y0072740D01*
X0165400Y0071138D01*
X0172196Y0068384D02*
X0172196Y0066783D01*
X0172997Y0065982D01*
X0173797Y0065982D01*
X0174598Y0066783D01*
X0174598Y0068384D01*
X0175399Y0069185D01*
X0176199Y0069185D01*
X0177000Y0068384D01*
X0177000Y0066783D01*
X0176199Y0065982D01*
X0176199Y0064028D02*
X0172196Y0064028D01*
X0172196Y0060826D02*
X0176199Y0060826D01*
X0177000Y0061626D01*
X0177000Y0063228D01*
X0176199Y0064028D01*
X0180596Y0064028D02*
X0180596Y0060826D01*
X0180596Y0062427D02*
X0185400Y0062427D01*
X0185400Y0065982D02*
X0182197Y0065982D01*
X0180596Y0067583D01*
X0182197Y0069185D01*
X0185400Y0069185D01*
X0182998Y0069185D02*
X0182998Y0065982D01*
X0185400Y0058872D02*
X0180596Y0058872D01*
X0180596Y0055669D02*
X0185400Y0058872D01*
X0185400Y0055669D02*
X0180596Y0055669D01*
X0180596Y0053833D02*
X0180596Y0052232D01*
X0180596Y0053032D02*
X0185400Y0053032D01*
X0185400Y0052232D02*
X0185400Y0053833D01*
X0177000Y0053716D02*
X0173797Y0053716D01*
X0172196Y0052114D01*
X0173797Y0050513D01*
X0177000Y0050513D01*
X0174598Y0050513D02*
X0174598Y0053716D01*
X0172196Y0055669D02*
X0172196Y0058872D01*
X0172196Y0057271D02*
X0177000Y0057271D01*
X0172196Y0048559D02*
X0172196Y0045356D01*
X0172196Y0046958D02*
X0177000Y0046958D01*
X0176199Y0043403D02*
X0177000Y0042602D01*
X0177000Y0041001D01*
X0176199Y0040200D01*
X0174598Y0041001D02*
X0174598Y0042602D01*
X0175399Y0043403D01*
X0176199Y0043403D01*
X0174598Y0041001D02*
X0173797Y0040200D01*
X0172997Y0040200D01*
X0172196Y0041001D01*
X0172196Y0042602D01*
X0172997Y0043403D01*
X0172196Y0068384D02*
X0172997Y0069185D01*
X0163761Y0098304D02*
X0133839Y0098304D01*
X0091685Y0104750D02*
X0091687Y0104797D01*
X0091693Y0104844D01*
X0091703Y0104891D01*
X0091716Y0104936D01*
X0091734Y0104980D01*
X0091755Y0105022D01*
X0091779Y0105063D01*
X0091807Y0105101D01*
X0091838Y0105137D01*
X0091872Y0105170D01*
X0091908Y0105200D01*
X0091947Y0105227D01*
X0091988Y0105251D01*
X0092031Y0105271D01*
X0092075Y0105287D01*
X0092121Y0105300D01*
X0092167Y0105309D01*
X0092215Y0105314D01*
X0092262Y0105315D01*
X0092309Y0105312D01*
X0092356Y0105305D01*
X0092402Y0105294D01*
X0092447Y0105280D01*
X0092491Y0105261D01*
X0092532Y0105239D01*
X0092572Y0105214D01*
X0092610Y0105185D01*
X0092645Y0105154D01*
X0092678Y0105119D01*
X0092707Y0105082D01*
X0092733Y0105043D01*
X0092756Y0105001D01*
X0092775Y0104958D01*
X0092791Y0104913D01*
X0092803Y0104867D01*
X0092811Y0104821D01*
X0092815Y0104774D01*
X0092815Y0104726D01*
X0092811Y0104679D01*
X0092803Y0104633D01*
X0092791Y0104587D01*
X0092775Y0104542D01*
X0092756Y0104499D01*
X0092733Y0104457D01*
X0092707Y0104418D01*
X0092678Y0104381D01*
X0092645Y0104346D01*
X0092610Y0104315D01*
X0092572Y0104286D01*
X0092533Y0104261D01*
X0092491Y0104239D01*
X0092447Y0104220D01*
X0092402Y0104206D01*
X0092356Y0104195D01*
X0092309Y0104188D01*
X0092262Y0104185D01*
X0092215Y0104186D01*
X0092167Y0104191D01*
X0092121Y0104200D01*
X0092075Y0104213D01*
X0092031Y0104229D01*
X0091988Y0104249D01*
X0091947Y0104273D01*
X0091908Y0104300D01*
X0091872Y0104330D01*
X0091838Y0104363D01*
X0091807Y0104399D01*
X0091779Y0104437D01*
X0091755Y0104478D01*
X0091734Y0104520D01*
X0091716Y0104564D01*
X0091703Y0104609D01*
X0091693Y0104656D01*
X0091687Y0104703D01*
X0091685Y0104750D01*
X0034800Y0113109D02*
X0034800Y0116491D01*
X0030857Y0117591D02*
X0028743Y0117591D01*
X0024800Y0116491D02*
X0024800Y0113109D01*
X0022699Y0164388D02*
X0023400Y0165089D01*
X0023400Y0166490D01*
X0022699Y0167191D01*
X0021999Y0167191D01*
X0021298Y0166490D01*
X0021298Y0165089D01*
X0020598Y0164388D01*
X0019897Y0164388D01*
X0019196Y0165089D01*
X0019196Y0166490D01*
X0019897Y0167191D01*
X0019196Y0168992D02*
X0019196Y0171094D01*
X0019897Y0171795D01*
X0022699Y0171795D01*
X0023400Y0171094D01*
X0023400Y0168992D01*
X0019196Y0168992D01*
X0020598Y0173596D02*
X0019196Y0174997D01*
X0020598Y0176398D01*
X0023400Y0176398D01*
X0021298Y0176398D02*
X0021298Y0173596D01*
X0020598Y0173596D02*
X0023400Y0173596D01*
X0029196Y0173596D02*
X0029196Y0175698D01*
X0029897Y0176398D01*
X0032699Y0176398D01*
X0033400Y0175698D01*
X0033400Y0173596D01*
X0029196Y0173596D01*
X0029196Y0171795D02*
X0033400Y0171795D01*
X0029196Y0168992D01*
X0033400Y0168992D01*
X0032699Y0167191D02*
X0031298Y0167191D01*
X0031298Y0165789D01*
X0029897Y0164388D02*
X0032699Y0164388D01*
X0033400Y0165089D01*
X0033400Y0166490D01*
X0032699Y0167191D01*
X0029897Y0167191D02*
X0029196Y0166490D01*
X0029196Y0165089D01*
X0029897Y0164388D01*
X0039897Y0165789D02*
X0042699Y0165789D01*
X0041298Y0164388D02*
X0041298Y0167191D01*
X0039897Y0168992D02*
X0039196Y0169693D01*
X0039196Y0171094D01*
X0039897Y0171795D01*
X0040598Y0171795D01*
X0041298Y0171094D01*
X0041999Y0171795D01*
X0042699Y0171795D01*
X0043400Y0171094D01*
X0043400Y0169693D01*
X0042699Y0168992D01*
X0041298Y0170393D02*
X0041298Y0171094D01*
X0041999Y0173596D02*
X0039196Y0173596D01*
X0039196Y0176398D02*
X0041999Y0176398D01*
X0043400Y0174997D01*
X0041999Y0173596D01*
X0013400Y0173596D02*
X0013400Y0176398D01*
X0013400Y0173596D02*
X0009196Y0173596D01*
X0009897Y0171795D02*
X0009196Y0171094D01*
X0009196Y0169693D01*
X0009897Y0168992D01*
X0012699Y0168992D01*
X0013400Y0169693D01*
X0013400Y0171094D01*
X0012699Y0171795D01*
X0012699Y0167191D02*
X0011999Y0167191D01*
X0011298Y0166490D01*
X0011298Y0165089D01*
X0010598Y0164388D01*
X0009897Y0164388D01*
X0009196Y0165089D01*
X0009196Y0166490D01*
X0009897Y0167191D01*
X0012699Y0167191D02*
X0013400Y0166490D01*
X0013400Y0165089D01*
X0012699Y0164388D01*
X0133839Y0180509D02*
X0133839Y0192241D01*
X0163761Y0192241D01*
X0163761Y0180509D01*
X0133840Y0180508D02*
X0132841Y0180129D01*
X0131852Y0179726D01*
X0130873Y0179299D01*
X0129905Y0178848D01*
X0128948Y0178374D01*
X0128002Y0177877D01*
X0127070Y0177356D01*
X0126150Y0176813D01*
X0125244Y0176248D01*
X0124351Y0175660D01*
X0123474Y0175051D01*
X0122611Y0174421D01*
X0121765Y0173770D01*
X0120934Y0173099D01*
X0120120Y0172407D01*
X0119323Y0171696D01*
X0118544Y0170965D01*
X0117783Y0170216D01*
X0117040Y0169448D01*
X0116316Y0168663D01*
X0115612Y0167860D01*
X0114927Y0167040D01*
X0114263Y0166203D01*
X0113619Y0165351D01*
X0112996Y0164483D01*
X0112395Y0163601D01*
X0111815Y0162703D01*
X0111258Y0161792D01*
X0110722Y0160868D01*
X0110210Y0159931D01*
X0109721Y0158981D01*
X0109254Y0158020D01*
X0108812Y0157048D01*
X0108393Y0156065D01*
X0107999Y0155073D01*
X0107628Y0154071D01*
X0107283Y0153060D01*
X0106962Y0152041D01*
X0106666Y0151015D01*
X0106395Y0149982D01*
X0106150Y0148942D01*
X0105930Y0147897D01*
X0105735Y0146847D01*
X0105566Y0145792D01*
X0105424Y0144734D01*
X0105306Y0143672D01*
X0105215Y0142608D01*
X0105150Y0141541D01*
X0105111Y0140474D01*
X0105098Y0139406D01*
X0105111Y0138338D01*
X0105150Y0137271D01*
X0105215Y0136204D01*
X0105306Y0135140D01*
X0105424Y0134078D01*
X0105566Y0133020D01*
X0105735Y0131965D01*
X0105930Y0130915D01*
X0106150Y0129870D01*
X0106395Y0128830D01*
X0106666Y0127797D01*
X0106962Y0126771D01*
X0107283Y0125752D01*
X0107628Y0124741D01*
X0107999Y0123739D01*
X0108393Y0122747D01*
X0108812Y0121764D01*
X0109254Y0120792D01*
X0109721Y0119831D01*
X0110210Y0118881D01*
X0110722Y0117944D01*
X0111258Y0117020D01*
X0111815Y0116109D01*
X0112395Y0115211D01*
X0112996Y0114329D01*
X0113619Y0113461D01*
X0114263Y0112609D01*
X0114927Y0111772D01*
X0115612Y0110952D01*
X0116316Y0110149D01*
X0117040Y0109364D01*
X0117783Y0108596D01*
X0118544Y0107847D01*
X0119323Y0107116D01*
X0120120Y0106405D01*
X0120934Y0105713D01*
X0121765Y0105042D01*
X0122611Y0104391D01*
X0123474Y0103761D01*
X0124351Y0103152D01*
X0125244Y0102564D01*
X0126150Y0101999D01*
X0127070Y0101456D01*
X0128002Y0100935D01*
X0128948Y0100438D01*
X0129905Y0099964D01*
X0130873Y0099513D01*
X0131852Y0099086D01*
X0132841Y0098683D01*
X0133840Y0098304D01*
X0163760Y0098304D02*
X0164759Y0098683D01*
X0165748Y0099086D01*
X0166727Y0099513D01*
X0167695Y0099964D01*
X0168652Y0100438D01*
X0169598Y0100935D01*
X0170530Y0101456D01*
X0171450Y0101999D01*
X0172356Y0102564D01*
X0173249Y0103152D01*
X0174126Y0103761D01*
X0174989Y0104391D01*
X0175835Y0105042D01*
X0176666Y0105713D01*
X0177480Y0106405D01*
X0178277Y0107116D01*
X0179056Y0107847D01*
X0179817Y0108596D01*
X0180560Y0109364D01*
X0181284Y0110149D01*
X0181988Y0110952D01*
X0182673Y0111772D01*
X0183337Y0112609D01*
X0183981Y0113461D01*
X0184604Y0114329D01*
X0185205Y0115211D01*
X0185785Y0116109D01*
X0186342Y0117020D01*
X0186878Y0117944D01*
X0187390Y0118881D01*
X0187879Y0119831D01*
X0188346Y0120792D01*
X0188788Y0121764D01*
X0189207Y0122747D01*
X0189601Y0123739D01*
X0189972Y0124741D01*
X0190317Y0125752D01*
X0190638Y0126771D01*
X0190934Y0127797D01*
X0191205Y0128830D01*
X0191450Y0129870D01*
X0191670Y0130915D01*
X0191865Y0131965D01*
X0192034Y0133020D01*
X0192176Y0134078D01*
X0192294Y0135140D01*
X0192385Y0136204D01*
X0192450Y0137271D01*
X0192489Y0138338D01*
X0192502Y0139406D01*
X0192489Y0140474D01*
X0192450Y0141541D01*
X0192385Y0142608D01*
X0192294Y0143672D01*
X0192176Y0144734D01*
X0192034Y0145792D01*
X0191865Y0146847D01*
X0191670Y0147897D01*
X0191450Y0148942D01*
X0191205Y0149982D01*
X0190934Y0151015D01*
X0190638Y0152041D01*
X0190317Y0153060D01*
X0189972Y0154071D01*
X0189601Y0155073D01*
X0189207Y0156065D01*
X0188788Y0157048D01*
X0188346Y0158020D01*
X0187879Y0158981D01*
X0187390Y0159931D01*
X0186878Y0160868D01*
X0186342Y0161792D01*
X0185785Y0162703D01*
X0185205Y0163601D01*
X0184604Y0164483D01*
X0183981Y0165351D01*
X0183337Y0166203D01*
X0182673Y0167040D01*
X0181988Y0167860D01*
X0181284Y0168663D01*
X0180560Y0169448D01*
X0179817Y0170216D01*
X0179056Y0170965D01*
X0178277Y0171696D01*
X0177480Y0172407D01*
X0176666Y0173099D01*
X0175835Y0173770D01*
X0174989Y0174421D01*
X0174126Y0175051D01*
X0173249Y0175660D01*
X0172356Y0176248D01*
X0171450Y0176813D01*
X0170530Y0177356D01*
X0169598Y0177877D01*
X0168652Y0178374D01*
X0167695Y0178848D01*
X0166727Y0179299D01*
X0165748Y0179726D01*
X0164759Y0180129D01*
X0163760Y0180508D01*
X0067549Y0040904D02*
X0065447Y0040904D01*
X0065447Y0036700D01*
X0065447Y0038101D02*
X0067549Y0038101D01*
X0068249Y0038802D01*
X0068249Y0040203D01*
X0067549Y0040904D01*
X0066848Y0038101D02*
X0068249Y0036700D01*
X0068249Y0033404D02*
X0065447Y0033404D01*
X0066848Y0033404D02*
X0066848Y0029200D01*
X0063646Y0029200D02*
X0063646Y0032002D01*
X0062244Y0033404D01*
X0060843Y0032002D01*
X0060843Y0029200D01*
X0059042Y0029901D02*
X0058341Y0029200D01*
X0056239Y0029200D01*
X0056239Y0033404D01*
X0058341Y0033404D01*
X0059042Y0032703D01*
X0059042Y0032002D01*
X0058341Y0031302D01*
X0056239Y0031302D01*
X0058341Y0031302D02*
X0059042Y0030601D01*
X0059042Y0029901D01*
X0060843Y0031302D02*
X0063646Y0031302D01*
X0063646Y0036700D02*
X0060843Y0036700D01*
X0060843Y0040904D01*
X0063646Y0040904D01*
X0062244Y0038802D02*
X0060843Y0038802D01*
X0059042Y0038802D02*
X0059042Y0040203D01*
X0058341Y0040904D01*
X0056239Y0040904D01*
X0056239Y0036700D01*
X0056239Y0038101D02*
X0058341Y0038101D01*
X0059042Y0038802D01*
X0054438Y0040904D02*
X0054438Y0036700D01*
X0053037Y0039502D02*
X0054438Y0040904D01*
X0053037Y0039502D02*
X0051635Y0040904D01*
X0051635Y0036700D01*
X0049834Y0037401D02*
X0049834Y0040904D01*
X0047031Y0040904D02*
X0047031Y0037401D01*
X0047732Y0036700D01*
X0049133Y0036700D01*
X0049834Y0037401D01*
X0049133Y0033404D02*
X0047732Y0033404D01*
X0047031Y0032703D01*
X0047031Y0032002D01*
X0047732Y0031302D01*
X0049133Y0031302D01*
X0049834Y0030601D01*
X0049834Y0029901D01*
X0049133Y0029200D01*
X0047732Y0029200D01*
X0047031Y0029901D01*
X0045230Y0029901D02*
X0044529Y0029200D01*
X0043128Y0029200D01*
X0042427Y0029901D01*
X0043128Y0031302D02*
X0044529Y0031302D01*
X0045230Y0030601D01*
X0045230Y0029901D01*
X0043128Y0031302D02*
X0042427Y0032002D01*
X0042427Y0032703D01*
X0043128Y0033404D01*
X0044529Y0033404D01*
X0045230Y0032703D01*
X0049133Y0033404D02*
X0049834Y0032703D01*
X0044529Y0037401D02*
X0044529Y0040904D01*
X0043829Y0040904D02*
X0045230Y0040904D01*
X0044529Y0037401D02*
X0043829Y0036700D01*
X0043128Y0036700D01*
X0042427Y0037401D01*
X0039225Y0033404D02*
X0040626Y0032002D01*
X0040626Y0029200D01*
X0040626Y0031302D02*
X0037824Y0031302D01*
X0037824Y0032002D02*
X0037824Y0029200D01*
X0036022Y0031302D02*
X0035321Y0030601D01*
X0033220Y0030601D01*
X0033220Y0029200D02*
X0033220Y0033404D01*
X0035321Y0033404D01*
X0036022Y0032703D01*
X0036022Y0031302D01*
X0037824Y0032002D02*
X0039225Y0033404D01*
X0035321Y0036700D02*
X0033920Y0036700D01*
X0033220Y0037401D01*
X0034621Y0038802D02*
X0035321Y0038802D01*
X0036022Y0038101D01*
X0036022Y0037401D01*
X0035321Y0036700D01*
X0035321Y0038802D02*
X0036022Y0039502D01*
X0036022Y0040203D01*
X0035321Y0040904D01*
X0033920Y0040904D01*
X0033220Y0040203D01*
X0031418Y0040904D02*
X0030017Y0040904D01*
X0030717Y0040904D02*
X0030717Y0037401D01*
X0030017Y0036700D01*
X0029316Y0036700D01*
X0028616Y0037401D01*
X0028616Y0033404D02*
X0028616Y0032703D01*
X0030017Y0031302D01*
X0030017Y0029200D01*
X0030017Y0031302D02*
X0031418Y0032703D01*
X0031418Y0033404D01*
X0026814Y0032703D02*
X0026814Y0032002D01*
X0026114Y0031302D01*
X0024012Y0031302D01*
X0026114Y0031302D02*
X0026814Y0030601D01*
X0026814Y0029901D01*
X0026114Y0029200D01*
X0024012Y0029200D01*
X0024012Y0033404D01*
X0026114Y0033404D01*
X0026814Y0032703D01*
X0022210Y0037401D02*
X0022210Y0040203D01*
X0021510Y0040904D01*
X0019408Y0040904D01*
X0019408Y0036700D01*
X0021510Y0036700D01*
X0022210Y0037401D01*
X0017606Y0037401D02*
X0017606Y0040203D01*
X0016906Y0040904D01*
X0014804Y0040904D01*
X0014804Y0036700D01*
X0016906Y0036700D01*
X0017606Y0037401D01*
X0016906Y0033404D02*
X0015505Y0033404D01*
X0014804Y0032703D01*
X0014804Y0029901D01*
X0015505Y0029200D01*
X0016906Y0029200D01*
X0017606Y0029901D01*
X0017606Y0032703D01*
X0016906Y0033404D01*
X0013002Y0033404D02*
X0010200Y0033404D01*
X0011601Y0033404D02*
X0011601Y0029200D01*
X0010200Y0036700D02*
X0010200Y0039502D01*
X0011601Y0040904D01*
X0013002Y0039502D01*
X0013002Y0036700D01*
X0013002Y0038802D02*
X0010200Y0038802D01*
X0070051Y0033404D02*
X0072853Y0033404D01*
X0071452Y0033404D02*
X0071452Y0029200D01*
D14*
X0069823Y0047300D02*
X0067020Y0047300D01*
X0067020Y0052905D01*
X0069823Y0052905D01*
X0070757Y0051971D01*
X0070757Y0051037D01*
X0069823Y0050102D01*
X0067020Y0050102D01*
X0069823Y0050102D02*
X0070757Y0049168D01*
X0070757Y0048234D01*
X0069823Y0047300D01*
X0073098Y0048234D02*
X0074032Y0047300D01*
X0075900Y0047300D01*
X0076834Y0048234D01*
X0076834Y0051971D01*
X0075900Y0052905D01*
X0074032Y0052905D01*
X0073098Y0051971D01*
X0073098Y0048234D01*
X0079175Y0047300D02*
X0079175Y0051037D01*
X0081043Y0052905D01*
X0082911Y0051037D01*
X0082911Y0047300D01*
X0085252Y0047300D02*
X0085252Y0052905D01*
X0088054Y0052905D01*
X0088989Y0051971D01*
X0088989Y0050102D01*
X0088054Y0049168D01*
X0085252Y0049168D01*
X0087120Y0049168D02*
X0088989Y0047300D01*
X0091329Y0047300D02*
X0094132Y0047300D01*
X0095066Y0048234D01*
X0095066Y0051971D01*
X0094132Y0052905D01*
X0091329Y0052905D01*
X0091329Y0047300D01*
X0082911Y0050102D02*
X0079175Y0050102D01*
X0078860Y0057200D02*
X0075123Y0057200D01*
X0075123Y0062805D01*
X0078860Y0062805D01*
X0081201Y0062805D02*
X0081201Y0059068D01*
X0083069Y0057200D01*
X0084937Y0059068D01*
X0084937Y0062805D01*
X0076992Y0060002D02*
X0075123Y0060002D01*
X0072783Y0060002D02*
X0072783Y0061871D01*
X0071849Y0062805D01*
X0069046Y0062805D01*
X0069046Y0057200D01*
X0069046Y0059068D02*
X0071849Y0059068D01*
X0072783Y0060002D01*
X0070914Y0059068D02*
X0072783Y0057200D01*
X0060628Y0058134D02*
X0060628Y0061871D01*
X0059694Y0062805D01*
X0057826Y0062805D01*
X0056892Y0061871D01*
X0056892Y0058134D01*
X0057826Y0057200D01*
X0059694Y0057200D01*
X0060628Y0058134D01*
X0058603Y0052905D02*
X0058603Y0051971D01*
X0056734Y0050102D01*
X0056734Y0047300D01*
X0056734Y0050102D02*
X0054866Y0051971D01*
X0054866Y0052905D01*
X0052525Y0051971D02*
X0052525Y0050102D01*
X0051591Y0049168D01*
X0048789Y0049168D01*
X0048789Y0047300D02*
X0048789Y0052905D01*
X0051591Y0052905D01*
X0052525Y0051971D01*
X0050657Y0049168D02*
X0052525Y0047300D01*
X0046448Y0047300D02*
X0046448Y0051037D01*
X0044580Y0052905D01*
X0042712Y0051037D01*
X0042712Y0047300D01*
X0040528Y0047300D02*
X0038660Y0047300D01*
X0039594Y0047300D02*
X0039594Y0052905D01*
X0038660Y0052905D02*
X0040528Y0052905D01*
X0042712Y0050102D02*
X0046448Y0050102D01*
X0045672Y0057200D02*
X0047540Y0057200D01*
X0048474Y0058134D01*
X0048474Y0061871D01*
X0047540Y0062805D01*
X0045672Y0062805D01*
X0044737Y0061871D01*
X0044737Y0058134D01*
X0045672Y0057200D01*
X0042397Y0057200D02*
X0040528Y0059068D01*
X0041463Y0059068D02*
X0038660Y0059068D01*
X0038660Y0057200D02*
X0038660Y0062805D01*
X0041463Y0062805D01*
X0042397Y0061871D01*
X0042397Y0060002D01*
X0041463Y0059068D01*
X0036320Y0060002D02*
X0032583Y0060002D01*
X0032583Y0057200D02*
X0032583Y0062805D01*
X0030242Y0061871D02*
X0029308Y0062805D01*
X0027440Y0062805D01*
X0026506Y0061871D01*
X0026506Y0058134D01*
X0027440Y0057200D01*
X0029308Y0057200D01*
X0030242Y0058134D01*
X0030400Y0052905D02*
X0028532Y0052905D01*
X0029466Y0052905D02*
X0029466Y0047300D01*
X0028532Y0047300D02*
X0030400Y0047300D01*
X0032583Y0047300D02*
X0036320Y0047300D01*
X0032583Y0047300D02*
X0032583Y0052905D01*
X0036320Y0057200D02*
X0036320Y0062805D01*
X0026191Y0052905D02*
X0022454Y0047300D01*
X0026191Y0047300D02*
X0022454Y0052905D01*
X0020114Y0052905D02*
X0020114Y0048234D01*
X0019180Y0047300D01*
X0017311Y0047300D01*
X0016377Y0048234D01*
X0016377Y0052905D01*
X0014037Y0051037D02*
X0014037Y0047300D01*
X0010300Y0047300D02*
X0010300Y0051037D01*
X0012168Y0052905D01*
X0014037Y0051037D01*
X0014037Y0050102D02*
X0010300Y0050102D01*
X0010300Y0057200D02*
X0013102Y0057200D01*
X0014037Y0058134D01*
X0014037Y0061871D01*
X0013102Y0062805D01*
X0010300Y0062805D01*
X0010300Y0057200D01*
X0016377Y0057200D02*
X0018245Y0057200D01*
X0017311Y0057200D02*
X0017311Y0062805D01*
X0016377Y0062805D02*
X0018245Y0062805D01*
X0020429Y0062805D02*
X0020429Y0059068D01*
X0022297Y0057200D01*
X0024165Y0059068D01*
X0024165Y0062805D01*
X0050815Y0062805D02*
X0050815Y0057200D01*
X0054551Y0057200D02*
X0054551Y0062805D01*
X0050815Y0062805D02*
X0054551Y0057200D01*
X0093355Y0057200D02*
X0097091Y0057200D01*
X0095223Y0057200D02*
X0095223Y0062805D01*
X0093355Y0060937D01*
D15*
X0097800Y0017800D03*
X0097800Y0007800D03*
X0087800Y0007800D03*
X0087800Y0017800D03*
X0077800Y0017800D03*
X0077800Y0007800D03*
X0067800Y0007800D03*
X0067800Y0017800D03*
X0057800Y0017800D03*
X0057800Y0007800D03*
X0047800Y0007800D03*
X0047800Y0017800D03*
X0037800Y0017800D03*
X0037800Y0007800D03*
X0027800Y0007800D03*
X0027800Y0017800D03*
X0017800Y0017800D03*
X0017800Y0007800D03*
X0007800Y0007800D03*
X0007800Y0017800D03*
X0107800Y0017800D03*
X0107800Y0007800D03*
X0117800Y0007800D03*
X0117800Y0017800D03*
X0127800Y0017800D03*
X0127800Y0007800D03*
D16*
X0154392Y0008000D02*
X0156694Y0008000D01*
X0157461Y0008767D01*
X0157461Y0011837D01*
X0156694Y0012604D01*
X0154392Y0012604D01*
X0154392Y0008000D01*
X0158996Y0008000D02*
X0162065Y0008000D01*
X0160531Y0008000D02*
X0160531Y0012604D01*
X0158996Y0011069D01*
X0174392Y0012704D02*
X0174392Y0008100D01*
X0176694Y0008100D01*
X0177461Y0008867D01*
X0177461Y0011937D01*
X0176694Y0012704D01*
X0174392Y0012704D01*
X0178996Y0011937D02*
X0179763Y0012704D01*
X0181298Y0012704D01*
X0182065Y0011937D01*
X0182065Y0011169D01*
X0178996Y0008100D01*
X0182065Y0008100D01*
X0124473Y0039200D02*
X0121404Y0039200D01*
X0122939Y0039200D02*
X0122939Y0043804D01*
X0121404Y0042269D01*
X0119869Y0041502D02*
X0119102Y0040735D01*
X0116800Y0040735D01*
X0118335Y0040735D02*
X0119869Y0039200D01*
X0119869Y0041502D02*
X0119869Y0043037D01*
X0119102Y0043804D01*
X0116800Y0043804D01*
X0116800Y0039200D01*
X0109273Y0039200D02*
X0106204Y0039200D01*
X0109273Y0042269D01*
X0109273Y0043037D01*
X0108506Y0043804D01*
X0106971Y0043804D01*
X0106204Y0043037D01*
X0104669Y0043037D02*
X0104669Y0041502D01*
X0103902Y0040735D01*
X0101600Y0040735D01*
X0103135Y0040735D02*
X0104669Y0039200D01*
X0101600Y0039200D02*
X0101600Y0043804D01*
X0103902Y0043804D01*
X0104669Y0043037D01*
X0105069Y0071000D02*
X0103535Y0072535D01*
X0104302Y0072535D02*
X0102000Y0072535D01*
X0102000Y0071000D02*
X0102000Y0075604D01*
X0104302Y0075604D01*
X0105069Y0074837D01*
X0105069Y0073302D01*
X0104302Y0072535D01*
X0106604Y0072535D02*
X0107371Y0073302D01*
X0108906Y0073302D01*
X0109673Y0072535D01*
X0109673Y0071767D01*
X0108906Y0071000D01*
X0107371Y0071000D01*
X0106604Y0071767D01*
X0106604Y0072535D01*
X0107371Y0073302D02*
X0106604Y0074069D01*
X0106604Y0074837D01*
X0107371Y0075604D01*
X0108906Y0075604D01*
X0109673Y0074837D01*
X0109673Y0074069D01*
X0108906Y0073302D01*
X0108906Y0091000D02*
X0107371Y0091000D01*
X0106604Y0091767D01*
X0105069Y0091767D02*
X0104302Y0091000D01*
X0102767Y0091000D01*
X0102000Y0091767D01*
X0102000Y0094837D01*
X0102767Y0095604D01*
X0104302Y0095604D01*
X0105069Y0094837D01*
X0106604Y0094837D02*
X0107371Y0095604D01*
X0108906Y0095604D01*
X0109673Y0094837D01*
X0109673Y0094069D01*
X0108906Y0093302D01*
X0109673Y0092535D01*
X0109673Y0091767D01*
X0108906Y0091000D01*
X0108906Y0093302D02*
X0108139Y0093302D01*
X0128792Y0078604D02*
X0128792Y0074000D01*
X0128792Y0075535D02*
X0131094Y0075535D01*
X0131861Y0076302D01*
X0131861Y0077837D01*
X0131094Y0078604D01*
X0128792Y0078604D01*
X0130327Y0075535D02*
X0131861Y0074000D01*
X0133396Y0074767D02*
X0134163Y0074000D01*
X0135698Y0074000D01*
X0136465Y0074767D01*
X0136465Y0075535D01*
X0135698Y0076302D01*
X0134931Y0076302D01*
X0135698Y0076302D02*
X0136465Y0077069D01*
X0136465Y0077837D01*
X0135698Y0078604D01*
X0134163Y0078604D01*
X0133396Y0077837D01*
X0180792Y0091767D02*
X0181559Y0091000D01*
X0183094Y0091000D01*
X0183861Y0091767D01*
X0185396Y0091000D02*
X0188465Y0091000D01*
X0186931Y0091000D02*
X0186931Y0095604D01*
X0185396Y0094069D01*
X0183861Y0094837D02*
X0183094Y0095604D01*
X0181559Y0095604D01*
X0180792Y0094837D01*
X0180792Y0091767D01*
X0080673Y0149600D02*
X0077604Y0149600D01*
X0080673Y0152669D01*
X0080673Y0153437D01*
X0079906Y0154204D01*
X0078371Y0154204D01*
X0077604Y0153437D01*
X0076069Y0153437D02*
X0075302Y0154204D01*
X0073767Y0154204D01*
X0073000Y0153437D01*
X0073000Y0150367D01*
X0073767Y0149600D01*
X0075302Y0149600D01*
X0076069Y0150367D01*
X0065673Y0131604D02*
X0062604Y0131604D01*
X0061069Y0130837D02*
X0061069Y0129302D01*
X0060302Y0128535D01*
X0058000Y0128535D01*
X0059535Y0128535D02*
X0061069Y0127000D01*
X0062604Y0127000D02*
X0062604Y0127767D01*
X0065673Y0130837D01*
X0065673Y0131604D01*
X0061069Y0130837D02*
X0060302Y0131604D01*
X0058000Y0131604D01*
X0058000Y0127000D01*
X0071392Y0115904D02*
X0071392Y0112067D01*
X0072159Y0111300D01*
X0073694Y0111300D01*
X0074461Y0112067D01*
X0074461Y0115904D01*
X0075996Y0114369D02*
X0077531Y0115904D01*
X0077531Y0111300D01*
X0079065Y0111300D02*
X0075996Y0111300D01*
X0048673Y0101804D02*
X0047139Y0101037D01*
X0045604Y0099502D01*
X0047906Y0099502D01*
X0048673Y0098735D01*
X0048673Y0097967D01*
X0047906Y0097200D01*
X0046371Y0097200D01*
X0045604Y0097967D01*
X0045604Y0099502D01*
X0044069Y0099502D02*
X0043302Y0098735D01*
X0041000Y0098735D01*
X0042535Y0098735D02*
X0044069Y0097200D01*
X0041000Y0097200D02*
X0041000Y0101804D01*
X0043302Y0101804D01*
X0044069Y0101037D01*
X0044069Y0099502D01*
X0032906Y0073604D02*
X0030604Y0071302D01*
X0033673Y0071302D01*
X0032906Y0069000D02*
X0032906Y0073604D01*
X0029069Y0072837D02*
X0028302Y0073604D01*
X0026767Y0073604D01*
X0026000Y0072837D01*
X0026000Y0069767D01*
X0026767Y0069000D01*
X0028302Y0069000D01*
X0029069Y0069767D01*
X0021698Y0133100D02*
X0020163Y0133100D01*
X0019396Y0133867D01*
X0019396Y0135402D02*
X0020931Y0136169D01*
X0021698Y0136169D01*
X0022465Y0135402D01*
X0022465Y0133867D01*
X0021698Y0133100D01*
X0019396Y0135402D02*
X0019396Y0137704D01*
X0022465Y0137704D01*
X0017861Y0136937D02*
X0017861Y0135402D01*
X0017094Y0134635D01*
X0014792Y0134635D01*
X0016327Y0134635D02*
X0017861Y0133100D01*
X0014792Y0133100D02*
X0014792Y0137704D01*
X0017094Y0137704D01*
X0017861Y0136937D01*
X0017861Y0148400D02*
X0016327Y0149935D01*
X0017094Y0149935D02*
X0014792Y0149935D01*
X0014792Y0148400D02*
X0014792Y0153004D01*
X0017094Y0153004D01*
X0017861Y0152237D01*
X0017861Y0150702D01*
X0017094Y0149935D01*
X0019396Y0150702D02*
X0022465Y0150702D01*
X0021698Y0148400D02*
X0021698Y0153004D01*
X0019396Y0150702D01*
D17*
X0172067Y0181050D02*
X0176321Y0181050D01*
X0177739Y0182468D01*
X0177739Y0183886D01*
X0176321Y0185304D01*
X0172067Y0185304D01*
X0172067Y0189557D02*
X0172067Y0181050D01*
X0176321Y0185304D02*
X0177739Y0186722D01*
X0177739Y0188139D01*
X0176321Y0189557D01*
X0172067Y0189557D01*
X0181275Y0186722D02*
X0184111Y0189557D01*
X0184111Y0181050D01*
X0181275Y0181050D02*
X0186947Y0181050D01*
D18*
X0023500Y0110800D03*
D19*
X0026600Y0123350D02*
X0027101Y0123350D01*
X0027351Y0123600D01*
X0027351Y0124851D01*
X0027823Y0124601D02*
X0028073Y0124851D01*
X0028574Y0124851D01*
X0028824Y0124601D01*
X0028824Y0124351D01*
X0027823Y0123350D01*
X0028824Y0123350D01*
X0026600Y0123350D02*
X0026350Y0123600D01*
X0026350Y0124851D01*
D20*
X0156093Y0027415D03*
X0161507Y0027415D03*
X0176193Y0027415D03*
X0181607Y0027415D03*
D21*
X0178900Y0025889D03*
X0158800Y0025889D03*
M02*
