G75*
%MOIN*%
%OFA0B0*%
%FSLAX25Y25*%
%IPPOS*%
%LPD*%
%AMOC8*
5,1,8,0,0,1.08239X$1,22.5*
%
%ADD10C,0.00000*%
%ADD11R,0.06299X0.07098*%
%ADD12R,0.06299X0.07087*%
%ADD13R,0.02400X0.08700*%
%ADD14R,0.02165X0.04724*%
%ADD15R,0.07087X0.06299*%
%ADD16R,0.07098X0.06299*%
%ADD17R,0.05906X0.05906*%
D10*
X0001800Y0001800D02*
X0001800Y0196800D01*
X0196800Y0196800D01*
X0196800Y0001800D01*
X0001800Y0001800D01*
D11*
X0093602Y0033600D03*
X0104798Y0033600D03*
X0120802Y0033600D03*
X0131998Y0033600D03*
X0117398Y0064800D03*
X0106202Y0064800D03*
X0134202Y0084800D03*
X0145398Y0084800D03*
X0060398Y0119800D03*
X0049202Y0119800D03*
X0041398Y0135900D03*
X0030202Y0135900D03*
X0030202Y0151400D03*
X0041398Y0151400D03*
D12*
X0055288Y0151400D03*
X0066312Y0151400D03*
X0106288Y0084800D03*
X0117312Y0084800D03*
X0175288Y0084800D03*
X0186312Y0084800D03*
D13*
X0088900Y0086800D03*
X0083900Y0086800D03*
X0078900Y0086800D03*
X0073900Y0086800D03*
X0073900Y0107400D03*
X0078900Y0107400D03*
X0083900Y0107400D03*
X0088900Y0107400D03*
D14*
X0033540Y0109681D03*
X0029800Y0109681D03*
X0026060Y0109681D03*
X0026060Y0119919D03*
X0033540Y0119919D03*
D15*
X0029800Y0090312D03*
X0029800Y0079288D03*
D16*
X0045000Y0079202D03*
X0045000Y0090398D03*
D17*
X0158800Y0032090D03*
X0158800Y0018310D03*
X0178900Y0018310D03*
X0178900Y0032090D03*
M02*
