G75*
%MOIN*%
%OFA0B0*%
%FSLAX25Y25*%
%IPPOS*%
%LPD*%
%AMOC8*
5,1,8,0,0,1.08239X$1,22.5*
%
%ADD10C,0.00000*%
%ADD11R,0.07087X0.06299*%
%ADD12R,0.06299X0.07087*%
%ADD13R,0.06299X0.07098*%
%ADD14R,0.05200X0.02200*%
%ADD15R,0.07098X0.06299*%
%ADD16R,0.02600X0.08000*%
%ADD17R,0.05906X0.05906*%
%ADD18R,0.03150X0.03543*%
D10*
X0011528Y0028933D02*
X0011528Y0278933D01*
X0386528Y0278933D01*
X0386528Y0028933D01*
X0011528Y0028933D01*
X0021728Y0048933D02*
X0021731Y0049174D01*
X0021740Y0049414D01*
X0021755Y0049654D01*
X0021775Y0049894D01*
X0021802Y0050133D01*
X0021834Y0050371D01*
X0021872Y0050608D01*
X0021916Y0050845D01*
X0021966Y0051080D01*
X0022022Y0051314D01*
X0022083Y0051547D01*
X0022150Y0051778D01*
X0022223Y0052007D01*
X0022301Y0052235D01*
X0022385Y0052460D01*
X0022474Y0052683D01*
X0022569Y0052904D01*
X0022669Y0053123D01*
X0022774Y0053339D01*
X0022885Y0053553D01*
X0023001Y0053763D01*
X0023122Y0053971D01*
X0023248Y0054176D01*
X0023380Y0054378D01*
X0023516Y0054576D01*
X0023657Y0054771D01*
X0023802Y0054962D01*
X0023952Y0055150D01*
X0024107Y0055334D01*
X0024267Y0055514D01*
X0024430Y0055690D01*
X0024598Y0055863D01*
X0024771Y0056031D01*
X0024947Y0056194D01*
X0025127Y0056354D01*
X0025311Y0056509D01*
X0025499Y0056659D01*
X0025690Y0056804D01*
X0025885Y0056945D01*
X0026083Y0057081D01*
X0026285Y0057213D01*
X0026490Y0057339D01*
X0026698Y0057460D01*
X0026908Y0057576D01*
X0027122Y0057687D01*
X0027338Y0057792D01*
X0027557Y0057892D01*
X0027778Y0057987D01*
X0028001Y0058076D01*
X0028226Y0058160D01*
X0028454Y0058238D01*
X0028683Y0058311D01*
X0028914Y0058378D01*
X0029147Y0058439D01*
X0029381Y0058495D01*
X0029616Y0058545D01*
X0029853Y0058589D01*
X0030090Y0058627D01*
X0030328Y0058659D01*
X0030567Y0058686D01*
X0030807Y0058706D01*
X0031047Y0058721D01*
X0031287Y0058730D01*
X0031528Y0058733D01*
X0031769Y0058730D01*
X0032009Y0058721D01*
X0032249Y0058706D01*
X0032489Y0058686D01*
X0032728Y0058659D01*
X0032966Y0058627D01*
X0033203Y0058589D01*
X0033440Y0058545D01*
X0033675Y0058495D01*
X0033909Y0058439D01*
X0034142Y0058378D01*
X0034373Y0058311D01*
X0034602Y0058238D01*
X0034830Y0058160D01*
X0035055Y0058076D01*
X0035278Y0057987D01*
X0035499Y0057892D01*
X0035718Y0057792D01*
X0035934Y0057687D01*
X0036148Y0057576D01*
X0036358Y0057460D01*
X0036566Y0057339D01*
X0036771Y0057213D01*
X0036973Y0057081D01*
X0037171Y0056945D01*
X0037366Y0056804D01*
X0037557Y0056659D01*
X0037745Y0056509D01*
X0037929Y0056354D01*
X0038109Y0056194D01*
X0038285Y0056031D01*
X0038458Y0055863D01*
X0038626Y0055690D01*
X0038789Y0055514D01*
X0038949Y0055334D01*
X0039104Y0055150D01*
X0039254Y0054962D01*
X0039399Y0054771D01*
X0039540Y0054576D01*
X0039676Y0054378D01*
X0039808Y0054176D01*
X0039934Y0053971D01*
X0040055Y0053763D01*
X0040171Y0053553D01*
X0040282Y0053339D01*
X0040387Y0053123D01*
X0040487Y0052904D01*
X0040582Y0052683D01*
X0040671Y0052460D01*
X0040755Y0052235D01*
X0040833Y0052007D01*
X0040906Y0051778D01*
X0040973Y0051547D01*
X0041034Y0051314D01*
X0041090Y0051080D01*
X0041140Y0050845D01*
X0041184Y0050608D01*
X0041222Y0050371D01*
X0041254Y0050133D01*
X0041281Y0049894D01*
X0041301Y0049654D01*
X0041316Y0049414D01*
X0041325Y0049174D01*
X0041328Y0048933D01*
X0041325Y0048692D01*
X0041316Y0048452D01*
X0041301Y0048212D01*
X0041281Y0047972D01*
X0041254Y0047733D01*
X0041222Y0047495D01*
X0041184Y0047258D01*
X0041140Y0047021D01*
X0041090Y0046786D01*
X0041034Y0046552D01*
X0040973Y0046319D01*
X0040906Y0046088D01*
X0040833Y0045859D01*
X0040755Y0045631D01*
X0040671Y0045406D01*
X0040582Y0045183D01*
X0040487Y0044962D01*
X0040387Y0044743D01*
X0040282Y0044527D01*
X0040171Y0044313D01*
X0040055Y0044103D01*
X0039934Y0043895D01*
X0039808Y0043690D01*
X0039676Y0043488D01*
X0039540Y0043290D01*
X0039399Y0043095D01*
X0039254Y0042904D01*
X0039104Y0042716D01*
X0038949Y0042532D01*
X0038789Y0042352D01*
X0038626Y0042176D01*
X0038458Y0042003D01*
X0038285Y0041835D01*
X0038109Y0041672D01*
X0037929Y0041512D01*
X0037745Y0041357D01*
X0037557Y0041207D01*
X0037366Y0041062D01*
X0037171Y0040921D01*
X0036973Y0040785D01*
X0036771Y0040653D01*
X0036566Y0040527D01*
X0036358Y0040406D01*
X0036148Y0040290D01*
X0035934Y0040179D01*
X0035718Y0040074D01*
X0035499Y0039974D01*
X0035278Y0039879D01*
X0035055Y0039790D01*
X0034830Y0039706D01*
X0034602Y0039628D01*
X0034373Y0039555D01*
X0034142Y0039488D01*
X0033909Y0039427D01*
X0033675Y0039371D01*
X0033440Y0039321D01*
X0033203Y0039277D01*
X0032966Y0039239D01*
X0032728Y0039207D01*
X0032489Y0039180D01*
X0032249Y0039160D01*
X0032009Y0039145D01*
X0031769Y0039136D01*
X0031528Y0039133D01*
X0031287Y0039136D01*
X0031047Y0039145D01*
X0030807Y0039160D01*
X0030567Y0039180D01*
X0030328Y0039207D01*
X0030090Y0039239D01*
X0029853Y0039277D01*
X0029616Y0039321D01*
X0029381Y0039371D01*
X0029147Y0039427D01*
X0028914Y0039488D01*
X0028683Y0039555D01*
X0028454Y0039628D01*
X0028226Y0039706D01*
X0028001Y0039790D01*
X0027778Y0039879D01*
X0027557Y0039974D01*
X0027338Y0040074D01*
X0027122Y0040179D01*
X0026908Y0040290D01*
X0026698Y0040406D01*
X0026490Y0040527D01*
X0026285Y0040653D01*
X0026083Y0040785D01*
X0025885Y0040921D01*
X0025690Y0041062D01*
X0025499Y0041207D01*
X0025311Y0041357D01*
X0025127Y0041512D01*
X0024947Y0041672D01*
X0024771Y0041835D01*
X0024598Y0042003D01*
X0024430Y0042176D01*
X0024267Y0042352D01*
X0024107Y0042532D01*
X0023952Y0042716D01*
X0023802Y0042904D01*
X0023657Y0043095D01*
X0023516Y0043290D01*
X0023380Y0043488D01*
X0023248Y0043690D01*
X0023122Y0043895D01*
X0023001Y0044103D01*
X0022885Y0044313D01*
X0022774Y0044527D01*
X0022669Y0044743D01*
X0022569Y0044962D01*
X0022474Y0045183D01*
X0022385Y0045406D01*
X0022301Y0045631D01*
X0022223Y0045859D01*
X0022150Y0046088D01*
X0022083Y0046319D01*
X0022022Y0046552D01*
X0021966Y0046786D01*
X0021916Y0047021D01*
X0021872Y0047258D01*
X0021834Y0047495D01*
X0021802Y0047733D01*
X0021775Y0047972D01*
X0021755Y0048212D01*
X0021740Y0048452D01*
X0021731Y0048692D01*
X0021728Y0048933D01*
X0021728Y0258933D02*
X0021731Y0259174D01*
X0021740Y0259414D01*
X0021755Y0259654D01*
X0021775Y0259894D01*
X0021802Y0260133D01*
X0021834Y0260371D01*
X0021872Y0260608D01*
X0021916Y0260845D01*
X0021966Y0261080D01*
X0022022Y0261314D01*
X0022083Y0261547D01*
X0022150Y0261778D01*
X0022223Y0262007D01*
X0022301Y0262235D01*
X0022385Y0262460D01*
X0022474Y0262683D01*
X0022569Y0262904D01*
X0022669Y0263123D01*
X0022774Y0263339D01*
X0022885Y0263553D01*
X0023001Y0263763D01*
X0023122Y0263971D01*
X0023248Y0264176D01*
X0023380Y0264378D01*
X0023516Y0264576D01*
X0023657Y0264771D01*
X0023802Y0264962D01*
X0023952Y0265150D01*
X0024107Y0265334D01*
X0024267Y0265514D01*
X0024430Y0265690D01*
X0024598Y0265863D01*
X0024771Y0266031D01*
X0024947Y0266194D01*
X0025127Y0266354D01*
X0025311Y0266509D01*
X0025499Y0266659D01*
X0025690Y0266804D01*
X0025885Y0266945D01*
X0026083Y0267081D01*
X0026285Y0267213D01*
X0026490Y0267339D01*
X0026698Y0267460D01*
X0026908Y0267576D01*
X0027122Y0267687D01*
X0027338Y0267792D01*
X0027557Y0267892D01*
X0027778Y0267987D01*
X0028001Y0268076D01*
X0028226Y0268160D01*
X0028454Y0268238D01*
X0028683Y0268311D01*
X0028914Y0268378D01*
X0029147Y0268439D01*
X0029381Y0268495D01*
X0029616Y0268545D01*
X0029853Y0268589D01*
X0030090Y0268627D01*
X0030328Y0268659D01*
X0030567Y0268686D01*
X0030807Y0268706D01*
X0031047Y0268721D01*
X0031287Y0268730D01*
X0031528Y0268733D01*
X0031769Y0268730D01*
X0032009Y0268721D01*
X0032249Y0268706D01*
X0032489Y0268686D01*
X0032728Y0268659D01*
X0032966Y0268627D01*
X0033203Y0268589D01*
X0033440Y0268545D01*
X0033675Y0268495D01*
X0033909Y0268439D01*
X0034142Y0268378D01*
X0034373Y0268311D01*
X0034602Y0268238D01*
X0034830Y0268160D01*
X0035055Y0268076D01*
X0035278Y0267987D01*
X0035499Y0267892D01*
X0035718Y0267792D01*
X0035934Y0267687D01*
X0036148Y0267576D01*
X0036358Y0267460D01*
X0036566Y0267339D01*
X0036771Y0267213D01*
X0036973Y0267081D01*
X0037171Y0266945D01*
X0037366Y0266804D01*
X0037557Y0266659D01*
X0037745Y0266509D01*
X0037929Y0266354D01*
X0038109Y0266194D01*
X0038285Y0266031D01*
X0038458Y0265863D01*
X0038626Y0265690D01*
X0038789Y0265514D01*
X0038949Y0265334D01*
X0039104Y0265150D01*
X0039254Y0264962D01*
X0039399Y0264771D01*
X0039540Y0264576D01*
X0039676Y0264378D01*
X0039808Y0264176D01*
X0039934Y0263971D01*
X0040055Y0263763D01*
X0040171Y0263553D01*
X0040282Y0263339D01*
X0040387Y0263123D01*
X0040487Y0262904D01*
X0040582Y0262683D01*
X0040671Y0262460D01*
X0040755Y0262235D01*
X0040833Y0262007D01*
X0040906Y0261778D01*
X0040973Y0261547D01*
X0041034Y0261314D01*
X0041090Y0261080D01*
X0041140Y0260845D01*
X0041184Y0260608D01*
X0041222Y0260371D01*
X0041254Y0260133D01*
X0041281Y0259894D01*
X0041301Y0259654D01*
X0041316Y0259414D01*
X0041325Y0259174D01*
X0041328Y0258933D01*
X0041325Y0258692D01*
X0041316Y0258452D01*
X0041301Y0258212D01*
X0041281Y0257972D01*
X0041254Y0257733D01*
X0041222Y0257495D01*
X0041184Y0257258D01*
X0041140Y0257021D01*
X0041090Y0256786D01*
X0041034Y0256552D01*
X0040973Y0256319D01*
X0040906Y0256088D01*
X0040833Y0255859D01*
X0040755Y0255631D01*
X0040671Y0255406D01*
X0040582Y0255183D01*
X0040487Y0254962D01*
X0040387Y0254743D01*
X0040282Y0254527D01*
X0040171Y0254313D01*
X0040055Y0254103D01*
X0039934Y0253895D01*
X0039808Y0253690D01*
X0039676Y0253488D01*
X0039540Y0253290D01*
X0039399Y0253095D01*
X0039254Y0252904D01*
X0039104Y0252716D01*
X0038949Y0252532D01*
X0038789Y0252352D01*
X0038626Y0252176D01*
X0038458Y0252003D01*
X0038285Y0251835D01*
X0038109Y0251672D01*
X0037929Y0251512D01*
X0037745Y0251357D01*
X0037557Y0251207D01*
X0037366Y0251062D01*
X0037171Y0250921D01*
X0036973Y0250785D01*
X0036771Y0250653D01*
X0036566Y0250527D01*
X0036358Y0250406D01*
X0036148Y0250290D01*
X0035934Y0250179D01*
X0035718Y0250074D01*
X0035499Y0249974D01*
X0035278Y0249879D01*
X0035055Y0249790D01*
X0034830Y0249706D01*
X0034602Y0249628D01*
X0034373Y0249555D01*
X0034142Y0249488D01*
X0033909Y0249427D01*
X0033675Y0249371D01*
X0033440Y0249321D01*
X0033203Y0249277D01*
X0032966Y0249239D01*
X0032728Y0249207D01*
X0032489Y0249180D01*
X0032249Y0249160D01*
X0032009Y0249145D01*
X0031769Y0249136D01*
X0031528Y0249133D01*
X0031287Y0249136D01*
X0031047Y0249145D01*
X0030807Y0249160D01*
X0030567Y0249180D01*
X0030328Y0249207D01*
X0030090Y0249239D01*
X0029853Y0249277D01*
X0029616Y0249321D01*
X0029381Y0249371D01*
X0029147Y0249427D01*
X0028914Y0249488D01*
X0028683Y0249555D01*
X0028454Y0249628D01*
X0028226Y0249706D01*
X0028001Y0249790D01*
X0027778Y0249879D01*
X0027557Y0249974D01*
X0027338Y0250074D01*
X0027122Y0250179D01*
X0026908Y0250290D01*
X0026698Y0250406D01*
X0026490Y0250527D01*
X0026285Y0250653D01*
X0026083Y0250785D01*
X0025885Y0250921D01*
X0025690Y0251062D01*
X0025499Y0251207D01*
X0025311Y0251357D01*
X0025127Y0251512D01*
X0024947Y0251672D01*
X0024771Y0251835D01*
X0024598Y0252003D01*
X0024430Y0252176D01*
X0024267Y0252352D01*
X0024107Y0252532D01*
X0023952Y0252716D01*
X0023802Y0252904D01*
X0023657Y0253095D01*
X0023516Y0253290D01*
X0023380Y0253488D01*
X0023248Y0253690D01*
X0023122Y0253895D01*
X0023001Y0254103D01*
X0022885Y0254313D01*
X0022774Y0254527D01*
X0022669Y0254743D01*
X0022569Y0254962D01*
X0022474Y0255183D01*
X0022385Y0255406D01*
X0022301Y0255631D01*
X0022223Y0255859D01*
X0022150Y0256088D01*
X0022083Y0256319D01*
X0022022Y0256552D01*
X0021966Y0256786D01*
X0021916Y0257021D01*
X0021872Y0257258D01*
X0021834Y0257495D01*
X0021802Y0257733D01*
X0021775Y0257972D01*
X0021755Y0258212D01*
X0021740Y0258452D01*
X0021731Y0258692D01*
X0021728Y0258933D01*
X0356728Y0258933D02*
X0356731Y0259174D01*
X0356740Y0259414D01*
X0356755Y0259654D01*
X0356775Y0259894D01*
X0356802Y0260133D01*
X0356834Y0260371D01*
X0356872Y0260608D01*
X0356916Y0260845D01*
X0356966Y0261080D01*
X0357022Y0261314D01*
X0357083Y0261547D01*
X0357150Y0261778D01*
X0357223Y0262007D01*
X0357301Y0262235D01*
X0357385Y0262460D01*
X0357474Y0262683D01*
X0357569Y0262904D01*
X0357669Y0263123D01*
X0357774Y0263339D01*
X0357885Y0263553D01*
X0358001Y0263763D01*
X0358122Y0263971D01*
X0358248Y0264176D01*
X0358380Y0264378D01*
X0358516Y0264576D01*
X0358657Y0264771D01*
X0358802Y0264962D01*
X0358952Y0265150D01*
X0359107Y0265334D01*
X0359267Y0265514D01*
X0359430Y0265690D01*
X0359598Y0265863D01*
X0359771Y0266031D01*
X0359947Y0266194D01*
X0360127Y0266354D01*
X0360311Y0266509D01*
X0360499Y0266659D01*
X0360690Y0266804D01*
X0360885Y0266945D01*
X0361083Y0267081D01*
X0361285Y0267213D01*
X0361490Y0267339D01*
X0361698Y0267460D01*
X0361908Y0267576D01*
X0362122Y0267687D01*
X0362338Y0267792D01*
X0362557Y0267892D01*
X0362778Y0267987D01*
X0363001Y0268076D01*
X0363226Y0268160D01*
X0363454Y0268238D01*
X0363683Y0268311D01*
X0363914Y0268378D01*
X0364147Y0268439D01*
X0364381Y0268495D01*
X0364616Y0268545D01*
X0364853Y0268589D01*
X0365090Y0268627D01*
X0365328Y0268659D01*
X0365567Y0268686D01*
X0365807Y0268706D01*
X0366047Y0268721D01*
X0366287Y0268730D01*
X0366528Y0268733D01*
X0366769Y0268730D01*
X0367009Y0268721D01*
X0367249Y0268706D01*
X0367489Y0268686D01*
X0367728Y0268659D01*
X0367966Y0268627D01*
X0368203Y0268589D01*
X0368440Y0268545D01*
X0368675Y0268495D01*
X0368909Y0268439D01*
X0369142Y0268378D01*
X0369373Y0268311D01*
X0369602Y0268238D01*
X0369830Y0268160D01*
X0370055Y0268076D01*
X0370278Y0267987D01*
X0370499Y0267892D01*
X0370718Y0267792D01*
X0370934Y0267687D01*
X0371148Y0267576D01*
X0371358Y0267460D01*
X0371566Y0267339D01*
X0371771Y0267213D01*
X0371973Y0267081D01*
X0372171Y0266945D01*
X0372366Y0266804D01*
X0372557Y0266659D01*
X0372745Y0266509D01*
X0372929Y0266354D01*
X0373109Y0266194D01*
X0373285Y0266031D01*
X0373458Y0265863D01*
X0373626Y0265690D01*
X0373789Y0265514D01*
X0373949Y0265334D01*
X0374104Y0265150D01*
X0374254Y0264962D01*
X0374399Y0264771D01*
X0374540Y0264576D01*
X0374676Y0264378D01*
X0374808Y0264176D01*
X0374934Y0263971D01*
X0375055Y0263763D01*
X0375171Y0263553D01*
X0375282Y0263339D01*
X0375387Y0263123D01*
X0375487Y0262904D01*
X0375582Y0262683D01*
X0375671Y0262460D01*
X0375755Y0262235D01*
X0375833Y0262007D01*
X0375906Y0261778D01*
X0375973Y0261547D01*
X0376034Y0261314D01*
X0376090Y0261080D01*
X0376140Y0260845D01*
X0376184Y0260608D01*
X0376222Y0260371D01*
X0376254Y0260133D01*
X0376281Y0259894D01*
X0376301Y0259654D01*
X0376316Y0259414D01*
X0376325Y0259174D01*
X0376328Y0258933D01*
X0376325Y0258692D01*
X0376316Y0258452D01*
X0376301Y0258212D01*
X0376281Y0257972D01*
X0376254Y0257733D01*
X0376222Y0257495D01*
X0376184Y0257258D01*
X0376140Y0257021D01*
X0376090Y0256786D01*
X0376034Y0256552D01*
X0375973Y0256319D01*
X0375906Y0256088D01*
X0375833Y0255859D01*
X0375755Y0255631D01*
X0375671Y0255406D01*
X0375582Y0255183D01*
X0375487Y0254962D01*
X0375387Y0254743D01*
X0375282Y0254527D01*
X0375171Y0254313D01*
X0375055Y0254103D01*
X0374934Y0253895D01*
X0374808Y0253690D01*
X0374676Y0253488D01*
X0374540Y0253290D01*
X0374399Y0253095D01*
X0374254Y0252904D01*
X0374104Y0252716D01*
X0373949Y0252532D01*
X0373789Y0252352D01*
X0373626Y0252176D01*
X0373458Y0252003D01*
X0373285Y0251835D01*
X0373109Y0251672D01*
X0372929Y0251512D01*
X0372745Y0251357D01*
X0372557Y0251207D01*
X0372366Y0251062D01*
X0372171Y0250921D01*
X0371973Y0250785D01*
X0371771Y0250653D01*
X0371566Y0250527D01*
X0371358Y0250406D01*
X0371148Y0250290D01*
X0370934Y0250179D01*
X0370718Y0250074D01*
X0370499Y0249974D01*
X0370278Y0249879D01*
X0370055Y0249790D01*
X0369830Y0249706D01*
X0369602Y0249628D01*
X0369373Y0249555D01*
X0369142Y0249488D01*
X0368909Y0249427D01*
X0368675Y0249371D01*
X0368440Y0249321D01*
X0368203Y0249277D01*
X0367966Y0249239D01*
X0367728Y0249207D01*
X0367489Y0249180D01*
X0367249Y0249160D01*
X0367009Y0249145D01*
X0366769Y0249136D01*
X0366528Y0249133D01*
X0366287Y0249136D01*
X0366047Y0249145D01*
X0365807Y0249160D01*
X0365567Y0249180D01*
X0365328Y0249207D01*
X0365090Y0249239D01*
X0364853Y0249277D01*
X0364616Y0249321D01*
X0364381Y0249371D01*
X0364147Y0249427D01*
X0363914Y0249488D01*
X0363683Y0249555D01*
X0363454Y0249628D01*
X0363226Y0249706D01*
X0363001Y0249790D01*
X0362778Y0249879D01*
X0362557Y0249974D01*
X0362338Y0250074D01*
X0362122Y0250179D01*
X0361908Y0250290D01*
X0361698Y0250406D01*
X0361490Y0250527D01*
X0361285Y0250653D01*
X0361083Y0250785D01*
X0360885Y0250921D01*
X0360690Y0251062D01*
X0360499Y0251207D01*
X0360311Y0251357D01*
X0360127Y0251512D01*
X0359947Y0251672D01*
X0359771Y0251835D01*
X0359598Y0252003D01*
X0359430Y0252176D01*
X0359267Y0252352D01*
X0359107Y0252532D01*
X0358952Y0252716D01*
X0358802Y0252904D01*
X0358657Y0253095D01*
X0358516Y0253290D01*
X0358380Y0253488D01*
X0358248Y0253690D01*
X0358122Y0253895D01*
X0358001Y0254103D01*
X0357885Y0254313D01*
X0357774Y0254527D01*
X0357669Y0254743D01*
X0357569Y0254962D01*
X0357474Y0255183D01*
X0357385Y0255406D01*
X0357301Y0255631D01*
X0357223Y0255859D01*
X0357150Y0256088D01*
X0357083Y0256319D01*
X0357022Y0256552D01*
X0356966Y0256786D01*
X0356916Y0257021D01*
X0356872Y0257258D01*
X0356834Y0257495D01*
X0356802Y0257733D01*
X0356775Y0257972D01*
X0356755Y0258212D01*
X0356740Y0258452D01*
X0356731Y0258692D01*
X0356728Y0258933D01*
X0356728Y0048933D02*
X0356731Y0049174D01*
X0356740Y0049414D01*
X0356755Y0049654D01*
X0356775Y0049894D01*
X0356802Y0050133D01*
X0356834Y0050371D01*
X0356872Y0050608D01*
X0356916Y0050845D01*
X0356966Y0051080D01*
X0357022Y0051314D01*
X0357083Y0051547D01*
X0357150Y0051778D01*
X0357223Y0052007D01*
X0357301Y0052235D01*
X0357385Y0052460D01*
X0357474Y0052683D01*
X0357569Y0052904D01*
X0357669Y0053123D01*
X0357774Y0053339D01*
X0357885Y0053553D01*
X0358001Y0053763D01*
X0358122Y0053971D01*
X0358248Y0054176D01*
X0358380Y0054378D01*
X0358516Y0054576D01*
X0358657Y0054771D01*
X0358802Y0054962D01*
X0358952Y0055150D01*
X0359107Y0055334D01*
X0359267Y0055514D01*
X0359430Y0055690D01*
X0359598Y0055863D01*
X0359771Y0056031D01*
X0359947Y0056194D01*
X0360127Y0056354D01*
X0360311Y0056509D01*
X0360499Y0056659D01*
X0360690Y0056804D01*
X0360885Y0056945D01*
X0361083Y0057081D01*
X0361285Y0057213D01*
X0361490Y0057339D01*
X0361698Y0057460D01*
X0361908Y0057576D01*
X0362122Y0057687D01*
X0362338Y0057792D01*
X0362557Y0057892D01*
X0362778Y0057987D01*
X0363001Y0058076D01*
X0363226Y0058160D01*
X0363454Y0058238D01*
X0363683Y0058311D01*
X0363914Y0058378D01*
X0364147Y0058439D01*
X0364381Y0058495D01*
X0364616Y0058545D01*
X0364853Y0058589D01*
X0365090Y0058627D01*
X0365328Y0058659D01*
X0365567Y0058686D01*
X0365807Y0058706D01*
X0366047Y0058721D01*
X0366287Y0058730D01*
X0366528Y0058733D01*
X0366769Y0058730D01*
X0367009Y0058721D01*
X0367249Y0058706D01*
X0367489Y0058686D01*
X0367728Y0058659D01*
X0367966Y0058627D01*
X0368203Y0058589D01*
X0368440Y0058545D01*
X0368675Y0058495D01*
X0368909Y0058439D01*
X0369142Y0058378D01*
X0369373Y0058311D01*
X0369602Y0058238D01*
X0369830Y0058160D01*
X0370055Y0058076D01*
X0370278Y0057987D01*
X0370499Y0057892D01*
X0370718Y0057792D01*
X0370934Y0057687D01*
X0371148Y0057576D01*
X0371358Y0057460D01*
X0371566Y0057339D01*
X0371771Y0057213D01*
X0371973Y0057081D01*
X0372171Y0056945D01*
X0372366Y0056804D01*
X0372557Y0056659D01*
X0372745Y0056509D01*
X0372929Y0056354D01*
X0373109Y0056194D01*
X0373285Y0056031D01*
X0373458Y0055863D01*
X0373626Y0055690D01*
X0373789Y0055514D01*
X0373949Y0055334D01*
X0374104Y0055150D01*
X0374254Y0054962D01*
X0374399Y0054771D01*
X0374540Y0054576D01*
X0374676Y0054378D01*
X0374808Y0054176D01*
X0374934Y0053971D01*
X0375055Y0053763D01*
X0375171Y0053553D01*
X0375282Y0053339D01*
X0375387Y0053123D01*
X0375487Y0052904D01*
X0375582Y0052683D01*
X0375671Y0052460D01*
X0375755Y0052235D01*
X0375833Y0052007D01*
X0375906Y0051778D01*
X0375973Y0051547D01*
X0376034Y0051314D01*
X0376090Y0051080D01*
X0376140Y0050845D01*
X0376184Y0050608D01*
X0376222Y0050371D01*
X0376254Y0050133D01*
X0376281Y0049894D01*
X0376301Y0049654D01*
X0376316Y0049414D01*
X0376325Y0049174D01*
X0376328Y0048933D01*
X0376325Y0048692D01*
X0376316Y0048452D01*
X0376301Y0048212D01*
X0376281Y0047972D01*
X0376254Y0047733D01*
X0376222Y0047495D01*
X0376184Y0047258D01*
X0376140Y0047021D01*
X0376090Y0046786D01*
X0376034Y0046552D01*
X0375973Y0046319D01*
X0375906Y0046088D01*
X0375833Y0045859D01*
X0375755Y0045631D01*
X0375671Y0045406D01*
X0375582Y0045183D01*
X0375487Y0044962D01*
X0375387Y0044743D01*
X0375282Y0044527D01*
X0375171Y0044313D01*
X0375055Y0044103D01*
X0374934Y0043895D01*
X0374808Y0043690D01*
X0374676Y0043488D01*
X0374540Y0043290D01*
X0374399Y0043095D01*
X0374254Y0042904D01*
X0374104Y0042716D01*
X0373949Y0042532D01*
X0373789Y0042352D01*
X0373626Y0042176D01*
X0373458Y0042003D01*
X0373285Y0041835D01*
X0373109Y0041672D01*
X0372929Y0041512D01*
X0372745Y0041357D01*
X0372557Y0041207D01*
X0372366Y0041062D01*
X0372171Y0040921D01*
X0371973Y0040785D01*
X0371771Y0040653D01*
X0371566Y0040527D01*
X0371358Y0040406D01*
X0371148Y0040290D01*
X0370934Y0040179D01*
X0370718Y0040074D01*
X0370499Y0039974D01*
X0370278Y0039879D01*
X0370055Y0039790D01*
X0369830Y0039706D01*
X0369602Y0039628D01*
X0369373Y0039555D01*
X0369142Y0039488D01*
X0368909Y0039427D01*
X0368675Y0039371D01*
X0368440Y0039321D01*
X0368203Y0039277D01*
X0367966Y0039239D01*
X0367728Y0039207D01*
X0367489Y0039180D01*
X0367249Y0039160D01*
X0367009Y0039145D01*
X0366769Y0039136D01*
X0366528Y0039133D01*
X0366287Y0039136D01*
X0366047Y0039145D01*
X0365807Y0039160D01*
X0365567Y0039180D01*
X0365328Y0039207D01*
X0365090Y0039239D01*
X0364853Y0039277D01*
X0364616Y0039321D01*
X0364381Y0039371D01*
X0364147Y0039427D01*
X0363914Y0039488D01*
X0363683Y0039555D01*
X0363454Y0039628D01*
X0363226Y0039706D01*
X0363001Y0039790D01*
X0362778Y0039879D01*
X0362557Y0039974D01*
X0362338Y0040074D01*
X0362122Y0040179D01*
X0361908Y0040290D01*
X0361698Y0040406D01*
X0361490Y0040527D01*
X0361285Y0040653D01*
X0361083Y0040785D01*
X0360885Y0040921D01*
X0360690Y0041062D01*
X0360499Y0041207D01*
X0360311Y0041357D01*
X0360127Y0041512D01*
X0359947Y0041672D01*
X0359771Y0041835D01*
X0359598Y0042003D01*
X0359430Y0042176D01*
X0359267Y0042352D01*
X0359107Y0042532D01*
X0358952Y0042716D01*
X0358802Y0042904D01*
X0358657Y0043095D01*
X0358516Y0043290D01*
X0358380Y0043488D01*
X0358248Y0043690D01*
X0358122Y0043895D01*
X0358001Y0044103D01*
X0357885Y0044313D01*
X0357774Y0044527D01*
X0357669Y0044743D01*
X0357569Y0044962D01*
X0357474Y0045183D01*
X0357385Y0045406D01*
X0357301Y0045631D01*
X0357223Y0045859D01*
X0357150Y0046088D01*
X0357083Y0046319D01*
X0357022Y0046552D01*
X0356966Y0046786D01*
X0356916Y0047021D01*
X0356872Y0047258D01*
X0356834Y0047495D01*
X0356802Y0047733D01*
X0356775Y0047972D01*
X0356755Y0048212D01*
X0356740Y0048452D01*
X0356731Y0048692D01*
X0356728Y0048933D01*
D11*
X0296528Y0093421D03*
X0296528Y0104445D03*
X0286528Y0123421D03*
X0286528Y0134445D03*
X0231528Y0134445D03*
X0231528Y0123421D03*
X0101528Y0123421D03*
X0101528Y0134445D03*
X0071528Y0074445D03*
X0071528Y0063421D03*
D12*
X0047040Y0113933D03*
X0036017Y0113933D03*
X0226017Y0048933D03*
X0237040Y0048933D03*
X0361017Y0093933D03*
X0372040Y0093933D03*
X0067040Y0258933D03*
X0056017Y0258933D03*
D13*
X0100930Y0223933D03*
X0112127Y0223933D03*
X0112127Y0203933D03*
X0100930Y0203933D03*
X0100930Y0183933D03*
X0112127Y0183933D03*
X0112127Y0163933D03*
X0100930Y0163933D03*
X0150930Y0173933D03*
X0162127Y0173933D03*
X0195930Y0173933D03*
X0207127Y0173933D03*
X0230930Y0158933D03*
X0242127Y0158933D03*
X0320930Y0158933D03*
X0332127Y0158933D03*
X0207127Y0223933D03*
X0195930Y0223933D03*
X0162127Y0223933D03*
X0150930Y0223933D03*
X0047127Y0198933D03*
X0035930Y0198933D03*
X0035930Y0178933D03*
X0047127Y0178933D03*
X0047127Y0158933D03*
X0035930Y0158933D03*
X0035930Y0138933D03*
X0047127Y0138933D03*
X0225930Y0068933D03*
X0237127Y0068933D03*
D14*
X0261428Y0095233D03*
X0261428Y0098933D03*
X0261428Y0102633D03*
X0271628Y0102633D03*
X0271628Y0098933D03*
X0271628Y0095233D03*
D15*
X0261528Y0123335D03*
X0261528Y0134531D03*
X0231528Y0193335D03*
X0231528Y0204531D03*
X0201528Y0074531D03*
X0186528Y0074531D03*
X0186528Y0063335D03*
X0201528Y0063335D03*
X0171528Y0063335D03*
X0156528Y0063335D03*
X0156528Y0074531D03*
X0171528Y0074531D03*
X0141528Y0074531D03*
X0126528Y0074531D03*
X0126528Y0063335D03*
X0141528Y0063335D03*
X0111528Y0063335D03*
X0111528Y0074531D03*
X0096528Y0074531D03*
X0096528Y0063335D03*
D16*
X0129028Y0101833D03*
X0134028Y0101833D03*
X0139028Y0101833D03*
X0144028Y0101833D03*
X0149028Y0101833D03*
X0154028Y0101833D03*
X0159028Y0101833D03*
X0164028Y0101833D03*
X0164028Y0126033D03*
X0159028Y0126033D03*
X0154028Y0126033D03*
X0149028Y0126033D03*
X0144028Y0126033D03*
X0139028Y0126033D03*
X0134028Y0126033D03*
X0129028Y0126033D03*
D17*
X0126528Y0050823D03*
X0141528Y0050823D03*
X0156528Y0050823D03*
X0171528Y0050823D03*
X0186528Y0050823D03*
X0201528Y0050823D03*
X0201528Y0037043D03*
X0186528Y0037043D03*
X0171528Y0037043D03*
X0156528Y0037043D03*
X0141528Y0037043D03*
X0126528Y0037043D03*
X0111528Y0037043D03*
X0096528Y0037043D03*
X0096528Y0050823D03*
X0111528Y0050823D03*
D18*
X0152788Y0149996D03*
X0160269Y0149996D03*
X0156528Y0158264D03*
X0197788Y0149996D03*
X0205269Y0149996D03*
X0201528Y0158264D03*
X0197788Y0199996D03*
X0205269Y0199996D03*
X0201528Y0208264D03*
X0160269Y0199996D03*
X0152788Y0199996D03*
X0156528Y0208264D03*
M02*
