%
M48
M72
T01C0.02362
T02C0.02756
T03C0.03150
T04C0.03200
T05C0.03937
T06C0.04000
T07C0.04200
T08C0.19600
%
T01
X116528Y101433
X101528Y113933
X122528Y125933
X116528Y133933
X134028Y133933
X146528Y136433
X159028Y136433
X174028Y143933
X189028Y153933
X199028Y138933
X216528Y173933
X201528Y191433
X189028Y203933
X171528Y223933
X144028Y203933
X146528Y183933
X171528Y173933
X144028Y153933
X114028Y153933
X112128Y195133
X26528Y213933
X216528Y223933
X251528Y98933
X253278Y90183
X246528Y68933
X246528Y48933
X216528Y58933
X216528Y88933
X26528Y123933
T02
X261686Y58933
X281371Y58933
T03
X326528Y67122
X345426Y78933
T04
X319528Y123933
X333528Y123933
X361528Y118933
X371528Y118933
X371528Y148933
X361528Y148933
X362528Y73933
X370528Y73933
T05
X326528Y90744
T06
X71528Y103933
X81528Y103933
X81528Y113933
X71528Y113933
X71528Y123933
X81528Y123933
X81528Y133933
X71528Y133933
X71528Y143933
X81528Y143933
X81528Y153933
X71528Y153933
X71528Y163933
X81528Y163933
X81528Y173933
X71528Y173933
X71528Y183933
X81528Y183933
X81528Y193933
X71528Y193933
X71528Y203933
X81528Y203933
X81528Y213933
X71528Y213933
X71528Y223933
X81528Y223933
X86528Y248933
X96528Y248933
X106528Y248933
X106528Y258933
X96528Y258933
X86528Y258933
X161528Y258933
X171528Y258933
X181528Y258933
X191528Y258933
X201528Y258933
X211528Y258933
X211528Y248933
X201528Y248933
X191528Y248933
X181528Y248933
X171528Y248933
X161528Y248933
X291528Y158933
X301528Y158933
T07
X259028Y183933
X259028Y193933
X259028Y203933
X259028Y243933
X344028Y253933
X344028Y193933
X344028Y183933
T08
X31528Y258933
X31528Y48933
X366528Y48933
X366528Y258933
M30
